<!-- Generator: Adobe Illustrator 24.3.0, SVG Export Plug-In  -->
<svg version="1.1" xmlns="http://www.w3.org/2000/svg" xmlns:xlink="http://www.w3.org/1999/xlink" x="0px" y="0px"
	 width="88.325px" height="150.373px" viewBox="0 0 88.325 150.373"
	 style="overflow:visible;enable-background:new 0 0 88.325 150.373;" xml:space="preserve">
<style type="text/css">
	.st0{fill:#FF0000;}
</style>
<defs>
</defs>
<g>
	<path class="st0" d="M57.612,149.269c0.132-0.296,0.132-0.921,0-1.876c-0.135-0.96-0.401-1.584-0.803-1.877
		c-0.27-0.148-0.872-0.332-1.807-0.553c-0.938-0.221-1.475-0.331-1.606-0.331c-0.135,0-0.401-0.11-0.803-0.331
		s-0.671-0.479-0.803-0.772c-0.27-0.148-0.872-0.591-1.807-1.325c-0.938-0.735-1.54-1.249-1.807-1.546
		c-0.135,0-0.571-0.11-1.305-0.331c-0.737-0.221-1.506-0.441-2.309-0.662c-0.803-0.222-1.54-0.442-2.208-0.663
		c-0.672-0.221-1.073-0.403-1.205-0.552c-1.875-0.735-3.381-1.69-4.517-2.87c-1.139-1.177-2.509-2.354-4.115-3.533h-0.401
		c-0.671,0-1.139,0.552-1.405,1.656c-0.27,1.104-0.47,1.804-0.602,2.098c-1.205-0.294-1.907-0.846-2.108-1.656
		c-0.2-0.808-0.702-1.508-1.505-2.098l-0.401,0.441l-0.401,0.441c-0.271,0.297-0.402,0.959-0.402,1.987
		c0,1.032,0.132,1.694,0.402,1.987c-0.271,0-0.637-0.11-1.104-0.331c-0.471-0.221-0.771-0.477-0.903-0.772
		c-0.27-0.735-0.235-1.47,0.101-2.208c0.332-0.735,0.031-1.249-0.903-1.546c-0.135,0-0.235,0.038-0.302,0.11
		c-0.068,0.076-0.169,0.11-0.301,0.11c-0.135,0.148-0.336,0.221-0.603,0.221v5.962c-0.938,0.297-1.74,0.883-2.408,1.767
		c-0.672,0.883-1.475,1.4-2.409,1.546h-5.019c0,0.297-0.101,0.628-0.301,0.993c-0.201,0.366-0.37,0.625-0.502,0.773H9.636
		c-0.938,0-2.008-0.076-3.212-0.222c-1.204-0.147-2.076-0.369-2.609-0.662c-0.135-0.148-0.37-0.586-0.703-1.325
		c-0.335-0.734-0.637-1.249-0.903-1.545c-1.204-2.208-1.841-4.638-1.906-7.287c-0.069-2.649-0.101-5.151-0.101-7.508
		c0-1.767,0.166-3.864,0.502-6.293c0.332-2.429,0.803-4.931,1.405-7.508c0.602-2.573,1.27-5.078,2.007-7.508
		c0.734-2.429,1.506-4.45,2.309-6.072c0.668-1.324,1.672-2.28,3.012-2.87c1.336-0.587,2.34-1.546,3.011-2.871
		c0.267-0.145,0.634-0.883,1.104-2.208c0.468-1.324,0.769-2.132,0.903-2.429c0.132,0,0.402-0.365,0.804-1.104
		c0.132,0.148,0.267,0.222,0.401,0.222c0.267,0,0.401-0.073,0.401-0.222c0.267-0.145,0.603-0.476,1.004-0.993
		c0.401-0.514,0.602-0.846,0.602-0.994c0.267-0.293,0.333-0.586,0.201-0.883c-0.135-0.293-0.201-0.587-0.201-0.883
		c0.132-0.146,0.367-0.404,0.703-0.773c0.332-0.365,0.634-0.624,0.903-0.772c0.132,0.59,0.231,0.993,0.301,1.214
		c0.066,0.222,0.433,0.332,1.104,0.332c0.401,0,0.834-0.366,1.305-1.104c0.467-0.735,0.903-1.546,1.305-2.429
		c0.401-0.884,0.733-1.729,1.004-2.539c0.267-0.808,0.401-1.359,0.401-1.656c0.533,0,1.235-0.035,2.107-0.11
		c0.869-0.073,1.706-0.222,2.51-0.442c0.803-0.221,1.505-0.586,2.107-1.104c0.603-0.515,0.969-1.215,1.104-2.098h4.216
		c0-0.146,0.101-0.441,0.301-0.884c0.201-0.441,0.434-0.807,0.703-1.104c0.267,0,0.834,0.038,1.706,0.11
		c0.869,0.076,1.437,0.038,1.706-0.11c1.873-1.618,3.344-2.871,4.417-3.754c1.069-0.884,2.073-1.729,3.011-2.539
		c0.935-0.808,1.471-1.215,1.605-1.215c0-0.293-0.068-0.697-0.2-1.215c-0.135-0.514-0.069-0.845,0.2-0.993
		c0-0.146,0.333-0.441,1.004-0.884c0.668-0.441,1.136-0.734,1.405-0.883c0.132-0.145,0.267-0.441,0.401-0.884
		c0.132-0.441,0.267-0.734,0.401-0.883c0.132-0.293,0.434-0.662,0.903-1.104c0.468-0.441,0.769-0.734,0.903-0.883
		c0.267-0.587,0.703-1.618,1.305-3.092c0.603-1.47,0.97-2.353,1.104-2.649c0-0.145,0.065-0.586,0.201-1.325
		c0.131-0.734,0.231-1.545,0.301-2.429c0.065-0.883,0.166-1.729,0.301-2.539c0.132-0.808,0.201-1.287,0.201-1.436
		c0-0.145,0.132-0.441,0.401-0.883c0.267-0.441,0.401-0.735,0.401-0.884c0.267-0.441,0.533-1.028,0.803-1.767
		c0.267-0.734,0.401-1.176,0.401-1.324c-0.135,0-0.27-0.072-0.401-0.221c-0.27-0.294-0.536-0.442-0.803-0.442
		c-0.536-0.293-1.675-0.696-3.412-1.214c-1.741-0.515-2.88-0.846-3.413-0.994V30.03c-0.27,0-0.837,0.148-1.706,0.441
		c-0.872,0.297-1.439,0.442-1.706,0.442c-0.271-0.294-0.703-0.884-1.305-1.767c-0.603-0.884-0.973-1.397-1.104-1.546
		c-0.671-0.293-1.907-0.773-3.714-1.436s-2.979-1.066-3.513-1.215h-2.409c-2.945,0-6.057,0.518-9.334,1.546
		c-3.281,1.032-5.79,3.02-7.527,5.962v1.104c0,1.325,0.267,2.284,0.803,2.87l3.613,1.987c1.872,1.181,3.613,2.615,5.219,4.306
		c1.606,1.694,3.077,3.423,4.416,5.189c0,0.148,0.032,0.407,0.101,0.773c0.066,0.369,0.101,0.628,0.101,0.772
		c0,0.441-0.336,1.4-1.004,2.87c-0.671,1.474-1.139,2.208-1.405,2.208c-0.671,0-1.139-0.476-1.405-1.435
		c-0.27-0.956-0.47-1.801-0.602-2.54c-1.34,0.884-3.012,1.325-5.019,1.325c0-1.028,0.401-1.546,1.204-1.546s1.205-0.441,1.205-1.324
		v-1.104c-1.205,0.738-2.309,1.253-3.312,1.546c-1.004,0.297-2.177,0.441-3.513,0.441h-2.008c0-1.325-0.401-2.021-1.204-2.098
		c-0.803-0.072-1.54-0.403-2.208-0.993c-1.475-1.028-2.443-2.392-2.911-4.086c-0.471-1.69-1.239-3.125-2.309-4.306
		c-0.27-0.293-0.903-0.624-1.907-0.993c-1.003-0.366-2.007-0.697-3.011-0.994c-1.004-0.293-1.907-0.586-2.71-0.883
		c-0.803-0.293-1.204-0.587-1.204-0.884V17.224c-0.401-0.146-0.703-0.515-0.903-1.104C0.101,15.532,0,15.091,0,14.794
		c1.472,0,2.575-0.552,3.312-1.655c0.734-1.104,1.437-2.243,2.107-3.423c0.401,0,1.004-0.035,1.807-0.11
		c0.804-0.072,1.707-0.184,2.71-0.331c1.004-0.146,1.907-0.294,2.71-0.442c0.804-0.145,1.405-0.293,1.807-0.441
		c0.132,0,0.502-0.255,1.104-0.772c0.603-0.515,1.035-0.773,1.305-0.773c1.336-0.734,2.34-1.104,3.011-1.104
		c0.669,0,1.472-0.587,2.409-1.767h7.428c0-1.177,0.1-1.877,0.301-2.098S29.91,1.031,29.107,0h0.401h0.603
		c2.54,0.883,4.918,1.953,7.126,3.201c2.208,1.253,3.846,3.423,4.918,6.515h0.603c0.668,0,1.069-0.552,1.204-1.656
		c0.132-1.104,0.668-1.656,1.606-1.656c0.132,0,0.332,0.076,0.602,0.221c0.267,0.148,0.468,0.221,0.603,0.221
		c0.132,0,0.668,0.11,1.605,0.331c0.936,0.222,1.537,0.407,1.807,0.553c0.267,0,0.734,0,1.405,0c0.668,0,1.371,0,2.108,0
		c0.733,0,1.405,0.148,2.007,0.441c0.603,0.297,0.97,0.811,1.104,1.546c0.132,0.297,0.301,1.18,0.502,2.649
		c0.2,1.474,0.301,2.429,0.301,2.871c1.204,0.441,2.775,1.473,4.718,3.091c1.938,1.622,3.042,3.167,3.312,4.637
		c0,0.297-0.068,0.884-0.2,1.767c-0.135,0.884-0.201,1.474-0.201,1.767c0.803,0,1.471-0.145,2.008-0.441
		c0.533-0.293,1.135-0.441,1.807-0.441c0.132,0,0.267,0.038,0.401,0.11c0.132,0.076,0.267,0.11,0.401,0.11
		c0.401,0.148,0.903,0.331,1.506,0.552c0.602,0.221,0.969,0.331,1.104,0.331c0.132,0.148,0.132,0.663,0,1.546
		c-0.135,0.884-0.135,1.401,0,1.546c0.132,0.297,0.567,0.921,1.305,1.877c0.734,0.959,1.17,1.656,1.305,2.098
		c0.401,0.883,0.634,2.174,0.703,3.864c0.065,1.694,0.101,3.129,0.101,4.306c0,1.767-0.135,3.533-0.402,5.3
		c-0.27,1.767-0.401,3.608-0.401,5.521c0,1.766,0,3.35,0,4.747c0,1.4,0.267,2.908,0.804,4.526c-0.271,0.297-0.973,0.849-2.108,1.656
		c-1.139,0.811-1.841,1.29-2.107,1.436c-0.135,0.148-0.737-0.221-1.807-1.104c-1.073-0.883-1.741-1.324-2.008-1.324
		c0,0.148,0.066,0.518,0.201,1.104c0.132,0.59,0.267,1.215,0.401,1.877c0.132,0.662,0.267,1.325,0.401,1.987
		c0.132,0.662,0.201,1.069,0.201,1.215c0,0.297,0.132,0.662,0.401,1.104c0.267,0.442,0.401,0.738,0.401,0.884v1.767
		c0,1.18-0.17,2.136-0.502,2.87c-0.336,0.738-0.973,1.104-1.907,1.104c-1.072,0-1.706-0.477-1.907-1.436
		c-0.2-0.956-0.637-1.436-1.305-1.436h-0.2c0,1.325-0.27,2.467-0.803,3.423c-0.537,0.959-1.104,1.877-1.707,2.76
		c-0.602,0.884-1.204,1.805-1.807,2.761c-0.602,0.959-0.972,2.098-1.104,3.422c0-0.293-0.135-0.807-0.401-1.545
		c-0.271-0.735-0.471-1.177-0.603-1.325l-0.401-0.221c-0.671,0-1.204,0.148-1.606,0.441c-0.401,0.297-1.138,0.441-2.208,0.441v5.079
		c0,0.148-0.2,0.331-0.602,0.552s-0.737,0.331-1.004,0.331c-0.27,0.148-0.872,0.187-1.807,0.11c-0.938-0.072-1.54-0.11-1.807-0.11
		l-1.405,1.325c-0.27,0-0.536-0.145-0.803-0.441c-0.27-0.293-0.401-0.587-0.401-0.884c0.267-0.293,0.467-0.586,0.602-0.883
		c0.132-0.293,0.333-0.587,0.603-0.884v-0.441v-0.441c-0.536,0-0.938-0.365-1.204-1.104l-0.401-0.221
		c-0.136,0-0.271,0.076-0.402,0.221c-0.135,0.297-0.401,0.628-0.803,0.994c-0.401,0.369-0.671,0.7-0.803,0.993v0.442v0.441
		c0,0.148,0.132,0.518,0.401,1.104c0.267,0.591,0.401,0.96,0.401,1.104c-1.204,1.031-2.343,1.915-3.412,2.649
		c-0.938,0.738-1.775,1.401-2.51,1.987c-0.737,0.591-1.173,0.884-1.305,0.884l1.004,0.883l-2.008,4.195
		c-0.401,0.297-1.072,1.143-2.007,2.54c-0.938,1.4-1.54,2.318-1.807,2.76c0.267,0.59,0.935,0.628,2.007,0.11
		c1.07-0.514,1.807-0.772,2.208-0.772h0.603c0.267-0.146,0.468-0.477,0.603-0.994c0.132-0.514,0.267-0.845,0.401-0.993
		c0-0.146,0.2-0.11,0.603,0.11c0.401,0.221,0.668,0.331,0.803,0.331l0.401-1.546h0.603c0.533,0,0.868,0.076,1.003,0.221
		c0.132,0.148,0.167,0.076,0.101-0.221c-0.068-0.293-0.101-0.365-0.101-0.221c0.533,1.18,1.437,1.767,2.71,1.767
		c1.271,0,2.24,0.148,2.911,0.441c0.132,0.297,0.332,0.59,0.603,0.884l0.803,0.883c1.204,1.18,2.509,1.732,3.914,1.656
		c1.405-0.072,2.776-0.11,4.115-0.11c0,0.297,0.066,0.662,0.201,1.104v0.884c0,0.148,0.065,0.297,0.2,0.441
		c-0.27,0.297-0.938,0.628-2.007,0.994c-1.073,0.369-1.741,0.7-2.008,0.993v10.378c0,0.738,0.267,1.104,0.803,1.104
		c0.267,0,0.468-0.697,0.603-2.098c0.132-1.397,0.332-2.905,0.603-4.526c0.267-1.618,0.633-3.054,1.104-4.307
		c0.468-1.249,1.17-1.801,2.108-1.655l2.408,3.753c0,0.442,0.066,1.032,0.201,1.767c0.132,0.738,0.533,1.104,1.204,1.104
		c0.668,0,1.204-0.145,1.606-0.441c0.401-0.294,0.868-0.442,1.404-0.442c0.936,0,1.572,0.259,1.907,0.773
		c0.333,0.518,0.634,1.142,0.903,1.877h4.216c-0.27,0-0.737-0.221-1.405-0.663c-0.671-0.441-1.072-0.807-1.204-1.104l-0.201-0.441
		l0.201-0.442c0.132-0.145,0.267-0.365,0.401-0.662c0.132-0.293,0.267-0.441,0.401-0.441c0.533,0.297,1.471,0.662,2.811,1.104
		c1.336,0.442,2.139,0.739,2.408,0.884c0.267,0.148,1.17,0.187,2.71,0.11c1.537-0.072,2.44-0.11,2.71-0.11
		c0.132,0.148,0.402,0.297,0.804,0.441c0.401,0.148,0.733,0.297,1.003,0.441c0,0.297,0.101,0.849,0.302,1.656
		c0.2,0.811,0.367,1.291,0.502,1.436c0.267,0.297,0.668,0.221,1.204-0.221c0.533-0.441,0.869-0.663,1.004-0.663
		c0-0.293,0.065-0.365,0.2-0.221c0.132,0.148,0.132,0.221,0,0.221c0-0.293-0.135-0.696-0.401-1.214
		c-0.27-0.515-0.401-0.846-0.401-0.994l-0.2-0.441v-0.441h1.003c0.401,0.148,0.903,0.331,1.506,0.552s0.969,0.331,1.104,0.331
		l0.2,0.442c0,1.766-0.436,3.019-1.305,3.753c-0.872,0.739-1.641,1.622-2.309,2.65v1.104c-0.27,1.181-0.671,1.953-1.204,2.319
		c-0.536,0.369-1.104,0.552-1.706,0.552c-0.603,0-1.174-0.034-1.707-0.11c-0.536-0.072-1.003-0.11-1.405-0.11l1.807,2.87
		c0.132,0.148,0.101,0.331-0.1,0.552c-0.201,0.222-0.437,0.332-0.703,0.332c-0.938,0-1.54-0.294-1.807-0.884
		c-0.27-0.586-0.436-1.214-0.502-1.877c-0.068-0.662-0.169-1.287-0.301-1.877c-0.135-0.586-0.536-0.883-1.204-0.883
		c-0.402,0-0.537,0.518-0.402,1.546c0.132,1.031,0.101,2.024-0.1,2.98c-0.201,0.959-0.737,1.584-1.606,1.877
		c-0.872,0.297-2.443-0.293-4.717-1.767v-5.962c-0.135,0-0.271-0.072-0.401-0.221l-0.402-0.441
		c-0.135,0.297-0.301,0.662-0.501,1.104c-0.201,0.442-0.302,0.738-0.302,0.884c-0.135,0.59-0.101,1.915,0.101,3.975
		c0.201,2.063,0.301,3.46,0.301,4.195l0.401,0.441c0.132-0.293,0.302-0.662,0.502-1.104c0.201-0.442,0.302-0.808,0.302-1.104
		c0.668,0.59,1.27,1.29,1.807,2.098c0.533,0.811,0.803,1.584,0.803,2.318c0,0.738-0.135,1.215-0.401,1.436
		c-0.27,0.221-0.401,0.772-0.401,1.656c0,0.586,0.031,0.734,0.1,0.441c0.066-0.293,0.167-0.772,0.302-1.436
		c0.132-0.662,0.332-1.286,0.602-1.877c0.267-0.586,0.669-0.883,1.205-0.883l2.408-1.546c0.534-0.441,1.07-0.808,1.606-1.104
		c1.069-0.587,1.605-0.735,1.605-0.442l-1.605,11.262c-2.811,0-5.053,0.625-6.725,1.877c-1.675,1.249-3.714,1.877-6.123,1.877
		c-1.339,0-2.443-0.038-3.312-0.11C60.053,150.187,58.948,149.855,57.612,149.269z M7.227,103.119h0.401
		c0-0.293,0.066-0.918,0.201-1.877c0.132-0.955,0.533-1.58,1.204-1.877l-0.401-0.441L8.23,98.482l-0.603-0.221l-0.401,0.221V103.119
		z M11.041,95.611c-0.536,0-0.803,0.331-0.803,0.994c0,0.662,0.267,0.993,0.803,0.993c0.401,0,0.603-0.331,0.603-0.993
		C11.644,95.942,11.442,95.611,11.041,95.611z M13.45,99.365c-0.537,0-0.804,0.331-0.804,0.994c0,0.662,0.267,0.993,0.804,0.993
		c0.533,0,0.803-0.331,0.803-0.993C14.253,99.696,13.983,99.365,13.45,99.365z M14.453,94.729h0.804l-0.804-0.884V94.729z
		 M15.257,89.87c0.935,0.297,1.807,0.591,2.609,0.884c0.803,0.297,1.672,0.441,2.609,0.441c0-1.028-0.27-1.656-0.803-1.877
		c-0.536-0.221-1.204-0.331-2.008-0.331c-0.27,0-0.702,0-1.305,0C15.759,88.987,15.389,89.284,15.257,89.87z M16.06,129.175
		c-0.401,0-0.603,0.331-0.603,0.994c0,0.662,0.201,0.993,0.603,0.993s0.603-0.331,0.603-0.993
		C16.662,129.506,16.461,129.175,16.06,129.175z M17.665,30.914c-0.401,0-0.602,0.258-0.602,0.772c0,0.518,0.2,0.772,0.602,0.772
		c0.533,0,0.804-0.255,0.804-0.772C18.469,31.172,18.198,30.914,17.665,30.914z M22.684,107.535c0,1.181,0.232,2.319,0.703,3.423
		c0.467,1.104,1.235,1.656,2.309,1.656h0.401c0.132,0,0.267-0.072,0.401-0.221c0.132-0.146,0.301-0.366,0.502-0.663
		c0.2-0.293,0.633-0.955,1.305-1.987l0.2-0.662c0-0.145-0.068-0.293-0.2-0.441c-0.938-0.293-1.842-0.552-2.71-0.773
		C24.723,107.646,23.753,107.535,22.684,107.535z M25.093,83.246c0,0.148,0.132,0.369,0.401,0.662l0.201,0.221
		c0,0.297,0,0.884,0,1.767c0,0.884,0.031,1.843,0.1,2.871c0.066,1.031,0.101,1.952,0.101,2.76c0,0.811,0,1.363,0,1.656
		c0.401,0,0.603-0.145,0.603-0.441c0.267-0.146,0.467-0.587,0.602-1.325c0.132-0.734,0.267-1.249,0.402-1.546l0.803-0.441
		l0.803-0.441v-1.767c0-0.293,0.166-0.993,0.502-2.098c0.332-1.104,0.502-1.729,0.502-1.877c0-0.587-0.235-0.993-0.703-1.215
		c-0.47-0.221-0.972-0.365-1.505-0.441c-0.537-0.072-1.038-0.255-1.506-0.552c-0.471-0.293-0.702-0.808-0.702-1.546
		c-0.271,0.148-0.502,0.59-0.703,1.325c-0.2,0.738-0.301,1.252-0.301,1.546L25.093,83.246z M26.498,130.059
		c0.267-0.294,0.132-0.441-0.401-0.441c-0.537,0-0.672,0.147-0.401,0.441c0.131,0.441,0.301,0.662,0.501,0.662
		C26.397,130.721,26.498,130.5,26.498,130.059z M28.305,75.518c-0.536,0-0.803,0.297-0.803,0.884v0.441v0.441l0.803-0.883V76.18
		V75.518z M28.104,5.962c0,0.883,0.302,1.436,0.903,1.656c0.603,0.221,1.236,0.331,1.907,0.331V4.637
		c-0.27,0-0.737,0.11-1.405,0.331c-0.671,0.221-1.072,0.407-1.204,0.553L28.104,5.962z M28.305,129.175
		c0.132,0.297,0.401,0.812,0.803,1.546c0.401,0.738,0.734,1.18,1.004,1.325c0.132-0.146,0.301-0.477,0.502-0.994
		c0.2-0.514,0.301-0.845,0.301-0.993v-0.441v-0.442c0-0.293-0.101-0.662-0.301-1.104c-0.201-0.441-0.37-0.663-0.502-0.663H29.91
		c-0.135,0-0.27-0.072-0.401-0.221l-0.401,0.221c-0.536,0-0.803,0.297-0.803,0.884l-0.201,0.441L28.305,129.175z M29.107,109.302
		c0.533-0.734,0.834-1.324,0.903-1.767c0.065-0.441,0.101-1.028,0.101-1.767c0-0.293,0-0.734,0-1.324
		c0-0.587-0.336-1.028-1.004-1.325l-0.803,1.325L29.107,109.302z M30.111,92.741c-0.536,0-0.803,0.331-0.803,0.993
		c0,0.663,0.267,0.994,0.803,0.994c0.401,0,0.602-0.331,0.602-0.994C30.713,93.072,30.513,92.741,30.111,92.741z M30.111,101.353
		c0.668-0.293,1.004-0.955,1.004-1.987h-1.004V101.353z M40.55,108.86c-0.804,0-1.34,0.369-1.606,1.104
		c-0.27,0.738-0.401,1.4-0.401,1.987c0.935,0,1.506-0.332,1.706-0.994C40.449,110.296,40.55,109.599,40.55,108.86z M41.754,135.8
		c0,1.324,0.603,2.025,1.807,2.098c1.204,0.075,2.34,0.11,3.413,0.11c0-1.177-0.637-1.839-1.907-1.987
		C43.793,135.875,42.688,135.8,41.754,135.8z M43.962,107.094c-0.27,1.325-0.471,2.395-0.602,3.202
		c-0.136,0.811-0.271,1.656-0.402,2.539c-0.135,0.883-0.27,1.546-0.401,1.987v0.883v0.884c0.132,0,0.401,0.331,0.804,0.993
		c0.401,0.663,0.834,1.215,1.305,1.656c0.467,0.441,0.834,0.441,1.104,0c0.267-0.441,0.401-1.911,0.401-4.416
		c0-0.145,0.132-0.365,0.401-0.662l0.402-0.442c0-0.145-0.035-0.552-0.101-1.214c-0.069-0.662-0.17-1.359-0.302-2.098
		c-0.135-0.735-0.234-1.436-0.301-2.098c-0.069-0.663-0.101-1.066-0.101-1.215H43.962z M46.371,73.751
		c0,0.738,0.332,1.325,1.004,1.767v-1.767H46.371z M48.178,127.408l1.004-1.104l-1.004-0.884V127.408z M55.003,125.643
		c0,0.738,0.166,1.142,0.502,1.214c0.332,0.076,0.769,0.187,1.305,0.331c0.533,0.148,1.035,0.479,1.505,0.994
		c0.468,0.518,0.835,1.511,1.104,2.98c0-0.293,0.132-0.807,0.401-1.545c0.267-0.735,0.533-1.177,0.803-1.325
		c0-0.146,0.132-0.11,0.401,0.11c0.267,0.221,0.468,0.331,0.603,0.331c0,0.738,0,1.363,0,1.877c0,0.518,0.533,0.772,1.606,0.772
		c0-1.027-0.069-2.501-0.201-4.416c-0.135-1.911-0.737-3.091-1.807-3.533c-0.135,0-0.401,0.076-0.803,0.221
		c-0.401,0.148-0.737,0.222-1.004,0.222v-3.533l-4.216,5.078L55.003,125.643z M58.616,74.635l0.803,2.649l0.603,0.441l0.602-0.441
		c0-0.145,0.066-0.365,0.201-0.662c0.267-0.587,0.401-0.956,0.401-1.104l0.603-3.533c0-0.586-0.437-0.476-1.305,0.331
		c-0.872,0.812-1.575,1.215-2.108,1.215L58.616,74.635z M62.229,120.343c-0.27,0-0.401,0.221-0.401,0.662s0.132,0.662,0.401,0.662
		C62.763,120.784,62.763,120.343,62.229,120.343z M63.233,121.667c-0.537,0-0.804,0.297-0.804,0.884c0,0.59,0.267,0.883,0.804,0.883
		c0.401,0,0.602-0.293,0.602-0.883C63.835,121.964,63.635,121.667,63.233,121.667z M64.036,122.551
		c-0.401,0-0.603,0.331-0.603,0.993c0,0.663,0.201,0.994,0.603,0.994c0.267,0,0.401-0.331,0.401-0.994
		C64.438,122.882,64.303,122.551,64.036,122.551z M64.638,125.421l1.004-0.883h-1.004V125.421z M67.047,56.086
		c-0.27,0-0.57,0.331-0.903,0.994c-0.336,0.662-0.603,1.362-0.803,2.098c-0.201,0.738-0.336,1.436-0.401,2.098
		c-0.069,0.662,0.031,0.993,0.301,0.993c0.267,0,0.567-0.331,0.903-0.993c0.333-0.662,0.603-1.359,0.803-2.098
		c0.201-0.735,0.333-1.436,0.401-2.098C67.414,56.417,67.313,56.086,67.047,56.086z M70.861,129.175l0.803-0.883h-0.803V129.175z"/>
</g>
</svg>