<!-- Generator: Adobe Illustrator 24.3.0, SVG Export Plug-In  -->
<svg version="1.1" xmlns="http://www.w3.org/2000/svg" xmlns:xlink="http://www.w3.org/1999/xlink" x="0px" y="0px" width="278px"
	 height="157.222px" viewBox="0 0 278 157.222" style="overflow:visible;enable-background:new 0 0 278 157.222;"
	 xml:space="preserve">
<defs>
</defs>
<path d="M2.504,84.156c0-0.087-0.057-0.22-0.171-0.399C2.219,83.578,2.125,83.49,2.05,83.49H1.821H1.593
	c-0.153,0-0.34,0.089-0.569,0.268c-0.228,0.179-0.419,0.313-0.57,0.399v-0.268c0-1.513,0.208-2.581,0.627-3.205
	c0.416-0.622,1.043-1.29,1.878-2.003l0.114-0.268L2.96,78.147v-0.134c-0.154,0-0.305-0.043-0.456-0.134L2.05,77.614
	c-0.077-0.179-0.039-0.445,0.112-0.803c0.153-0.354,0.228-0.622,0.228-0.801H0c0.151-0.445,0.245-1.269,0.283-2.471
	c0.039-1.202,0.247-1.847,0.627-1.936l0.683,0.533l0.911-1.336c-0.683,0.268-1.08-0.067-1.194-1.001s-0.171-1.536-0.171-1.802
	c0.607,0,1.062,0.222,1.365,0.667c0.302,0.447,0.53,0.915,0.684,1.403c0.151,0.49,0.342,0.958,0.569,1.403
	c0.228,0.447,0.607,0.667,1.139,0.667H5.01c0-0.354,0.037-0.956,0.114-1.802c0.074-0.846,0.151-1.737,0.228-2.671
	c0.074-0.934,0.131-1.847,0.171-2.738c0.037-0.889,0.057-1.513,0.057-1.869v-1.336v-1.068c-0.077-0.445-0.154-1.09-0.228-1.938
	c-0.077-0.844-0.171-1.713-0.285-2.605c-0.114-0.889-0.211-1.69-0.285-2.404c-0.077-0.71-0.153-1.155-0.228-1.336
	c0-0.177-0.132-0.6-0.397-1.267c-0.267-0.669-0.475-1.047-0.626-1.137v-0.399V49.3c0.151-0.354,0.34-1.068,0.569-2.136
	c0.226-1.068,0.379-1.78,0.455-2.136c0.456,0.179,0.741,0.132,0.855-0.134c0.114-0.268,0.188-0.602,0.228-1.003
	c0.037-0.399,0.112-0.755,0.226-1.068c0.114-0.311,0.436-0.466,0.968-0.466c0-0.98-0.21-1.804-0.626-2.471
	c-0.418-0.669-0.626-1.67-0.626-3.006c0-0.445,0.017-0.822,0.057-1.135c0.037-0.311,0.359-0.378,0.966-0.201
	c-0.835-0.445-1.463-1.355-1.878-2.736c-0.418-1.381-0.626-2.559-0.626-3.539v-0.401c0-0.089,0.018-0.421,0.057-1.001
	c0.037-0.578,0.094-1.157,0.169-1.737c0.075-0.578,0.132-1.135,0.171-1.668c0.037-0.535,0.057-0.889,0.057-1.07v-0.132
	c0-1.692-0.171-3.36-0.512-5.008c-0.342-1.647-0.512-3.36-0.512-5.142v-2.805C3.681,9.77,4.003,9.034,4.497,8.1
	C4.99,7.165,5.352,6.697,5.58,6.697h0.569c0,0.447,0.094,1.182,0.283,2.203c0.19,1.025,0.587,1.536,1.198,1.536
	c0.302,0,0.512-0.134,0.626-0.401C8.368,9.77,8.443,9.502,8.482,9.235C8.52,8.967,8.577,8.702,8.653,8.434
	c0.075-0.268,0.265-0.401,0.57-0.401v2.538c0.151,0,0.399-0.067,0.74-0.201c0.342-0.134,0.587-0.153,0.74-0.067
	c0.758,0.447,1.253,1.448,1.481,3.006c0.226,1.558,0.397,3.228,0.512,5.008c0.114,1.782,0.247,3.427,0.399,4.942
	c0.151,1.515,0.57,2.359,1.253,2.536v9.082c0.302,0.356,0.644,0.958,1.025,1.802c0.379,0.848,0.797,1.269,1.251,1.269
	c0.379,0,0.798-0.266,1.255-0.801c0.455-0.533,0.891-1.135,1.308-1.802c0.416-0.669,0.758-1.357,1.025-2.071
	c0.265-0.71,0.399-1.245,0.399-1.601c0.377,0,0.911,0.332,1.593,1.001c0.683,0.667,1.025,1.135,1.025,1.403
	c-0.683,0-1.08,0.132-1.194,0.399s-0.171,0.714-0.171,1.336c0.074,0.09,0.151,0.134,0.228,0.134c0.074,0.09,0.188,0.134,0.34,0.134
	c0.075,0,0.265-0.177,0.569-0.535c0.151-0.177,0.304-0.399,0.456-0.667c0.151,0,0.416,0.201,0.798,0.6
	c0.377,0.401,0.644,0.602,0.795,0.602h0.57v-1.737l-2.506-3.071l0.342-0.535c0.228,0.181,0.741,0.58,1.536,1.202
	c0.798,0.626,1.348,1.025,1.652,1.202h0.114c0.075,0,0.151-0.043,0.226-0.134c0.075,0,0.153-0.043,0.228-0.132
	c0-0.268-0.039-0.669-0.114-1.202c-0.075-0.535,0.114-0.846,0.57-0.936c0.074,0,0.302,0.09,0.684,0.268
	c0.377,0.179,0.644,0.268,0.795,0.268c0.075-0.089,0.19-0.268,0.342-0.535c0.151-0.266,0.228-0.488,0.228-0.667
	c0-0.089-0.077-0.201-0.228-0.334c-0.153-0.134-0.267-0.201-0.342-0.201c-0.151-0.087-0.397-0.22-0.74-0.399
	c-0.34-0.177-0.589-0.268-0.74-0.268v-4.808c0-0.089,0.53-0.201,1.593-0.334s1.897-0.244,2.506-0.334h2.05
	c-0.381-0.533-0.703-0.887-0.968-1.068c-0.267-0.177-0.512-0.332-0.74-0.466s-0.419-0.356-0.57-0.669
	c-0.153-0.311-0.267-0.956-0.342-1.936h0.228c0.302,0,0.627,0.179,0.969,0.533c0.34,0.358,0.624,0.626,0.852,0.803h0.228h0.342
	c0.074-0.089,0.228-0.268,0.456-0.535c0.228-0.268,0.473-0.533,0.74-0.801c0.265-0.268,0.53-0.511,0.797-0.736
	c0.265-0.22,0.436-0.332,0.513-0.332c0.151-0.089,0.493-0.11,1.023-0.067c0.53,0.045,0.872,0.067,1.026,0.067
	c0.302-0.177,0.455-0.401,0.455-0.669c0-0.445-0.21-1.202-0.626-2.27c-0.419-1.068-0.704-1.735-0.855-2.003
	c0.151-0.354,0.473-0.669,0.969-0.934c0.493-0.268,1.042-0.511,1.65-0.736c0.607-0.22,1.214-0.399,1.821-0.533
	c0.607-0.134,1.1-0.201,1.481-0.201c0.455,0,0.87,0.024,1.253,0.067c0.379,0.045,0.569,0.423,0.569,1.135
	c0,0.447-0.096,0.801-0.283,1.068c-0.191,0.268-0.285,0.624-0.285,1.068v0.268c0.834-0.445,1.65-1.312,2.447-2.605
	c0.797-1.29,1.196-2.514,1.196-3.673c0-0.712-0.04-1.269-0.114-1.67c-0.077-0.399-0.228-0.954-0.456-1.668
	c0.456-0.089,0.758-0.222,0.912-0.401c0.151-0.177,0.265-0.378,0.342-0.6c0.074-0.222,0.188-0.423,0.34-0.602
	c0.151-0.177,0.455-0.268,0.911-0.268c0.912,0,1.385,0.157,1.424,0.468c0.037,0.313,0.055,0.958,0.055,1.936
	c0.153,0.09,0.267,0.134,0.342,0.134h0.342c0.074-0.087,0.228-0.311,0.456-0.667s0.379-0.578,0.455-0.669
	c0.228,0,0.683,0.067,1.367,0.201c0.683,0.134,1.1,0.201,1.251,0.201V1.222h6.377c0,1.601-0.075,2.583-0.228,2.937
	c-0.151,0.358-0.379,0.559-0.681,0.602c-0.305,0.045-0.647,0.134-1.026,0.268c-0.379,0.134-0.835,0.69-1.365,1.668l1.479,1.737
	c-0.153,0.447-0.569,0.734-1.251,0.868c-0.684,0.134-1.102,0.246-1.255,0.334c0.153,1.336-0.037,2.361-0.569,3.071
	c-0.532,0.714-1.102,1.316-1.707,1.804c-0.609,0.49-1.139,0.934-1.595,1.336c-0.455,0.399-0.532,0.958-0.228,1.668
	c-0.226,0-0.738,0.09-1.536,0.268c-0.797,0.179-1.308,0.313-1.536,0.401c-0.305,0-0.609,0.313-0.912,0.934
	c-0.304,0.624-0.607,1.314-0.909,2.069c-0.305,0.757-0.611,1.469-0.912,2.138c-0.304,0.667-0.607,1.09-0.911,1.267
	c-1.974,1.517-3.188,2.585-3.645,3.206c-0.455,0.624-0.644,1.18-0.569,1.668c0.075,0.492,0.114,1.003,0.114,1.536
	c0,0.535-0.495,1.381-1.481,2.538c-0.226,0.268-0.569,0.513-1.023,0.734c-0.456,0.224-0.969,0.468-1.538,0.736
	s-1.139,0.533-1.709,0.801c-0.567,0.268-1.006,0.535-1.308,0.803c-1.063,0.98-1.899,2.337-2.506,4.072
	c-0.607,1.737-1.328,3.185-2.164,4.342c-0.455,0.624-1.006,1.18-1.65,1.668c-0.646,0.49-1.251,1.025-1.821,1.603
	c-0.57,0.58-1.063,1.226-1.479,1.936c-0.419,0.714-0.627,1.603-0.627,2.671c0,0.535,0.171,0.915,0.513,1.135
	c0.34,0.224,0.738,0.401,1.194,0.535c0.456,0.134,0.912,0.246,1.367,0.332c0.455,0.09,0.797,0.224,1.025,0.401l0.342,1.068
	c0.455,0.714,1.042,1.202,1.764,1.469c0.721,0.268,1.384,0.624,1.993,1.068c0.456,0.356,0.701,0.868,0.741,1.536
	c0.037,0.667,0.017,1.357-0.057,2.069c-0.077,0.714-0.134,1.448-0.171,2.203c-0.04,0.757,0.094,1.403,0.397,1.938
	c0.075,0.089,0.265,0.199,0.569,0.332c0.304,0.134,0.493,0.248,0.57,0.334c0,0.179-0.077,0.513-0.228,1.001
	c-0.153,0.492-0.228,0.824-0.228,1.001c1.14,0,1.897-0.199,2.278-0.6c0.379-0.401,0.57-1.269,0.57-2.605h-1.481
	c0.153-0.445,0.475-0.755,0.968-0.934c0.493-0.177,0.855-0.268,1.082-0.268c0.075,0,0.171,0.067,0.285,0.201
	c0.112,0.134,0.208,0.246,0.283,0.334c0.53,0.98,1.1,1.448,1.709,1.401c0.605-0.043,1.253,0.291,1.935,1.003
	c0.53,0.533,0.948,1.157,1.253,1.869c0.302,0.714,0.626,1.403,0.968,2.069c0.34,0.669,0.74,1.226,1.196,1.67
	c0.456,0.447,1.1,0.667,1.935,0.667c0,0.714,0.037,1.469,0.114,2.272c0.074,0.801,0.245,1.558,0.512,2.27
	c0.267,0.712,0.607,1.314,1.025,1.802c0.416,0.49,0.969,0.736,1.65,0.736c0.075,0,0.247-0.022,0.513-0.067
	c0.265-0.045,0.473-0.067,0.627-0.067c-0.533-0.712-0.951-1.379-1.255-2.005c-0.302-0.622-0.455-1.422-0.455-2.404
	c0.075,0.09,0.153,0.134,0.228,0.134l0.226,0.134h0.114c0.075,0.09,0.304,0.38,0.684,0.868c0.379,0.492,0.644,0.781,0.797,0.869
	c0.075,0.089,0.322,0.201,0.74,0.332c0.416,0.134,0.855,0.268,1.31,0.401c0.456,0.134,0.891,0.246,1.31,0.334
	c0.416,0.089,0.664,0.179,0.74,0.268c0.153,0,0.342,0.155,0.569,0.466c0.228,0.313,0.379,0.513,0.456,0.602
	c0.151,0.179,0.416,0.399,0.798,0.667c0.379,0.268,0.644,0.447,0.795,0.535v5.475c0,0.714-0.265,1.249-0.795,1.603
	c-0.533,0.356-1.14,0.6-1.823,0.734c-0.683,0.134-1.328,0.224-1.935,0.268c-0.609,0.045-0.988,0.157-1.139,0.334
	c-0.077,0.089-0.134,0.313-0.171,0.667c-0.039,0.358-0.077,0.736-0.114,1.135c-0.039,0.401-0.075,0.803-0.114,1.202
	c-0.039,0.401-0.057,0.647-0.057,0.736c-0.075,0.179-0.397,0.423-0.966,0.734c-0.57,0.311-0.931,0.421-1.083,0.334
	c-0.53-0.356-0.872-0.98-1.023-1.871c-0.154,0.268-0.362,0.58-0.627,0.936c-0.267,0.356-0.589,0.533-0.968,0.533V92.57h-4.554
	l-0.228-0.268l-0.228-0.266c0-0.179-0.077-0.557-0.228-1.135c-0.153-0.578-0.267-1.047-0.342-1.403v-0.268v-0.268
	c0.075-0.087,0.19-0.287,0.342-0.6c0.151-0.311,0.228-0.511,0.228-0.602c-0.153-0.177-0.419-0.488-0.797-0.934
	c-0.381-0.445-0.646-0.755-0.797-0.934v4.273c-0.609-0.268-1.595-0.956-2.962-2.069c-1.365-1.111-2.771-2.337-4.213-3.673
	c-1.442-1.336-2.789-2.648-4.042-3.94c-1.251-1.288-2.107-2.247-2.561-2.87c-0.228-0.356-0.589-0.846-1.082-1.469
	c-0.495-0.622-0.968-1.269-1.422-1.938c-0.456-0.667-0.855-1.288-1.198-1.869c-0.34-0.578-0.512-1.001-0.512-1.269
	c1.062,0,1.935-0.244,2.618-0.734c0.684-0.49,1.026-1.491,1.026-3.006c0-0.177-0.057-0.401-0.171-0.667
	c-0.114-0.268-0.211-0.445-0.285-0.535c-0.228-0.087-0.495-0.043-0.798,0.134l-0.455,0.268v2.803
	c-0.226-0.087-0.418-0.132-0.569-0.132c-0.382,0-0.647-0.045-0.798-0.134c-0.075,0-0.247-0.089-0.512-0.268
	c-0.267-0.177-0.438-0.268-0.512-0.268c-0.684,0-1.234,0.224-1.652,0.669c-0.418,0.447-0.854,0.846-1.31,1.202h-0.342h-0.34
	c0.151,0,0.304-0.179,0.455-0.535c0.151-0.354,0.228-0.622,0.228-0.801c-0.153-0.268-0.512-0.669-1.08-1.202
	c-0.57-0.535-1.198-1.068-1.88-1.603s-1.348-1.023-1.993-1.469c-0.646-0.445-1.082-0.667-1.31-0.667
	c-0.153,0-0.34,0.222-0.569,0.667c-0.228,0.447-0.455,0.958-0.683,1.536c-0.228,0.58-0.419,1.135-0.57,1.67
	c-0.153,0.533-0.228,0.846-0.228,0.934c0,1.068,0.285,2.048,0.855,2.937c0.569,0.891,0.854,1.871,0.854,2.939
	c0,0.09-0.02,0.179-0.057,0.268c-0.039,0.089-0.057,0.179-0.057,0.266v0.268c-0.075,0.179-0.19,0.513-0.342,1.001
	c-0.153,0.492-0.226,0.824-0.226,1.003l0.226,0.533c0.153,0.358,0.267,0.535,0.342,0.535c0.075,0.179,0.114,0.447,0.114,0.801
	c0,0.356,0,0.58,0,0.667c-0.532,0-0.951-0.488-1.253-1.468l-0.456,0.533c0,0.447,0.094,0.757,0.285,0.934
	c0.188,0.181,0.379,0.334,0.57,0.468c0.188,0.134,0.379,0.268,0.569,0.401c0.19,0.134,0.285,0.38,0.285,0.734
	c0,0.09-0.02,0.134-0.057,0.134c-0.039,0-0.057,0.045-0.057,0.134v0.268c-0.075,0.089-0.267,0.201-0.569,0.332
	c-0.305,0.134-0.496,0.248-0.57,0.334c0,0.09-0.077,0.468-0.228,1.135c-0.153,0.669-0.228,1.092-0.228,1.269
	c0,0.09-0.057,0.313-0.171,0.669c-0.114,0.356-0.226,0.734-0.34,1.135c-0.114,0.399-0.228,0.779-0.342,1.135
	c-0.112,0.356-0.169,0.58-0.169,0.667c-0.077,0.624,0.074,1.049,0.455,1.269c0.379,0.224,0.569,0.602,0.569,1.135
	c0,0.982-0.265,1.916-0.797,2.805c-0.532,0.891-0.797,1.957-0.797,3.205H9.679v2.404H4.554c0,0.356,0.037,0.555,0.114,0.602
	c0.075,0.043-0.114,0.201-0.569,0.466c-0.381-0.089-0.646-0.399-0.797-0.934c-0.154-0.533-0.248-1.135-0.285-1.802
	c-0.04-0.669-0.077-1.336-0.114-2.005c-0.04-0.667-0.171-1.222-0.399-1.668V84.156z M12.752,73.874
	c-0.153-0.089-0.228,0-0.228,0.266c0,0.268,0.075,0.401,0.228,0.401C13.131,74.273,13.131,74.053,12.752,73.874z M13.208,30.069
	c-0.228,0-0.342,0.201-0.342,0.6c0,0.401,0.114,0.602,0.342,0.602c0.302,0,0.456-0.201,0.456-0.602
	C13.664,30.27,13.51,30.069,13.208,30.069z M14.347,61.855h0.455V61.32h-0.455V61.855z M21.976,40.351h0.455v-0.667L21.976,40.351z
	 M25.619,40.351c-0.305,0-0.456,0.181-0.456,0.535c0,0.356,0.151,0.535,0.456,0.535c0.228,0,0.342-0.179,0.342-0.535
	C25.961,40.532,25.847,40.351,25.619,40.351z M29.148,25.794c0.075-0.177,0-0.266-0.228-0.266c-0.226,0-0.302,0.089-0.226,0.266
	C28.845,26.329,28.997,26.329,29.148,25.794z M29.718,71.604c0-0.179-0.114-0.268-0.342-0.268s-0.304,0.089-0.228,0.268
	c0.075,0.089,0.19,0.132,0.342,0.132C29.641,71.736,29.718,71.692,29.718,71.604z M30.061,33.541c-0.154,0-0.228,0.224-0.228,0.667
	c0,0.449,0.074,0.669,0.228,0.669c0.379,0,0.569-0.22,0.569-0.669C30.629,33.765,30.44,33.541,30.061,33.541z M34.728,35.412
	c-0.075,0.089-0.153,0.132-0.226,0.132h-0.228c-0.154,0-0.399,0.09-0.741,0.268c-0.342,0.179-0.589,0.268-0.74,0.268h1.935V35.412z
	 M33.247,26.463h0.57v-1.202h-0.57V26.463z M33.247,66.662h0.57l-0.57-0.535V66.662z M34.274,20.987
	c-0.228,0-0.342,0.201-0.342,0.602c0,0.401,0.114,0.6,0.342,0.6s0.34-0.199,0.34-0.6C34.614,21.187,34.502,20.987,34.274,20.987z
	 M35.411,76.278c-0.153-0.089-0.228,0-0.228,0.266c0,0.268,0.075,0.401,0.228,0.401C35.562,76.677,35.562,76.457,35.411,76.278z
	 M35.867,33.14v-0.667h-0.456L35.867,33.14z M35.867,20.987h0.456v-0.399L35.867,20.987z M36.323,18.183
	c0.228,0,0.34,0.179,0.34,0.533c0,0.358-0.112,0.535-0.34,0.535s-0.342-0.177-0.342-0.535
	C35.981,18.362,36.095,18.183,36.323,18.183z M36.778,18.583c-0.226,0-0.34,0.201-0.34,0.602c0,0.401,0.114,0.6,0.34,0.6
	c0.304,0,0.455-0.199,0.455-0.6C37.232,18.783,37.081,18.583,36.778,18.583z M40.877,70.402h0.569v-0.669h-0.569V70.402z
	 M44.065,71.604c-0.153-0.179-0.228-0.134-0.228,0.132c0,0.268,0.075,0.401,0.228,0.401c0.151-0.087,0.228-0.201,0.228-0.334
	C44.293,71.671,44.216,71.604,44.065,71.604z M45.09,90.701c0,0.089,0.057,0.201,0.171,0.332c0.114,0.134,0.208,0.248,0.283,0.334
	h0.228h0.342c0.074-0.087,0.171-0.201,0.285-0.334c0.114-0.132,0.171-0.244,0.171-0.332H45.09z M46.571,19.252
	c-0.382,0.268-0.57,0.714-0.57,1.336h1.253C47.254,19.966,47.026,19.519,46.571,19.252z M50.67,14.977
	c-0.761,0-1.14,0.401-1.14,1.202c0.153,0,0.322,0.024,0.513,0.067c0.188,0.047,0.322,0.067,0.399,0.067
	c0.151,0,0.379-0.02,0.683-0.067c0.304-0.043,0.493-0.244,0.569-0.6C51.618,15.201,51.277,14.977,50.67,14.977z M50.214,12.707
	h1.593c0-0.445-0.151-0.822-0.455-1.135c-0.304-0.311-0.532-0.555-0.683-0.734h-0.228h-0.228V12.707z M50.67,4.159
	c-0.228,0-0.342,0.224-0.342,0.669c0,0.447,0.114,0.667,0.342,0.667s0.342-0.22,0.342-0.667C51.012,4.384,50.898,4.159,50.67,4.159z
	 M51.693,9.101V8.434c0-0.622-0.19-1.023-0.569-1.202L50.67,7.899L51.693,9.101z M51.125,88.964h0.569v-1.202h-0.569V88.964z
	 M53.743,6.965c0,1.068,0.114,1.916,0.342,2.538c0.228,0.624,0.872,0.934,1.935,0.934c0-0.268,0-0.645,0-1.135
	c0-0.488-0.057-0.978-0.171-1.469c-0.114-0.488-0.265-0.911-0.455-1.269c-0.19-0.354-0.512-0.533-0.968-0.533h-0.228
	c-0.077,0-0.153,0.089-0.228,0.268s-0.153,0.313-0.228,0.399V6.965z M55.224,11.505c-0.153,0-0.226,0.201-0.226,0.602
	c0,0.399,0.074,0.6,0.226,0.6c0.304,0,0.456-0.201,0.456-0.6C55.68,11.705,55.527,11.505,55.224,11.505z M57.273,3.091
	c-0.153-0.087-0.226-0.02-0.226,0.201c0,0.224,0.074,0.334,0.226,0.334s0.228-0.089,0.228-0.268
	C57.501,3.182,57.426,3.091,57.273,3.091z M57.842,87.896c0.456,0,0.798-0.268,1.026-0.801h-1.026V87.896z"/>
<path d="M91.115,97.753c-0.123,0.164-0.23,0.434-0.324,0.805c-0.093,0.372-0.14,0.599-0.14,0.683c0-0.332-0.093-0.496-0.28-0.496
	c-0.126,0-0.436,0.02-0.932,0.062c-0.496,0.04-0.806,0.02-0.929-0.062c-0.063,0-0.373-0.124-0.932-0.37
	c-0.557-0.248-0.993-0.456-1.302-0.62c-0.063,0-0.154-0.042-0.28-0.124l-0.37-0.248h-0.186h-0.186l-0.186,0.248
	c-0.063,0.082-0.126,0.124-0.186,0.124l-0.186,0.124L84.6,97.753c0.063-0.166,0.03-0.476-0.093-0.929
	c-0.123-0.454-0.247-0.765-0.37-0.929c-0.126-0.166-0.42-0.33-0.886-0.496c-0.466-0.164-0.759-0.248-0.883-0.248v-1.115
	l-1.492,1.363c0,0.084-0.09-0.018-0.277-0.31c-0.186-0.288-0.313-0.515-0.373-0.681c-0.126-0.164-0.14-0.495-0.047-0.991
	s-0.016-0.785-0.326-0.867c-0.31,0.166-0.466,0.37-0.466,0.619s0,0.496,0,0.745c0,0.246-0.06,0.474-0.186,0.681
	c-0.123,0.206-0.433,0.31-0.929,0.31c-1.116,0-1.832-0.206-2.141-0.62c-0.31-0.412-0.463-0.907-0.463-1.486s0.014-1.135,0.047-1.673
	c0.03-0.537-0.173-0.887-0.606-1.053c-0.126-0.082-0.466-0.164-1.023-0.248c-0.559-0.08-0.965-0.124-1.212-0.124l0.466-1.115
	c-0.622-0.08-1.149-0.328-1.582-0.743c-0.436-0.412-0.806-0.929-1.116-1.549c-0.313-0.619-0.606-1.279-0.886-1.982
	c-0.28-0.701-0.543-1.341-0.79-1.92c-0.063-0.082-0.219-0.372-0.466-0.867c-0.25-0.496-0.436-0.869-0.559-1.115
	c-0.806-1.321-1.302-2.436-1.489-3.345s-0.435-2.024-0.744-3.345l-0.186-0.248l-0.185-0.248c-0.063-0.328-0.14-0.991-0.233-1.982
	c-0.093-0.991-0.14-1.611-0.14-1.86v-0.867c0-0.577,0.06-1.115,0.186-1.61c0.123-0.496,0.186-1.073,0.186-1.736V64.55
	c0-0.082-0.063-0.248-0.186-0.496c-0.126-0.248-0.186-0.412-0.186-0.495v-2.23c0-0.33,0.03-0.931,0.093-1.798
	c0.06-0.867,0.154-1.776,0.28-2.725c0.123-0.949,0.31-1.776,0.557-2.478c0.248-0.701,0.559-1.053,0.932-1.053
	c0,0.414-0.063,0.765-0.186,1.053c-0.126,0.29-0.186,0.6-0.186,0.929c0.247,0,0.62,0.042,1.117,0.124
	c0.495,0.084,0.838-0.082,1.024-0.496c0.06-0.164,0.154-0.495,0.28-0.991c0.123-0.495,0.184-0.783,0.184-0.867h0.28v1.115
	c0.123,0,0.31,0.062,0.559,0.186c0.247,0.124,0.403,0.144,0.466,0.062l0.186-0.248l0.184-0.248c0.126,0,0.389-0.062,0.792-0.186
	c0.403-0.122,0.636-0.226,0.699-0.308v-0.62c0-0.907-0.156-1.754-0.466-2.54c-0.313-0.783-0.466-1.672-0.466-2.663
	c0.373,0,0.713,0.082,1.025,0.248c0.31,0.166,0.65,0.246,1.023,0.246s0.59-0.164,0.653-0.495c-0.126-0.412-0.326-0.62-0.606-0.62
	c-0.28,0-0.543-0.08-0.792-0.246L72.5,46.461c0-0.328,0.126-0.763,0.373-1.301c0.247-0.537,0.403-0.969,0.466-1.301
	c0.06,0,0.233-0.018,0.513-0.062c0.277-0.04,0.48-0.062,0.603-0.062s0.513,0.044,1.165,0.124c0.65,0.084,0.976,0.372,0.976,0.867
	c0,0.084-0.063,0.248-0.186,0.496s-0.186,0.414-0.186,0.496v0.37c0.496,0,1.086-0.08,1.769-0.248
	c0.683-0.164,1.179-0.535,1.489-1.115c0.123-0.164,0.233-0.639,0.326-1.423s0.293-1.177,0.606-1.177c0,0.827,0.34,1.239,1.023,1.239
	c0.186,0,0.42-0.02,0.699-0.062c0.28-0.042,0.48-0.186,0.603-0.434c0.063-0.248,0.063-0.495,0-0.743l-0.186-0.496H81.25
	c0.123,0,0.217-0.102,0.28-0.31c0.06-0.204,0.093-0.35,0.093-0.433c0-0.164-0.033-0.434-0.093-0.805
	c-0.063-0.372-0.156-0.558-0.28-0.558c0.063,0,0.123-0.04,0.186-0.124l0.186,0.124c0.06,0,0.233,0.124,0.513,0.372
	c0.28,0.248,0.48,0.414,0.603,0.495c0.123,0.084,0.433,0.186,0.932,0.31c0.496,0.124,0.806,0.352,0.929,0.681
	c0.123,0.662,0.217,1.323,0.28,1.984c0.06,0.661,0.31,1.281,0.746,1.858c0.06,0,0.123-0.02,0.186-0.062
	c0.06-0.04,0.123-0.062,0.184-0.062v-0.991l0.186,0.124h0.093c0.063,0.082,0.2,0.268,0.42,0.557c0.217,0.29,0.356,0.434,0.42,0.434
	h0.093h0.186c0.184,0,0.51-0.062,0.976-0.186s0.759-0.226,0.886-0.31v-0.246c0-0.412-0.203-0.683-0.606-0.807
	c-0.406-0.124-0.669-0.266-0.792-0.433l-0.093-0.124c0-0.082,0.033-0.164,0.093-0.248c0.063-0.164,0.17-0.391,0.326-0.681
	c0.154-0.288,0.263-0.434,0.326-0.434c0.123,0,0.373,0.166,0.746,0.496c0.37,0.33,0.617,0.538,0.743,0.619h0.093
	c0.683,0,1.086-0.31,1.209-0.929c0.123-0.62,0.403-1.135,0.839-1.549c0.123,0.168,0.31,0.496,0.557,0.991
	c0.25,0.496,0.436,0.827,0.559,0.993c0.06,0,0.123,0.122,0.186,0.37c0.06,0.248,0.123,0.414,0.186,0.496l0.186,0.124l0.093-0.124
	c0.06,0,0.154-0.082,0.28-0.248c0.06-0.082,0.123-0.124,0.184-0.124v-3.964l0.653-0.372c-0.126,0.911-0.11,1.858,0.047,2.849
	c0.154,0.993,0.387,1.942,0.699,2.851l0.557-0.372v-4.584c0.063,0.084,0.123,0.124,0.186,0.124c0.06,0,0.123,0.022,0.186,0.062
	c0.06,0.042,0.123,0.062,0.186,0.062c0.186,0,0.28,0.124,0.28,0.372c0.123,0.166,0.233,0.641,0.326,1.423
	c0.093,0.787,0.14,1.301,0.14,1.549h0.09h0.28c0.063-0.08,0.186-0.248,0.373-0.495c0.186-0.248,0.31-0.454,0.373-0.62h3.164
	c-0.126,0.166-0.266,0.516-0.42,1.053c-0.156,0.538-0.233,0.889-0.233,1.053c-0.06,0.084-0.047,0.228,0.047,0.434
	c0.093,0.206,0.17,0.352,0.233,0.433c0.123,0.168,0.42,0.292,0.886,0.372c0.463,0.084,0.79,0.124,0.976,0.124
	c-0.063,0.248-0.203,0.372-0.42,0.372s-0.45,0.02-0.696,0.062c-0.25,0.042-0.513,0.144-0.792,0.308
	c-0.28,0.168-0.48,0.579-0.603,1.239c0-0.248-0.063-0.681-0.186-1.301c-0.126-0.619-0.219-1.009-0.28-1.177
	c0-0.164-0.033-0.412-0.093-0.743c-0.063-0.328-0.126-0.577-0.186-0.743c-0.186-0.412-0.326-0.558-0.42-0.434
	s-0.293,0.186-0.603,0.186c0,1.157,0.123,2.026,0.37,2.602c0.25,0.579,0.373,1.405,0.373,2.476h-0.65l-0.186,0.496l1.116,1.487
	c0.06,0.082,0.107,0.082,0.14,0c0.03-0.082,0.077-0.124,0.14-0.124v-0.372l-0.186-0.495c-0.063-0.166-0.093-0.33-0.093-0.496
	c0-0.082,0.03-0.164,0.093-0.248l0.186-0.248h0.28c0.433,0,0.713,0.31,0.836,0.931c0.123,0.619,0.123,1.135,0,1.548
	c0.186-0.825,0.433-1.319,0.746-1.486c0.31-0.166,0.806-0.248,1.489-0.248v2.354c0.683,0,1.132-0.042,1.349-0.124
	c0.217-0.082,0.606,0.082,1.163,0.495c-0.06,0-0.17,0.044-0.324,0.124c-0.156,0.084-0.296,0.166-0.42,0.248v0.372
	c0,0.661,0.31,1.073,0.929,1.239s1.086,0.246,1.396,0.246c0,0.084-0.03,0.124-0.09,0.124c-0.063,0.166-0.14,0.372-0.233,0.62
	c-0.093,0.246-0.173,0.37-0.233,0.37c-0.126,0-0.25-0.04-0.373-0.124c-0.126-0.08-0.25-0.142-0.373-0.184s-0.217-0.104-0.28-0.186
	l-0.37-0.248l-0.373-0.248c-0.063,0-0.186,0.062-0.373,0.186s-0.31,0.228-0.373,0.31c0.683,0.827,1.305,1.818,1.862,2.973
	c-0.373,0.414-0.696,0.558-0.976,0.434s-0.639-0.186-1.072-0.186c-0.06,0.166-0.093,0.29-0.093,0.372v0.246
	c0.063,0.168,0.17,0.414,0.326,0.745c0.154,0.33,0.263,0.538,0.326,0.619c0.06,0.166,0.263,0.434,0.606,0.805
	c0.34,0.372,0.51,0.6,0.51,0.683c0,0.248-0.093,0.619-0.277,1.115c-0.186,0.495-0.343,0.787-0.466,0.867
	c-0.063-0.412-0.313-0.619-0.746-0.619c-0.123,0-0.247,0.02-0.373,0.062c-0.123,0.042-0.217,0.228-0.277,0.557
	c0.247,0.084,0.37,0.29,0.37,0.62c0,0.33,0,0.619,0,0.867c0,0.579-0.093,0.971-0.277,1.177c-0.186,0.206-0.42,0.352-0.699,0.433
	c-0.28,0.084-0.606,0.124-0.976,0.124c-0.373,0-0.716,0.044-1.025,0.124c-0.373,0.166-0.48,0.496-0.326,0.991
	c0.156,0.496,0.047,0.827-0.324,0.991c-0.186-0.495-0.359-0.783-0.513-0.867c-0.156-0.08-0.389-0.124-0.699-0.124
	c-0.683,0-1.102,0.208-1.256,0.62c-0.156,0.414-0.42,0.703-0.79,0.867l-0.746-0.496c-0.126-0.08-0.313-0.246-0.559-0.495
	s-0.433-0.412-0.557-0.496l-0.28,0.496l0.28,0.495c-0.25,0.496-0.406,0.973-0.466,1.425c-0.063,0.454-0.126,0.889-0.186,1.301
	c-0.063,0.414-0.173,0.805-0.326,1.177c-0.156,0.37-0.45,0.681-0.883,0.929c0.186-0.577,0.186-1.135,0-1.673
	c-0.186-0.535-0.529-0.805-1.025-0.805c-0.31,0-0.543,0.146-0.696,0.434c-0.156,0.29-0.296,0.641-0.42,1.053
	c0-0.082-0.016-0.206-0.047-0.372c-0.033-0.164-0.047-0.288-0.047-0.37c0-0.166,0.014-0.31,0.047-0.434
	c0.03-0.124,0.047-0.226,0.047-0.31c0-0.08,0.06-0.31,0.186-0.681c0.123-0.372,0.186-0.599,0.186-0.683
	c0-0.328-0.126-0.495-0.373-0.495c-0.25,0-0.436,0-0.559,0c-0.31,0-0.729,0.166-1.256,0.495c-0.526,0.332-0.79,0.703-0.79,1.115
	c0,0.084,0.03,0.168,0.093,0.248c0.06,0.166,0.247,0.352,0.557,0.558c0.31,0.206,0.496,0.392,0.559,0.557
	c0.06,0.084,0.06,0.538,0,1.363c-0.063,0.827-0.063,1.323,0,1.487c0,0.082,0.03,0.206,0.093,0.37l0.186,0.496V75.7
	c0,0.082,0.03,0.166,0.093,0.248c-0.499,0.414-0.902,0.743-1.212,0.991c-0.31,0.246-0.62,0.454-0.929,0.619
	c-0.313,0.166-0.499,0.248-0.559,0.248c0-0.661,0.154-1.155,0.466-1.487c0.31-0.328,0.466-0.825,0.466-1.486
	s-0.11-0.993-0.326-0.993c-0.219,0-0.546,0-0.979,0c0,0.168,0.033,0.394,0.093,0.683c0.063,0.29,0.093,0.516,0.093,0.681
	c-0.06,0.332-0.217,0.911-0.463,1.736c-0.126,0.33-0.219,0.703-0.28,1.115h-0.186c0-0.248-0.047-0.661-0.14-1.239
	c-0.093-0.577-0.359-0.785-0.792-0.62c-0.247,0-0.729,0.106-1.442,0.31c-0.713,0.208-1.226,0.392-1.535,0.558
	c-0.063,0.082-0.156,0.166-0.28,0.246l-0.37,0.248h-0.559c0-0.907-0.313-1.692-0.932-2.354c0,0.084-0.123,0.124-0.37,0.124v2.354
	c-0.436,0-0.699-0.328-0.792-0.991c-0.093-0.661-0.356-0.991-0.79-0.991c0,0.248-0.033,0.641-0.093,1.177
	c-0.063,0.538-0.093,0.929-0.093,1.177c0,0.166,0.093,0.495,0.28,0.991c0.184,0.495,0.34,0.785,0.463,0.867l0.559,0.248
	c0.373,0.166,0.653,0.248,0.836,0.248c0.869,0.246,1.692,0.476,2.468,0.681c0.776,0.206,1.535,0.476,2.281,0.805
	c0.68,0.332,1.409,0.558,2.185,0.683c0.776,0.124,1.505,0.392,2.188,0.805c0.186,0.084,0.466,0.228,0.839,0.434
	c0.37,0.206,0.557,0.352,0.557,0.433c0.063,0.084,0.123,0.332,0.186,0.745c0.06,0.414,0.123,0.661,0.186,0.743
	c0.06,0,0.28,0.082,0.653,0.248c0.37,0.166,0.65,0.246,0.836,0.246h0.373c0.373,0,0.696-0.08,0.976-0.246
	c0.28-0.166,0.606-0.248,0.979-0.248c0.68,0,1.269,0.104,1.768,0.31c0.496,0.206,1.116,0.308,1.862,0.308
	c0,0.662,0.123,1.053,0.37,1.177c0.25,0.124,0.526,0.186,0.839,0.186c0.496,0,0.79-0.102,0.883-0.31
	c0.093-0.204,0.293-0.308,0.606-0.308c0.247,0,0.403,0.082,0.466,0.246c0.06,0.168,0.093,0.352,0.093,0.558
	c0,0.206,0.03,0.392,0.093,0.557c0.06,0.168,0.217,0.248,0.463,0.248c0.433,0,0.606-0.266,0.513-0.805
	c-0.093-0.537,0.077-0.805,0.513-0.805c0.06,0,0.14,0.02,0.233,0.062c0.093,0.042,0.17,0.062,0.23,0.062
	c0.126,0.082,0.28,0.122,0.466,0.122s0.373,0.044,0.559,0.124c0.247,0.084,0.496,0.124,0.743,0.124
	c0.25,0.166,0.373,0.454,0.373,0.867c0,0.414,0.186,0.62,0.559,0.62h0.093l1.862-2.354h3.257l-0.28,0.496
	c0.186,0.579,0.573,0.887,1.163,0.929c0.59,0.042,1.039,0.352,1.349,0.929l-0.836,0.619c0,0.579-0.033,1.115-0.093,1.611
	c-0.063,0.414-0.11,0.889-0.14,1.425c-0.033,0.537-0.047,0.971-0.047,1.299c-0.063,0.414-0.126,0.642-0.186,0.683
	c-0.063,0.042-0.25,0.062-0.557,0.062v0.619h1.023v2.478h-0.093c-0.126,0-0.186-0.042-0.186-0.124c-0.063,0-0.126-0.062-0.186-0.186
	c-0.063-0.124-0.123-0.186-0.186-0.186c-0.123-0.166-0.37-0.37-0.743-0.619s-0.622-0.414-0.746-0.496l-0.186,0.124
	c0,0.412,0.03,0.661,0.093,0.745c0.063,0.08,0.14,0.124,0.233,0.124s0.17,0.018,0.233,0.062c0.06,0.04,0.093,0.184,0.093,0.433
	c0,0.412-0.11,0.763-0.326,1.053c-0.217,0.288-0.48,0.434-0.79,0.434h-0.466c-0.063-0.084-0.406-0.166-1.025-0.248
	c-0.62-0.084-0.993-0.166-1.116-0.248h-0.186h-0.186l-0.186,0.248c-0.06,0.082-0.09,0.164-0.09,0.248
	c-0.126,0-0.313,0.04-0.559,0.124c-0.25,0.08-0.436,0.124-0.559,0.124v-1.736c-1.242,0.164-2.325,0.661-3.257,1.487v-2.23
	c-0.063-0.084-0.126-0.124-0.186-0.124h-0.186c-0.06,0.08-0.14,0.31-0.233,0.681c-0.09,0.372-0.137,0.639-0.137,0.807h-1.769
	l-0.466,0.867c0-0.084-0.093-0.248-0.28-0.496c-0.126,0-0.373-0.082-0.746-0.248c-0.247-0.082-0.463-0.122-0.65-0.122
	c-0.126-0.168-0.093-0.394,0.093-0.683c0.186-0.29,0.28-0.516,0.28-0.681c-0.063,0-0.25-0.022-0.559-0.062
	c-0.313-0.042-0.496-0.062-0.559-0.062l-0.186,0.248l-0.184,0.246c-0.126,0-0.373,0.02-0.746,0.062
	c-0.373,0.042-0.622,0.062-0.746,0.062v-1.239c-0.06,0.082-0.123,0.206-0.184,0.372c-0.063,0.164-0.126,0.248-0.186,0.248h-0.186
	h-0.093c-0.063,0-0.156-0.084-0.28-0.248c-0.126-0.166-0.186-0.29-0.186-0.372h-0.093h-0.28c-0.31,0.248-0.526,0.599-0.65,1.055
	c-0.126,0.453-0.233,0.907-0.326,1.361c-0.093,0.454-0.203,0.825-0.326,1.115c-0.126,0.288-0.28,0.434-0.466,0.434
	c-0.31,0-0.496-0.124-0.557-0.372c-0.063-0.248-0.11-0.538-0.14-0.867c-0.033-0.33-0.08-0.619-0.14-0.867
	c-0.063-0.248-0.28-0.372-0.653-0.372H91.115z M66.079,55.876c-0.186,0-0.278,0.146-0.278,0.434c0,0.29,0.092,0.434,0.278,0.434
	c0.123,0,0.186-0.144,0.186-0.434C66.265,56.022,66.202,55.876,66.079,55.876z M69.336,60.214c-0.186,0-0.28,0.144-0.28,0.433
	c0,0.29,0.093,0.434,0.28,0.434c0.123,0,0.186-0.144,0.186-0.434C69.523,60.358,69.46,60.214,69.336,60.214z M69.616,57.736
	c-0.25,0.248-0.373,0.619-0.373,1.115c0.373,0,0.653-0.206,0.839-0.62L69.616,57.736z M69.616,66.036
	c0.06-0.164,0.014-0.246-0.14-0.246c-0.156,0-0.2,0.082-0.14,0.246c0.063,0.168,0.123,0.248,0.186,0.248
	C69.583,66.284,69.616,66.203,69.616,66.036z M71.198,54.391c-0.31,0-0.526,0.29-0.65,0.867c-0.126,0.579-0.186,0.951-0.186,1.115
	c0.123,0,0.403-0.164,0.836-0.496c0.433-0.328,0.653-0.577,0.653-0.743v-0.248c-0.126-0.164-0.25-0.288-0.373-0.37
	C71.351,54.433,71.258,54.391,71.198,54.391z M71.478,56.248c-0.126-0.08-0.186,0.104-0.186,0.558s0.06,0.641,0.186,0.557
	c0.123-0.164,0.186-0.35,0.186-0.557S71.601,56.414,71.478,56.248z M73.899,70.868c0,0.166-0.047,0.33-0.14,0.496
	s-0.11,0.33-0.047,0.495c0.06,0,0.17,0.124,0.326,0.372c0.154,0.248,0.293,0.414,0.417,0.495c0.247-0.08,0.373-0.391,0.373-0.929
	c0-0.537,0-0.887,0-1.053c0-0.577-0.08-1.053-0.233-1.425c-0.156-0.37-0.233-0.845-0.233-1.423c0-0.412,0.077-0.763,0.233-1.053
	c0.154-0.288,0.387-0.434,0.699-0.434h0.186c0,0.084,0.107,0.27,0.324,0.558c0.219,0.29,0.356,0.433,0.42,0.433h0.186h0.186
	c0.06-0.08,0.154-0.164,0.28-0.248l0.373-0.246c0.123-0.082,0.387-0.144,0.79-0.186c0.403-0.04,0.636-0.144,0.699-0.31
	c0.06-0.08,0.123-0.391,0.186-0.929c0.06-0.537,0.123-0.847,0.186-0.929c0.06,0,0.263-0.082,0.603-0.248
	c0.34-0.164,0.606-0.248,0.792-0.248h0.28h0.09c0.063,0,0.25,0.084,0.559,0.248c0.31,0.166,0.496,0.248,0.559,0.248
	c0.433,0,0.946-0.288,1.535-0.867c0.59-0.579,1.039-0.949,1.349-1.115c0.123,0.743,0.263,1.281,0.42,1.61
	c0.154,0.33,0.48,0.496,0.976,0.496c0.123,0,0.387-0.02,0.792-0.062c0.403-0.042,0.666-0.226,0.79-0.558l0.653-3.84
	c0.31-0.166,0.759-0.372,1.349-0.62s1.039-0.372,1.349-0.372h0.186c0.123,0.084,0.326,0.248,0.606,0.496
	c0.28,0.248,0.45,0.414,0.513,0.496h0.184h0.186c0.063,0,0.14-0.082,0.233-0.248c0.093-0.164,0.14-0.288,0.14-0.372
	c0.06-0.164,0.14-0.619,0.233-1.363c0.093-0.743,0.14-1.239,0.14-1.486c0.186,0,0.606-0.062,1.256-0.186
	c0.653-0.124,1.072-0.226,1.256-0.31c0.25,0,0.62-0.08,1.119-0.248c0.247-0.08,0.496-0.124,0.743-0.124v-3.964
	c0,0.33,0.093,0.496,0.28,0.496c0.247,0.33,0.559,0.661,0.932,0.991c0.184,0.246,0.37,0.414,0.557,0.495l0.373-0.495
	c-0.496-1.073-0.836-2.002-1.023-2.789c-0.186-0.783-0.685-1.63-1.489-2.54c-0.313-0.328-0.825-0.805-1.538-1.423
	c-0.713-0.62-1.256-0.929-1.629-0.929c-0.683,0-1.272,0.228-1.769,0.681c-0.496,0.454-0.993,0.951-1.489,1.487
	s-1.039,1.033-1.629,1.486c-0.59,0.456-1.319,0.683-2.185,0.683h-0.28c-0.126,0-0.389-0.144-0.792-0.434
	c-0.403-0.288-0.636-0.474-0.696-0.557h-0.186h-0.186c0,0.082-0.047,0.308-0.14,0.681s-0.173,0.641-0.233,0.805l-0.743,0.991
	c-0.063,0.084-0.156,0.168-0.28,0.248c-0.063,0.084-0.156,0.124-0.28,0.124h-0.093c-0.063,0.084-0.186,0.268-0.373,0.558
	c-0.186,0.29-0.31,0.474-0.373,0.557c-0.123,0-0.37-0.02-0.743-0.062c-0.373-0.04-0.622-0.02-0.746,0.062
	c-0.063,0-0.14,0.208-0.233,0.619c-0.093,0.414-0.14,0.662-0.14,0.745s-0.044,0.166-0.137,0.248s-0.173,0.166-0.233,0.246
	l-0.28-0.495c-1.801,1.569-2.884,3.675-3.257,6.318c-0.373-0.328-0.683-0.248-0.932,0.248c-0.247,0.495-0.433,0.867-0.557,1.115
	c0,0.166-0.063,0.496-0.186,0.991c-0.126,0.496-0.186,0.827-0.186,0.991h-0.653l-0.743-2.354c0,0.084-0.016,0.248-0.047,0.496
	c-0.033,0.248-0.047,0.454-0.047,0.619c0,0.662,0.077,1.199,0.233,1.611c0.154,0.414,0.233,0.951,0.233,1.61
	c0,0.084-0.016,0.168-0.047,0.248c-0.033,0.084-0.047,0.166-0.047,0.248v0.372c-0.063,0.166-0.25,0.308-0.559,0.433
	c-0.313,0.124-0.529,0.146-0.653,0.062v3.345h-0.929v0.62c0.373,0,0.696-0.082,0.976-0.248
	C73.106,70.952,73.463,70.868,73.899,70.868z M72.873,73.719c0.063-0.166,0.016-0.248-0.14-0.248c-0.154,0-0.2,0.082-0.14,0.248
	c0.063,0.166,0.123,0.246,0.186,0.246S72.873,73.885,72.873,73.719z M72.594,50.054c0,0.082,0.047,0.166,0.14,0.246
	c0.093,0.084,0.14,0.168,0.14,0.248c0.123,0,0.387,0.044,0.792,0.124c0.403,0.084,0.666,0.124,0.79,0.124
	c0-0.825-0.186-1.239-0.557-1.239h-0.186c-0.126,0-0.313,0.062-0.559,0.186C72.903,49.868,72.717,49.972,72.594,50.054z
	 M73.712,51.54c-0.186,0-0.28,0.146-0.28,0.434c0,0.29,0.093,0.434,0.28,0.434c0.123,0,0.186-0.144,0.186-0.434
	C73.899,51.686,73.836,51.54,73.712,51.54z M73.899,44.479c0,0.661,0.186,1.157,0.557,1.486c0.373,0.332,0.746,0.496,1.119,0.496
	c0-0.909-0.126-1.465-0.373-1.673C74.952,44.583,74.518,44.479,73.899,44.479z M74.735,76.567c-0.123,0-0.186,0.166-0.186,0.496
	s0.063,0.495,0.186,0.495c0.186,0,0.28-0.164,0.28-0.495S74.921,76.567,74.735,76.567z M75.481,70.744
	c-0.186,0-0.28,0.186-0.28,0.558c0,0.37,0.093,0.557,0.28,0.557c0.186,0,0.28-0.186,0.28-0.557
	C75.76,70.93,75.667,70.744,75.481,70.744z M75.481,48.071c0,0.332,0.123,0.496,0.37,0.496c0.25-0.082,0.389-0.31,0.42-0.681
	c0.03-0.372,0.047-0.639,0.047-0.807c-0.186,0-0.373,0.062-0.557,0.186c-0.186,0.124-0.28,0.352-0.28,0.683V48.071z M75.481,55.876
	c0,0.248,0.123,0.372,0.37,0.372V56v-0.124c0-0.08-0.06-0.184-0.184-0.308c-0.126-0.124-0.186-0.226-0.186-0.31v0.372V55.876z
	 M76.97,90.568c-0.25,0-0.373,0.166-0.373,0.495v0.248v0.248c0.31-0.166,0.636-0.31,0.976-0.434
	c0.343-0.124,0.513-0.474,0.513-1.053c0-0.082-0.016-0.124-0.047-0.124c-0.033,0-0.047-0.04-0.047-0.124V89.7
	c-0.123-0.164-0.356-0.37-0.696-0.619c-0.343-0.248-0.576-0.412-0.699-0.496l-0.373,0.496l-0.093,0.248v0.246
	c0,0.084,0.03,0.124,0.093,0.124c0,0.084,0.093,0.248,0.28,0.496S76.843,90.568,76.97,90.568z M76.597,92.55
	c-0.186,0-0.28,0.144-0.28,0.433c0,0.29,0.093,0.434,0.28,0.434s0.28-0.144,0.28-0.434C76.876,92.694,76.783,92.55,76.597,92.55z
	 M76.597,51.54h0.373v-1.486h-0.373V51.54z M76.97,68.886c0.06-0.164,0.014-0.248-0.14-0.248c-0.156,0-0.233,0.084-0.233,0.248
	c0,0.166,0.047,0.248,0.14,0.248S76.907,69.052,76.97,68.886z M76.97,93.417c-0.126,0-0.186,0.104-0.186,0.31
	c0,0.206,0.06,0.308,0.186,0.308C77.279,93.871,77.279,93.665,76.97,93.417z M77.249,48.567c0.06-0.164,0.014-0.248-0.14-0.248
	c-0.156,0-0.203,0.084-0.14,0.248c0.06,0.166,0.123,0.248,0.186,0.248C77.216,48.815,77.249,48.733,77.249,48.567z M76.97,87.594
	h0.65v-0.37h-0.65V87.594z M77.992,94.036c0.06-0.164,0.014-0.246-0.14-0.246c-0.154,0-0.233,0.082-0.233,0.246
	c0.063,0.084,0.14,0.124,0.233,0.124S77.992,94.12,77.992,94.036z M78.365,91.93c-0.186,0-0.28,0.186-0.28,0.558
	c0,0.37,0.093,0.557,0.28,0.557c0.186,0,0.28-0.186,0.28-0.557C78.645,92.116,78.552,91.93,78.365,91.93z M78.365,80.409h0.373
	v-0.496h-0.373V80.409z M78.738,45.718c-0.186,0-0.28,0.166-0.28,0.495c0,0.33,0.093,0.496,0.28,0.496s0.28-0.166,0.28-0.496
	C79.018,45.885,78.925,45.718,78.738,45.718z M79.111,46.213c-0.186,0-0.28,0.166-0.28,0.496s0.093,0.495,0.28,0.495
	c0.184,0,0.277-0.164,0.277-0.495S79.295,46.213,79.111,46.213z M79.481,52.409c-0.186,0-0.28,0.166-0.28,0.495
	c0,0.332,0.093,0.496,0.28,0.496c0.186,0,0.28-0.164,0.28-0.496C79.761,52.575,79.668,52.409,79.481,52.409z M79.481,90.072h0.746
	l-0.186-0.248c-0.063-0.08-0.126-0.124-0.186-0.124l-0.186-0.124c-0.063,0-0.123,0.044-0.186,0.124V90.072z M80.227,45.718
	c-0.063,0.166-0.047,0.414,0.047,0.743c0.093,0.33,0.17,0.579,0.233,0.743h0.186h0.184l1.119-0.495v-0.248
	c0-0.412-0.11-0.847-0.326-1.301c-0.219-0.453-0.483-0.763-0.792-0.929c-0.06,0.166-0.184,0.414-0.37,0.743
	C80.32,45.306,80.227,45.552,80.227,45.718z M81.995,89.948c-0.313,0-0.576,0.084-0.792,0.248c-0.217,0.166-0.326,0.454-0.326,0.867
	h1.119V89.948z M82.738,89.7c0,0.168,0,0.352,0,0.558c0,0.206,0.033,0.392,0.093,0.557l0.186,0.745h0.466V88.46
	C82.988,88.46,82.738,88.875,82.738,89.7z M83.018,45.718c-0.123,0-0.186,0.166-0.186,0.495c0,0.33,0.063,0.496,0.186,0.496
	c0.247,0,0.373-0.166,0.373-0.496C83.391,45.885,83.265,45.718,83.018,45.718z M83.018,51.045c-0.123,0-0.186,0.144-0.186,0.433
	c0,0.292,0.063,0.434,0.186,0.434c0.247,0,0.373-0.142,0.373-0.434C83.391,51.19,83.265,51.045,83.018,51.045z M83.764,43.116
	c-0.313,0-0.559,0.248-0.746,0.743h0.746V43.116z M83.484,50.549c0.123-0.495,0.217-0.907,0.28-1.239
	c0.06-0.328,0.093-0.743,0.093-1.239c0-0.164,0-0.412,0-0.743c0-0.328-0.126-0.537-0.373-0.619V50.549z M84.6,74.089l0.28-0.37
	h-0.743L84.6,74.089z M85.626,86.23c-0.186,0-0.28,0.168-0.28,0.496c0,0.33,0.093,0.496,0.28,0.496c0.186,0,0.277-0.166,0.277-0.496
	C85.903,86.398,85.812,86.23,85.626,86.23z M85.996,72.231c0.063-0.164,0.016-0.248-0.137-0.248c-0.156,0-0.233,0.084-0.233,0.248
	C85.749,72.726,85.872,72.726,85.996,72.231z M85.996,94.904c0.063-0.166,0.016-0.248-0.137-0.248c-0.156,0-0.233,0.082-0.233,0.248
	C85.749,95.399,85.872,95.399,85.996,94.904z M85.996,47.204c0.25,0.496,0.466,0.929,0.653,1.301s0.496,0.558,0.929,0.558
	c0.186,0,0.373,0,0.559,0s0.31-0.166,0.373-0.496c-0.063,0-0.126-0.082-0.186-0.248c-0.063-0.164-0.126-0.248-0.186-0.248
	c-0.063,0-0.233-0.062-0.513-0.184c-0.277-0.124-0.45-0.228-0.51-0.31c-0.063,0-0.126-0.144-0.186-0.434
	c-0.063-0.288-0.126-0.433-0.186-0.433h-0.186h-0.28l-0.186,0.246C86.029,47.04,85.996,47.124,85.996,47.204z M87.394,88.214
	c0.06-0.166-0.047-0.248-0.326-0.248s-0.389,0.082-0.326,0.248c0.06,0.166,0.186,0.246,0.373,0.246
	C87.301,88.46,87.394,88.38,87.394,88.214z M88.51,88.709c0.247,0,0.496-0.164,0.746-0.495H88.51V88.709z M89.626,64.054h0.373
	v-0.495h-0.373V64.054z M90.372,67.399v-0.495h-0.373L90.372,67.399z M90.092,60.46c0,0.248,0.03,0.6,0.093,1.053
	c0.06,0.456,0.154,0.911,0.28,1.363c0.123,0.456,0.28,0.867,0.466,1.239c0.184,0.372,0.433,0.558,0.743,0.558l0.093-0.124
	l0.186-0.248l0.186-0.248c0.06-0.164,0.093-0.577,0.093-1.239c0-0.659,0-1.071,0-1.239c-0.313,0-0.592,0.168-0.839,0.496
	c-0.123-0.412-0.28-0.785-0.463-1.115C90.745,60.628,90.465,60.46,90.092,60.46z M91.674,43.735c0,0.168,0.014,0.434,0.047,0.807
	c0.03,0.37,0.17,0.599,0.42,0.681c0.247,0,0.373-0.164,0.373-0.496v-0.246c0-0.33-0.093-0.537-0.28-0.62
	C92.047,43.779,91.861,43.735,91.674,43.735z M91.767,66.036h0.373v-0.619h-0.373V66.036z M92.513,88.584
	c0.68,0.496,1.146,0.991,1.396,1.487c0.123,0,0.217-0.04,0.28-0.124l0.184-0.248c0-0.164,0.016-0.515,0.047-1.053
	c0.033-0.537,0.047-0.887,0.047-1.053c-0.31,0-0.636,0.124-0.976,0.372C93.147,88.214,92.823,88.42,92.513,88.584z M92.513,96.886
	h0.463c0-0.414-0.154-0.743-0.463-0.991V96.886z M93.536,90.939c0,0.414,0.03,0.867,0.093,1.363c0.06,0.496,0.31,0.743,0.743,0.743
	h0.28c-0.063-0.495-0.154-0.969-0.28-1.423C94.249,91.167,93.969,90.939,93.536,90.939z M93.816,66.408
	c0,0.166,0.014,0.516,0.047,1.053c0.03,0.538,0.2,0.849,0.51,0.929c0.31-0.08,0.466-0.391,0.466-0.929c0-0.537,0-0.887,0-1.053
	H93.816z M94.372,70.373v-0.993l-0.463,0.372L94.372,70.373z M94.282,57.984c0,0.082,0.03,0.166,0.09,0.246
	c0,0.084,0.033,0.168,0.093,0.248l0.186,0.248c0.123-0.661,0.433-1.031,0.932-1.115c0.496-0.082,0.929-0.04,1.302,0.124
	c-0.126-0.33-0.313-0.496-0.559-0.496s-0.433,0-0.557,0c-0.126,0-0.406,0.022-0.839,0.062
	C94.498,57.345,94.282,57.571,94.282,57.984z M97.166,58.727c-0.126,0.084-0.296,0.186-0.513,0.31s-0.326,0.308-0.326,0.557h1.305
	L97.166,58.727z M96.514,45.718h0.653v-0.496h-0.653V45.718z M97.166,96.266c-0.126,0-0.186,0.186-0.186,0.558
	c0,0.372,0.06,0.557,0.186,0.557c0.247,0,0.373-0.184,0.373-0.557C97.539,96.452,97.413,96.266,97.166,96.266z M98.282,66.904
	l0.466-0.496h-0.746L98.282,66.904z M98.282,61.081c-0.123,0-0.186,0.166-0.186,0.495c0,0.332,0.063,0.496,0.186,0.496
	c0.247,0,0.373-0.164,0.373-0.496C98.655,61.247,98.529,61.081,98.282,61.081z M98.748,59.221c0-0.164-0.08-0.246-0.233-0.246
	c-0.156,0-0.233,0.082-0.233,0.246c0.06,0.168,0.14,0.248,0.233,0.248S98.685,59.389,98.748,59.221z M98.282,65.045h0.466V64.55
	h-0.466V65.045z M99.771,66.408c0-0.164-0.077-0.248-0.233-0.248c-0.154,0-0.2,0.084-0.14,0.248c0.063,0.166,0.14,0.248,0.233,0.248
	S99.771,66.574,99.771,66.408z M99.398,63.559h0.373v-0.496L99.398,63.559z M99.771,55.876c-0.186,0-0.28,0.146-0.28,0.434
	c0,0.29,0.093,0.434,0.28,0.434c0.186,0,0.28-0.144,0.28-0.434C100.051,56.022,99.957,55.876,99.771,55.876z M100.051,57.612
	c0,0.909,0.154,1.632,0.466,2.168c0.31,0.538,0.557,1.177,0.743,1.92c0.186-0.248,0.28-0.453,0.28-0.619v-0.124v-0.248
	c0-0.164-0.047-0.433-0.14-0.805s-0.14-0.599-0.14-0.683c-0.123-0.577-0.2-0.991-0.23-1.237
	C100.996,57.736,100.67,57.612,100.051,57.612z M101.26,64.55c-0.186,0-0.277,0.144-0.277,0.433c0,0.29,0.09,0.434,0.277,0.434
	c0.123,0,0.186-0.144,0.186-0.434C101.446,64.694,101.383,64.55,101.26,64.55z M101.539,52.409c-0.123,0-0.186,0.184-0.186,0.557
	s0.063,0.516,0.186,0.434s0.186-0.248,0.186-0.496S101.663,52.491,101.539,52.409z M101.912,50.549c-0.186,0-0.28,0.166-0.28,0.496
	s0.093,0.495,0.28,0.495s0.28-0.164,0.28-0.495S102.099,50.549,101.912,50.549z M103.401,59.221v-0.495h-1.116L103.401,59.221z
	 M103.96,89.7c-0.685,0-1.025,0.332-1.025,0.991c0.433,0,0.839-0.328,1.212-0.991H103.96z M103.774,51.912
	c-0.186,0-0.28,0.186-0.28,0.558c0,0.37,0.093,0.557,0.28,0.557s0.28-0.186,0.28-0.557C104.054,52.098,103.96,51.912,103.774,51.912
	z M104.147,52.409c-0.186,0-0.28,0.166-0.28,0.495c0,0.332,0.093,0.496,0.28,0.496s0.277-0.164,0.277-0.496
	C104.424,52.575,104.333,52.409,104.147,52.409z M105.542,91.93c0,0.084,0.06,0.208,0.186,0.372l0.186,0.248
	c0.186,0,0.387-0.124,0.603-0.372s0.387-0.453,0.513-0.619l-0.373-0.496h-0.186h-0.186c-0.06,0.084-0.184,0.166-0.37,0.248
	c-0.186,0.082-0.313,0.166-0.373,0.248v0.246V91.93z M106.286,96.266v-0.37h-0.37L106.286,96.266z M106.658,89.7
	c-0.186,0-0.28,0.146-0.28,0.434c0,0.29,0.093,0.434,0.28,0.434s0.28-0.144,0.28-0.434C106.938,89.846,106.845,89.7,106.658,89.7z
	 M107.777,90.072c-0.25,0-0.373,0.166-0.373,0.496s0.123,0.495,0.373,0.495c0.123,0,0.184-0.164,0.184-0.495
	S107.9,90.072,107.777,90.072z M110.289,96.886c-0.436,0-0.683,0.164-0.746,0.495h0.186h0.186c0.063-0.082,0.186-0.166,0.373-0.246
	c0.186-0.084,0.28-0.168,0.28-0.248H110.289z"/>
<path d="M176.462,95.399c-0.186,0.084-0.574,0.268-1.164,0.558c-0.589,0.288-0.976,0.515-1.163,0.681
	c-0.311,0.164-0.513,0.558-0.605,1.177c-0.093,0.62-0.296,0.929-0.606,0.929c0-1.734-0.171-2.809-0.511-3.221
	c-0.341-0.412-0.777-0.599-1.304-0.557c-0.528,0.042-1.086,0.144-1.675,0.308c-0.589,0.168-1.163,0-1.722-0.495
	c-0.372-0.33-0.574-0.683-0.605-1.053c-0.032-0.372-0.047-0.723-0.047-1.053s-0.047-0.599-0.14-0.807
	c-0.092-0.204-0.418-0.308-0.976-0.308c-0.559,0-0.947,0.352-1.164,1.053c-0.218,0.703-0.698,1.053-1.442,1.053
	c0-0.661,0.185-1.197,0.558-1.611c0.373-0.412,0.558-0.949,0.558-1.61c0-0.496-0.108-0.807-0.325-0.931
	c-0.218-0.122-0.481-0.184-0.791-0.184c-0.311,0-0.621,0.02-0.931,0.062c-0.311,0.042-0.559-0.02-0.744-0.186
	c-0.126-0.082-0.358-0.392-0.699-0.929c-0.341-0.537-0.574-0.807-0.698-0.807h-0.185c-0.063,0-0.11-0.018-0.14-0.062
	c-0.033-0.04-0.08-0.062-0.14-0.062c-0.498,0-0.869,0.23-1.117,0.683c-0.248,0.454-0.591,0.681-1.024,0.681
	c-0.062,0-0.202-0.248-0.418-0.743c-0.218-0.496-0.451-1.053-0.698-1.673c-0.25-0.619-0.466-1.217-0.653-1.796
	c-0.185-0.577-0.278-0.949-0.278-1.115v-0.372c0.06,0,0.17-0.164,0.325-0.495c0.155-0.33,0.202-0.537,0.14-0.62
	c-0.062-0.164-0.295-0.495-0.698-0.991c-0.404-0.495-0.605-0.783-0.605-0.867c-0.125-0.164-0.233-0.474-0.326-0.929
	c-0.093-0.453-0.171-0.807-0.233-1.053l-1.302-14.744c-0.063-0.328-0.202-0.825-0.418-1.487c-0.219-0.661-0.42-1.195-0.606-1.61
	c-0.125,0-0.418,0.082-0.884,0.246c-0.465,0.168-0.759,0.29-0.884,0.372c-0.125,0.166-0.218,0.516-0.278,1.053
	c-0.063,0.538-0.156,0.805-0.28,0.805c-0.063,0.168-0.233,0.124-0.511-0.122c-0.28-0.248-0.483-0.372-0.606-0.372
	c0,0.166,0.062,0.579,0.186,1.239c0.123,0.662,0.155,1.073,0.093,1.239c-0.063,0.082-0.14,0.184-0.233,0.308
	c-0.093,0.124-0.171,0.186-0.232,0.186h-3.723c-0.125,0.248-0.358,0.6-0.698,1.053c-0.341,0.456-0.574,0.765-0.698,0.929
	c-0.063,0-0.186-0.08-0.373-0.246s-0.341-0.248-0.465-0.248c0,0.743-0.033,1.239-0.093,1.487c-0.063,0.246,0.093,0.703,0.465,1.361
	c-0.558,0.168-0.962,0.372-1.209,0.62c-0.25,0.248-0.451,0.557-0.606,0.929c-0.155,0.372-0.295,0.787-0.418,1.239
	c-0.125,0.454-0.311,0.971-0.559,1.548c-0.062-0.08-0.202-0.204-0.418-0.37c-0.218-0.164-0.358-0.248-0.42-0.248
	c-0.062-0.082-0.078-0.082-0.045,0c0.03,0.084-0.016,0.124-0.14,0.124c0,0.909,0.077,1.425,0.232,1.549
	c0.155,0.122,0.341,0.184,0.559,0.184c0.217,0,0.403,0.106,0.558,0.31c0.155,0.208,0.233,0.849,0.233,1.92
	c-0.621,0-1.087,0.168-1.397,0.496c-0.311,0.33-0.574,0.765-0.791,1.301c-0.218,0.538-0.435,1.115-0.651,1.734
	c-0.218,0.62-0.544,1.177-0.977,1.673c-0.185,0.246-0.45,0.37-0.791,0.37c-0.341,0-0.668,0-0.977,0
	c-0.311,0-0.605,0.022-0.883,0.062c-0.28,0.044-0.451,0.27-0.513,0.683c-0.125,0.662-0.202,1.694-0.233,3.097
	c-0.032,1.405-0.265,2.436-0.698,3.097c-0.931,0-1.645,0.146-2.14,0.434c-0.498,0.29-0.917,0.681-1.257,1.177
	c-0.341,0.495-0.668,1.095-0.977,1.796c-0.311,0.703-0.713,1.425-1.209,2.168c-0.25-0.412-0.404-0.867-0.466-1.363
	c-0.062-0.495-0.138-0.947-0.232-1.361c-0.093-0.412-0.265-0.723-0.513-0.931c-0.248-0.204-0.744-0.226-1.489-0.06
	c-0.125,0.082-0.311,0.268-0.558,0.557c-0.25,0.29-0.404,0.516-0.466,0.681c0.062,0.084,0.14,0.186,0.233,0.31
	c0.093,0.124,0.2,0.228,0.326,0.31h0.185h0.28c0-0.082,0.123-0.206,0.373-0.372c0.247-0.164,0.402-0.248,0.465-0.248
	c0.062,0,0.155,0.084,0.28,0.248c0.123,0.166,0.186,0.29,0.186,0.372v0.124c0,0.082,0.03,0.166,0.092,0.248l-0.092,0.246
	c-0.063,0.084-0.219,0.27-0.466,0.558c-0.248,0.29-0.404,0.516-0.465,0.681c-0.126,0.248-0.28,0.847-0.466,1.798
	c-0.186,0.947-0.311,1.59-0.372,1.92c-0.498-0.33-0.994-1.363-1.49-3.097c-0.496-1.736-0.946-3.696-1.349-5.885
	c-0.404-2.188-0.731-4.274-0.977-6.258c-0.248-1.982-0.372-3.385-0.372-4.212v-0.867c0.06,0.084,0.2,0.186,0.418,0.31
	c0.217,0.124,0.387,0.228,0.511,0.308h0.186h0.186c0.123-0.08,0.293-0.288,0.511-0.619c0.217-0.328,0.388-0.577,0.513-0.743v-0.248
	c-0.559-0.328-1.024-0.661-1.397-0.991c-0.869-0.577-1.365-0.949-1.489-1.115c-0.186-1.403-0.295-2.498-0.325-3.283
	c-0.033-0.785-0.047-1.754-0.047-2.913c0-1.155,0.077-2.27,0.232-3.345c0.155-1.071,0.233-2.186,0.233-3.345
	c0-1.319-0.078-2.601-0.233-3.84s-0.232-2.56-0.232-3.966v-0.248c0-0.08,0.123-0.288,0.372-0.619
	c0.248-0.328,0.433-0.537,0.559-0.619v-0.248c-0.311-0.909-0.559-1.692-0.746-2.354c-0.185-0.661-0.356-1.363-0.511-2.106
	c-0.155-0.745-0.233-1.445-0.233-2.106c0-0.577,0.093-1.053,0.28-1.425s0.28-0.805,0.28-1.301v-0.248
	c0-0.164-0.08-0.495-0.233-0.991c-0.156-0.495-0.233-0.783-0.233-0.867c0-0.328,0.108-0.515,0.326-0.558
	c0.217-0.04,0.465-0.08,0.744-0.122s0.573-0.206,0.884-0.496c0.31-0.288,0.558-0.929,0.744-1.92c0.123-0.164,0.123-0.537,0-1.115
	c-0.125-0.577-0.186-0.949-0.186-1.115c-0.311,0-0.668-0.062-1.069-0.186c-0.404-0.124-0.606,0.144-0.606,0.805v0.248l1.024,1.363
	v0.246v0.372c-0.125,0.084-0.358,0.186-0.698,0.31c-0.341,0.124-0.574,0.186-0.698,0.186v-4.46c0.744,0,1.286-0.372,1.629-1.115
	c0.34-0.745,0.511-1.569,0.511-2.478c0.186,0,0.513,0.124,0.977,0.372c0.465,0.246,0.961,0.579,1.489,0.991
	c0.526,0.414,1.008,0.847,1.444,1.301c0.433,0.454,0.712,0.847,0.838,1.175c-0.373,0.168-0.731,0.496-1.071,0.993
	c-0.343,0.495-0.668,0.743-0.977,0.743h-0.28c-0.062,0-0.202-0.082-0.418-0.248c-0.218-0.164-0.358-0.248-0.42-0.248v1.239
	c0.062,0,0.295,0.022,0.698,0.062c0.403,0.044,0.838,0.124,1.304,0.248c0.465,0.124,0.868,0.31,1.209,0.557
	c0.341,0.248,0.513,0.538,0.513,0.869c0,0.991-0.25,1.838-0.744,2.538c-0.498,0.704-0.744,1.549-0.744,2.54
	c0,0.496,0.154,0.867,0.465,1.115c0.31,0.248,0.636,0.496,0.977,0.745c0.34,0.246,0.666,0.557,0.977,0.929
	c0.31,0.37,0.465,0.889,0.465,1.548c0,0.168-0.015,0.476-0.047,0.929c-0.032,0.456-0.047,0.724-0.047,0.807
	c0,0.166-0.078,0.495-0.232,0.991c-0.156,0.495-0.233,0.787-0.233,0.867c0,0.911,0.263,1.487,0.791,1.736
	c0.526,0.246,1.008,0.37,1.442,0.37c0,0.911,0.062,2.128,0.186,3.655c0.123,1.529,0.247,2.498,0.373,2.911
	c0.06,0.084,0.217,0.476,0.465,1.177c0.247,0.703,0.403,1.137,0.465,1.301v0.248v0.372c-0.062,0.082-0.278,0.268-0.651,0.557
	c-0.372,0.29-0.621,0.476-0.744,0.558v0.37v0.248c0.433,1.902,0.775,3.097,1.024,3.593c0.247,0.495,0.496,0.765,0.744,0.805
	c0.247,0.042,0.511,0.084,0.791,0.124c0.28,0.042,0.666,0.6,1.164,1.673l0.465-0.62c-0.186-2.478-0.155-4.19,0.093-5.141
	c0.247-0.949,0.605-1.59,1.071-1.922c0.465-0.328,1.008-0.659,1.629-0.991c0.62-0.328,1.209-1.115,1.768-2.354
	c0.62-1.568,1.116-2.889,1.489-3.964c0.372-1.073,1.117-2.23,2.233-3.469c0.062,0.33,0.155,0.787,0.28,1.363
	c0.123,0.579,0.34,0.951,0.651,1.115c0.062-0.164,0.202-0.412,0.42-0.745c0.217-0.328,0.387-0.495,0.511-0.495
	c0.062-0.082,0.217,0,0.466,0.248c0.247,0.246,0.402,0.37,0.465,0.37c0.123,0,0.418-0.04,0.884-0.124
	c0.465-0.08,0.76-0.122,0.884-0.122c0-0.166-0.078-0.537-0.233-1.115c-0.155-0.579-0.202-0.949-0.14-1.115
	c0-0.082,0.14-0.206,0.419-0.372c0.278-0.164,0.45-0.248,0.511-0.248c0.062-0.08,0.155-0.186,0.28-0.31
	c0.123-0.122,0.186-0.226,0.186-0.308s-0.047-0.35-0.14-0.807c-0.093-0.453-0.203-0.969-0.326-1.548
	c-0.125-0.577-0.233-1.135-0.325-1.673c-0.093-0.537-0.14-0.929-0.14-1.177c0-0.412,0.17-1.031,0.511-1.858
	c0.34-0.825,0.636-1.319,0.884-1.487c0.31,0.084,0.48,0.29,0.511,0.62c0.032,0.33,0.015,0.703-0.045,1.115
	c-0.063,0.414-0.08,0.805-0.047,1.177c0.03,0.37,0.2,0.6,0.511,0.681c0.062-0.08,0.154-0.266,0.28-0.557
	c0.123-0.288,0.185-0.516,0.185-0.683c0-0.412,0.062-1.239,0.186-2.478c0.123-1.237,0.186-2.022,0.186-2.352
	c0-0.166,0.062-0.31,0.186-0.434c0.123-0.124,0.247-0.186,0.372-0.186c0.062,0,0.202,0.062,0.42,0.186
	c0.217,0.124,0.387,0.268,0.511,0.434v0.246c0,0.496-0.062,0.827-0.186,0.991c-0.125,0.168-0.185,0.662-0.185,1.487
	c0.06,0,0.123,0.062,0.185,0.186s0.125,0.186,0.186,0.186c0.062-0.164,0.202-0.496,0.419-0.991c0.217-0.496,0.356-0.825,0.418-0.991
	h0.28c0.372,0,0.759,0.144,1.164,0.433c0.402,0.29,0.821,0.6,1.256,0.929c0.433,0.332,0.868,0.683,1.302,1.053
	c0.435,0.372,0.806,0.6,1.117,0.683c0.123,0.082,0.373,0.082,0.744,0c0.373-0.082,0.59-0.082,0.653,0
	c0.06,0.166,0.138,0.6,0.232,1.301c0.093,0.703,0.17,1.095,0.233,1.177c0.186,0.579,0.465,1.053,0.838,1.423
	c0.373,0.372,0.744,0.745,1.117,1.115c0.372,0.372,0.698,0.807,0.976,1.301c0.28,0.496,0.419,1.157,0.419,1.982
	c0,0.496-0.093,0.931-0.28,1.301c-0.185,0.372-0.278,0.765-0.278,1.177c0,0.496,0.154,0.827,0.465,0.991
	c0.31,0.166,0.466,0.538,0.466,1.115v0.745c0,0.166-0.063,0.681-0.186,1.548c-0.125,0.867-0.218,1.385-0.28,1.549v0.248
	c0,0.495,0.062,0.867,0.186,1.115c0.123,0.246,0.28,0.433,0.465,0.557c0.186,0.124,0.387,0.248,0.606,0.372
	c0.217,0.124,0.418,0.352,0.605,0.681c0.06,0.166,0.06,0.496,0,0.991c-0.063,0.496-0.063,0.827,0,0.991
	c0.06,0,0.217,0.248,0.465,0.745c0.248,0.495,0.373,0.827,0.373,0.991c0.06,0.248,0.154,0.662,0.28,1.239
	c0.123,0.579,0.232,1.197,0.325,1.858c0.093,0.662,0.186,1.281,0.28,1.858c0.093,0.58,0.14,0.993,0.14,1.239l0.838,1.611
	l1.023,6.194l2.328,2.851l2.233,2.23l1.862,1.734l1.675,3.099l0.651,0.743V95.399z M120.898,46.833l1.489-1.984l0.093-0.495h-1.582
	V46.833z M121.363,46.833c-0.248,0-0.372,0.184-0.372,0.557s0.123,0.558,0.372,0.558c0.31,0,0.466-0.186,0.466-0.558
	S121.673,46.833,121.363,46.833z M121.363,73.841h0.559v-0.619L121.363,73.841z M122.387,80.531h0.373v-0.495L122.387,80.531z
	 M123.225,42.992c0.123-0.164,0.077-0.248-0.14-0.248c-0.218,0-0.325,0.084-0.325,0.248c0.06,0.166,0.154,0.248,0.278,0.248
	C123.163,43.24,123.225,43.158,123.225,42.992z M123.225,40.638c-0.125-0.164-0.186-0.102-0.186,0.186
	c0,0.29,0.062,0.434,0.186,0.434c0.123-0.166,0.186-0.31,0.186-0.434S123.348,40.638,123.225,40.638z M124.249,89.205h0.373v-0.62
	h-0.373V89.205z M124.993,72.603c0,0.827,0.217,1.88,0.651,3.159c0.435,1.281,0.713,2.044,0.838,2.292
	c0,0.082,0.032,0.124,0.093,0.124h0.186c0.433,0,0.729-0.496,0.884-1.487c0.154-0.991,0.543-1.94,1.164-2.851v-0.246v-0.372
	c-0.063-0.082-0.14-0.204-0.233-0.372c-0.093-0.164-0.171-0.246-0.233-0.246H124.993z M125.553,67.399
	c0,0.662,0.077,1.385,0.232,2.168c0.155,0.787,0.513,1.177,1.071,1.177c0.373,0,0.698-0.124,0.977-0.37
	c0.278-0.248,0.605-0.372,0.977-0.372v-0.496h-1.397l-0.185-1.485c-0.063-0.412-0.11-0.807-0.14-1.177
	c-0.033-0.372-0.08-0.723-0.14-1.053v-0.372c0-0.248,0.047-0.412,0.14-0.496c0.093-0.08,0.217-0.164,0.372-0.246
	s0.28-0.206,0.373-0.372c0.093-0.164,0.14-0.453,0.14-0.867c0-0.33-0.033-0.763-0.093-1.301c-0.063-0.537-0.311-0.805-0.744-0.805
	c0,1.239-0.265,2.25-0.791,3.035C125.816,65.15,125.553,66.16,125.553,67.399z M126.948,59.099h1.396
	c-0.125-0.412-0.265-0.639-0.418-0.683c-0.156-0.04-0.326-0.062-0.513-0.062c-0.062,0-0.14,0.022-0.232,0.062
	c-0.093,0.044-0.173,0.062-0.233,0.062V59.099z M134.3,73.841h0.558v-0.619H134.3V73.841z M142.212,61.575
	c0.06-0.164,0.14-0.474,0.232-0.929c0.093-0.453,0.171-0.763,0.233-0.929c0.062-0.082,0.155-0.288,0.28-0.619
	c0.123-0.33,0.186-0.537,0.186-0.62c0-0.248-0.156-0.495-0.466-0.743h-0.186h-0.278c-0.063,0.166-0.156,0.31-0.28,0.433
	c-0.125,0.124-0.186,0.23-0.186,0.31L142.212,61.575z M146.865,62.196c-0.248,0-0.372,0.186-0.372,0.557
	c0,0.372,0.123,0.558,0.372,0.558c0.248,0,0.373-0.186,0.373-0.558C147.238,62.382,147.113,62.196,146.865,62.196z M147.331,56
	c0.372-0.246,0.558-0.659,0.558-1.239h-0.558V56z M148.727,60.214l0.465-0.496h-0.465V60.214z M149.192,52.655
	c0,0.58,0.062,0.991,0.186,1.239c0.123,0.248,0.433,0.372,0.931,0.372c0-1.073-0.372-1.94-1.117-2.602V52.655z M150.96,56.248
	c0,0.414,0.125,0.683,0.373,0.805c0.247,0.124,0.526,0.186,0.838,0.186c0-0.412-0.11-0.701-0.326-0.867
	c-0.218-0.164-0.481-0.288-0.791-0.372L150.96,56.248z M159.803,58.478c-0.25,0-0.373,0.208-0.373,0.62
	c0,0.414,0.123,0.619,0.373,0.619c0.247,0,0.372-0.204,0.372-0.619C160.174,58.686,160.049,58.478,159.803,58.478z M160.733,77.558
	c-0.125-0.08-0.186,0-0.186,0.248c0,0.248,0.062,0.33,0.186,0.248c0.123,0,0.186-0.082,0.186-0.248
	C160.92,77.642,160.857,77.558,160.733,77.558z M161.664,71.116c0.06,0.166,0.263,0.557,0.605,1.177
	c0.34,0.619,0.666,1.095,0.977,1.425l0.465-0.745c-0.125-0.661-0.404-1.279-0.838-1.858c-0.435-0.577-0.899-1.073-1.396-1.487
	l-0.373-0.495c-0.125-0.166-0.218-0.33-0.278-0.496c-0.063,0.414-0.093,0.787-0.093,1.115c-0.063,0.248-0.093,0.538-0.093,0.867
	v0.372L161.664,71.116z M161.664,66.408h0.465v-0.619h-0.465V66.408z M163.525,65.789c-0.311,0-0.465,0.228-0.465,0.681
	c0,0.454,0.154,0.681,0.465,0.681c0.248,0,0.373-0.226,0.373-0.681C163.897,66.017,163.773,65.789,163.525,65.789z M163.153,79.294
	l0.465,0.619c0.123-0.164,0.295-0.328,0.513-0.496c0.217-0.164,0.387-0.453,0.511-0.867v-0.248v-0.37
	c-0.063,0-0.14-0.082-0.233-0.248c-0.093-0.164-0.202-0.248-0.325-0.248c-0.125,0-0.296,0.166-0.513,0.496
	c-0.218,0.33-0.358,0.538-0.418,0.619v0.372V79.294z M164.828,81.894c-0.186,0-0.28,0.186-0.28,0.558c0,0.37,0.093,0.557,0.28,0.557
	c0.31,0,0.465-0.186,0.465-0.557C165.293,82.08,165.138,81.894,164.828,81.894z M165.386,84.993c-0.311,0-0.465,0.184-0.465,0.557
	c0,0.372,0.154,0.558,0.465,0.558c0.248,0,0.373-0.186,0.373-0.558C165.759,85.177,165.634,84.993,165.386,84.993z M167.806,87.718
	c0,0.991,0.373,1.487,1.117,1.487c0-0.661-0.063-1.115-0.186-1.363C168.612,87.594,168.302,87.553,167.806,87.718z M168.179,92.921
	h0.838c0.372-0.08,0.853-0.184,1.442-0.308c0.589-0.124,0.884-0.226,0.884-0.31v-0.619c-0.372-0.166-0.744-0.33-1.117-0.496
	c-0.311-0.164-0.636-0.31-0.976-0.434c-0.343-0.124-0.606-0.226-0.791-0.308l0.185,0.495c0,0.084,0.015,0.146,0.047,0.186
	c0.032,0.042,0.047,0.104,0.047,0.186v0.124c-0.125,0-0.218-0.042-0.278-0.124c-0.063-0.082-0.156-0.164-0.28-0.248V92.921z"/>
<path d="M196.936,152.268c-0.125,0-0.481-0.168-1.069-0.496c-0.591-0.33-0.917-0.414-0.977-0.248
	c-0.186,0.164-0.343,0.537-0.466,1.115c-0.125,0.577-0.186,0.949-0.186,1.115c-0.311-0.33-0.543-0.516-0.698-0.557
	c-0.155-0.044-0.418-0.062-0.791-0.062c-0.621,0-1.195,0.124-1.722,0.37c-0.528,0.248-1.069,0.372-1.629,0.372
	c-0.558,0-0.946-0.166-1.163-0.495c-0.219-0.332-0.343-0.765-0.373-1.301c-0.032-0.538-0.016-1.115,0.047-1.736
	c0.062-0.619,0.093-1.177,0.093-1.672c-0.186,0-0.498-0.248-0.931-0.745c-0.435-0.495-0.884-1.053-1.349-1.672
	c-0.466-0.62-0.871-1.219-1.211-1.798c-0.341-0.579-0.511-0.949-0.511-1.115c0.247,0,0.588-0.042,1.023-0.122
	c0.433-0.084,0.653-0.332,0.653-0.745c0.06-0.166,0.077-0.662,0.047-1.486c-0.033-0.827-0.047-1.323-0.047-1.487
	c0.06-0.579,0.217-1.035,0.465-1.363c0.247-0.33,0.511-0.641,0.791-0.929c0.28-0.29,0.543-0.62,0.791-0.991
	c0.248-0.372,0.403-0.889,0.466-1.549c0.495,0.412,0.838,0.971,1.023,1.673c0.186,0.701,0.496,1.257,0.931,1.672
	c0.123-0.248,0.295-0.641,0.513-1.177c0.217-0.538,0.48-0.805,0.791-0.805c0.868,0,1.442,0.453,1.722,1.363
	c0.278,0.907,0.448,1.816,0.511,2.725c0.062,0,0.108,0.02,0.14,0.062c0.03,0.042,0.077,0.062,0.14,0.062h0.093
	c0.433,0,0.758-0.414,0.977-1.239c0.217-0.827,0.418-1.715,0.605-2.663c0.186-0.951,0.387-1.84,0.605-2.664
	c0.217-0.827,0.511-1.239,0.884-1.239c0.868,0,1.582,0.372,2.14,1.115c0.559,0.745,1.241,1.115,2.048,1.115
	c0.373,0,0.651-0.166,0.838-0.495c0.186-0.332,0.34-0.703,0.465-1.115c0.125-0.414,0.263-0.787,0.419-1.115
	c0.154-0.332,0.326-0.496,0.511-0.496c0,0.909,0.248,1.527,0.746,1.858c0.247-1.073,0.448-2.044,0.605-2.911
	c0.154-0.867,0.356-1.611,0.605-2.23c0.247-0.619,0.62-1.115,1.117-1.487c0.495-0.37,1.241-0.557,2.233-0.557
	c-0.186-0.827-0.125-1.509,0.186-2.044c0.31-0.538,0.744-1.013,1.302-1.425c0.559-0.414,1.117-0.805,1.675-1.177
	c0.559-0.372,0.962-0.765,1.211-1.177c0.31-0.33,0.511-0.681,0.605-1.053c0.093-0.372,0.186-0.787,0.28-1.239
	c0.093-0.454,0.217-0.889,0.372-1.301c0.155-0.414,0.42-0.827,0.791-1.239c0.248-1.073,0.481-2.582,0.699-4.522
	c0.217-1.942,0.402-3.986,0.558-6.132c0.154-2.15,0.247-4.234,0.28-6.258c0.03-2.024,0.014-3.654-0.047-4.893l1.023-0.745
	c-0.062-0.08-0.218-0.226-0.465-0.433c-0.248-0.206-0.435-0.35-0.558-0.434v-0.248c0-0.577,0.093-1.115,0.278-1.61
	c0.186-0.496,0.28-1.033,0.28-1.611c0-0.164-0.016-0.557-0.047-1.177c-0.032-0.619-0.093-1.257-0.186-1.92
	c-0.093-0.661-0.202-1.257-0.325-1.796c-0.126-0.537-0.28-0.807-0.466-0.807l-1.209,0.124v-2.106c0.247,0,0.372,0.022,0.372,0.062
	c0,0.042-0.032,0.104-0.093,0.186c-0.062,0.084-0.093,0.144-0.093,0.186c0,0.042,0.186,0.062,0.559,0.062v-4.832
	c0-0.082-0.078-0.204-0.233-0.372c-0.155-0.164-0.265-0.288-0.326-0.37c-0.125-0.082-0.388-0.31-0.791-0.683
	c-0.403-0.37-0.698-0.597-0.884-0.681c0,0.248-0.138,0.805-0.418,1.672c-0.28,0.869-0.574,1.425-0.884,1.673v-1.239h-0.931v4.212
	h-2.513c0,1.239,0.403,1.86,1.211,1.86c0,0.579-0.093,1.197-0.28,1.858c-0.186,0.662-0.498,1.075-0.931,1.239
	c0-0.661-0.108-1.073-0.326-1.239c-0.218-0.164-0.45-0.248-0.698-0.248c-0.311,0-0.589,0.146-0.838,0.434
	c-0.248,0.29-0.59,0.433-1.023,0.433c-0.498,0-0.824-0.246-0.977-0.743c-0.156-0.496-0.481-0.743-0.977-0.743
	c-0.311,0-0.605,0.02-0.884,0.062c-0.28,0.042-0.574,0.268-0.884,0.681c0.186-0.412,0.093-0.867-0.28-1.363
	c-0.186-0.248-0.404-0.495-0.651-0.743c-0.186,0.414-0.465,0.743-0.838,0.991s-0.714,0.454-1.024,0.619
	c-0.311,0.168-0.59,0.394-0.838,0.683c-0.248,0.29-0.372,0.681-0.372,1.177c-0.126-0.164-0.296-0.412-0.513-0.743
	c-0.218-0.33-0.388-0.537-0.511-0.62c-0.125-0.08-0.466-0.31-1.024-0.681c-0.558-0.372-0.838-0.639-0.838-0.807
	c-0.186-0.164-0.155-0.557,0.093-1.177c0.247-0.619,0.373-1.009,0.373-1.177c-0.063,0-0.219-0.102-0.466-0.308
	c-0.248-0.206-0.404-0.226-0.465-0.062c-0.126,0.082-0.25,0.433-0.373,1.053c-0.125,0.619-0.218,0.971-0.28,1.053
	c-0.125,0.248-0.435,0.454-0.929,0.619c-0.498,0.168-0.871,0.168-1.117,0c-0.063,0-0.186-0.102-0.373-0.308
	c-0.185-0.206-0.388-0.454-0.605-0.745c-0.218-0.288-0.435-0.537-0.651-0.743c-0.218-0.204-0.358-0.31-0.42-0.31h-1.954
	c-0.126,0-0.373-0.35-0.744-1.053c-0.373-0.701-0.621-1.053-0.746-1.053c-0.125-0.08-0.45-0.328-0.976-0.743
	c-0.529-0.412-0.854-0.62-0.977-0.62c-0.063-0.164-0.063-0.557,0-1.177c0.06-0.619,0.06-0.969,0-1.053
	c-0.063-0.08-0.311-0.184-0.744-0.308c-0.436-0.124-0.684-0.226-0.746-0.31c-0.558-0.743-1.009-1.92-1.349-3.531
	c-0.341-1.611-0.605-3.323-0.791-5.141c-0.186-1.816-0.311-3.571-0.373-5.267c-0.062-1.692-0.092-3.035-0.092-4.026
	c0-1.073,0-2.044,0-2.911c0-0.869,0.03-1.714,0.092-2.54c0.062-0.825,0.155-1.673,0.28-2.54c0.123-0.867,0.34-1.878,0.651-3.035
	c0.683-0.164,1.086-0.577,1.211-1.239c0.123-0.661,0.372-1.197,0.744-1.611l0.465,1.487c0.125-0.082,0.341-0.124,0.653-0.124
	c0.31,0,0.635,0,0.977,0c0.34,0,0.651,0,0.929,0c0.28,0,0.45,0.042,0.513,0.124c0.123,0.084,0.31,0.414,0.558,0.991
	c0.248,0.579,0.403,0.911,0.466,0.991c0.123,0.084,0.232,0.208,0.325,0.372c0.093,0.166,0.17,0.248,0.233,0.248l0.838-1.239
	c0.558,0.414,0.945,0.909,1.164,1.486c0.217,0.58,0.387,1.177,0.511,1.798c0.123,0.619,0.233,1.239,0.326,1.858
	c0.092,0.62,0.293,1.219,0.605,1.798c0,0.414,0.03,1.095,0.093,2.044c0.06,0.951,0.123,1.962,0.186,3.035
	c0.06,1.075,0.123,2.088,0.185,3.035c0.062,0.951,0.093,1.591,0.093,1.922c0,0.166,0.047,0.579,0.14,1.239
	c0.093,0.661,0.186,1.361,0.28,2.106c0.093,0.743,0.185,1.467,0.278,2.168c0.093,0.703,0.17,1.219,0.233,1.548
	c0.123,0.662,0.433,1.261,0.931,1.798c0.496,0.538,1.054,0.991,1.675,1.361c0.62,0.372,1.257,0.662,1.908,0.869
	c0.651,0.206,1.194,0.308,1.629,0.308c0.31,0,0.526-0.122,0.651-0.37c0.123-0.248,0.34-0.372,0.651-0.372
	c0.373,0,0.823,0.352,1.35,1.053c0.526,0.703,1.008,1.053,1.442,1.053c0.433,0,0.775-0.226,1.024-0.681
	c0.247-0.453,0.372-0.929,0.372-1.425c0-0.661-0.185-1.073-0.558-1.239c-0.373-0.164-0.714-0.495-1.024-0.991
	c1.117,0,2.155-0.226,3.118-0.681c0.962-0.454,1.784-1.383,2.468-2.789c0.06-0.164,0.138-0.557,0.232-1.177
	c0.093-0.619,0.17-0.929,0.233-0.929c0.558-0.661,1.054-1.031,1.489-1.115c0.433-0.08,0.823-0.186,1.164-0.31
	c0.34-0.124,0.605-0.412,0.791-0.867c0.186-0.453,0.31-1.341,0.372-2.664h0.838v2.602c0.186,0.084,0.373,0.124,0.559,0.124
	c0.123,0,0.263,0.022,0.418,0.062c0.155,0.042,0.295,0.022,0.42-0.062c0.805-0.328,1.489-0.867,2.047-1.611
	c0.559-0.743,0.838-1.61,0.838-2.601c-0.125,0-0.278-0.144-0.465-0.434c-0.186-0.288-0.341-0.433-0.466-0.433
	c-0.062,0.166-0.138,0.476-0.232,0.929c-0.093,0.454-0.171,0.723-0.233,0.805h-0.28c-0.496,0-0.759-0.453-0.791-1.363
	c-0.032-0.907-0.047-1.527-0.047-1.858c0-0.496,0.015-1.239,0.047-2.23c0.032-0.991,0.108-2.002,0.233-3.035
	c0.123-1.033,0.293-1.922,0.511-2.664c0.217-0.743,0.543-1.115,0.977-1.115c0.31,0,0.636,0.206,0.977,0.619
	c0.34,0.414,0.698,0.827,1.071,1.239c0.372,0.414,0.728,0.745,1.071,0.991c0.34,0.248,0.698,0.248,1.069,0
	c0.123,0.168,0.295,0.434,0.513,0.807c0.217,0.37,0.448,0.805,0.698,1.301c0.247,0.495,0.48,0.949,0.698,1.361
	c0.217,0.414,0.387,0.703,0.511,0.869c0.248,0.495,0.373,1.095,0.373,1.796c0,0.703-0.016,1.405-0.047,2.106
	c-0.032,0.703-0.047,1.405-0.047,2.106c0,0.703,0.123,1.301,0.373,1.798c0.247,0.579,0.448,0.867,0.605,0.867
	c0.154,0,0.263-0.04,0.326-0.124c0.06-0.082,0.092-0.082,0.092,0c0,0.084,0,0.496,0,1.239c0,1.157-0.108,2.602-0.325,4.336
	c-0.218,1.734-0.451,3.181-0.698,4.336c-0.621-0.412-1.274-0.226-1.955,0.558c-0.684,0.785-1.179,1.507-1.489,2.168
	c0.931-0.412,1.612-0.62,2.047-0.62c0.433,0,0.744,0.146,0.931,0.434c0.186,0.29,0.293,0.725,0.326,1.301
	c0.03,0.579,0.077,1.239,0.14,1.982l0.558,2.106l-3.537,0.619v0.496c0,0.166,0.17,0.352,0.513,0.558
	c0.34,0.206,0.728,0.414,1.163,0.619c0.433,0.206,0.838,0.434,1.211,0.681c0.372,0.248,0.588,0.496,0.651,0.745
	c0,0.166-0.047,0.723-0.14,1.672c-0.093,0.951-0.108,1.509-0.047,1.673c-0.062,0.082-0.278,0.206-0.651,0.37
	c-0.186,0.084-0.404,0.168-0.651,0.248c-0.373,0-0.621-0.164-0.744-0.495c-0.126-0.33-0.233-0.701-0.326-1.115
	c-0.093-0.412-0.202-0.785-0.326-1.115c-0.125-0.33-0.372-0.496-0.744-0.496c0,0.991-0.108,1.673-0.325,2.044
	c-0.218,0.372-0.435,0.62-0.653,0.745c-0.218,0.122-0.435,0.246-0.651,0.37c-0.218,0.124-0.325,0.434-0.325,0.929
	c0-0.164,0.387-0.266,1.163-0.308c0.776-0.042,1.535,0.166,2.281,0.619c0.744,0.454,1.286,1.261,1.629,2.416
	c0.34,1.157,0.077,2.849-0.791,5.079c0,0.248-0.047,0.785-0.14,1.611c-0.093,0.825-0.14,1.63-0.14,2.416
	c0,0.783,0.107,1.363,0.325,1.734c0.218,0.372,0.606,0.226,1.164-0.433c-0.435,0.577-0.714,1.217-0.838,1.92
	c-0.125,0.701-0.233,1.381-0.326,2.044c-0.092,0.661-0.248,1.259-0.465,1.798c-0.218,0.535-0.605,0.969-1.164,1.299v5.081h-0.651
	c-0.062-0.084-0.125-0.208-0.186-0.372c-0.185-0.248-0.278-0.414-0.278-0.495h-0.28h-0.093c-0.125,0.412-0.358,1.177-0.698,2.292
	c-0.341,1.115-0.511,1.92-0.511,2.414c0,0.909,0.232,1.714,0.698,2.416c0.465,0.701,0.698,1.714,0.698,3.037
	c-0.373,0-0.651-0.124-0.838-0.372s-0.358-0.538-0.511-0.867c-0.156-0.332-0.296-0.62-0.42-0.869
	c-0.125-0.246-0.341-0.37-0.651-0.37c-0.435,0-0.698,0.328-0.791,0.991c-0.093,0.661-0.14,1.239-0.14,1.734
	c0,1.736,0.681,2.602,2.048,2.602c-0.063,0-0.093,0.04-0.093,0.124v0.495c-0.126,0.248-0.311,0.909-0.559,1.984
	c-0.248,1.071-0.404,1.816-0.465,2.23c-0.063-0.166-0.28-0.434-0.651-0.807c-0.373-0.37-0.621-0.599-0.746-0.681h-0.092
	c-0.063,0-0.126-0.042-0.186-0.124l-0.186,0.124c-0.063,0-0.171,0.082-0.326,0.248c-0.155,0.164-0.232,0.328-0.232,0.495v0.372
	v0.372c0,0.164,0.093,0.639,0.278,1.423c0.186,0.785,0.28,1.259,0.28,1.425c0,0.082-0.078,0.186-0.233,0.31
	c-0.155,0.124-0.265,0.226-0.325,0.31l-2.886,4.584c-0.125,0.659-0.28,1.009-0.465,1.053c-0.186,0.04-0.389,0.018-0.606-0.062
	c-0.218-0.084-0.435-0.084-0.651,0c-0.218,0.08-0.358,0.412-0.418,0.991c-0.186,1.155-0.373,2.084-0.559,2.787
	c-0.185,0.701-0.404,1.321-0.651,1.86c-0.248,0.535-0.558,1.071-0.931,1.61c-0.372,0.537-0.838,1.217-1.396,2.044v0.248v0.372
	l0.372,0.743c0.125,0.248,0.217,0.496,0.28,0.745c-0.125,0.08-0.218,0.164-0.28,0.246c-0.125,0.082-0.202,0.186-0.232,0.31
	c-0.033,0.124-0.08,0.226-0.14,0.31h-0.186c-0.186,0-0.404-0.166-0.651-0.496c-0.25-0.33-0.544-0.703-0.884-1.115
	c-0.341-0.414-0.731-0.787-1.164-1.115c-0.435-0.33-0.899-0.495-1.396-0.495c-0.373,0-0.651,0.142-0.838,0.433
	c-0.186,0.288-0.326,0.661-0.42,1.115c-0.092,0.453-0.202,0.887-0.325,1.301c-0.125,0.412-0.311,0.743-0.559,0.991
	c0.062-0.248,0.062-0.619,0-1.115c-0.062-0.495-0.138-0.971-0.232-1.425c-0.093-0.454-0.203-0.867-0.326-1.237
	c-0.125-0.372-0.248-0.558-0.372-0.558h-0.838v5.081l-1.583-0.745v3.469c-0.929-0.414-1.412-1.075-1.442-1.982
	C196.951,154.33,196.936,153.339,196.936,152.268z M183.254,67.399h0.559c0-0.661-0.186-1.155-0.559-1.486V67.399z M183.533,53.151
	c0,0.662,0.263,1.343,0.791,2.044c0.526,0.703,1.039,1.053,1.535,1.053c0-0.825-0.248-1.548-0.744-2.168
	C184.618,53.462,184.091,53.151,183.533,53.151z M183.533,69.505c0,0.911,0.31,1.363,0.931,1.363c0.62,0,0.931-0.453,0.931-1.363
	H183.533z M186.233,46.709h0.465v-0.62L186.233,46.709z M188.188,58.975c0.123-0.164,0.077-0.248-0.14-0.248
	c-0.218,0-0.326,0.084-0.326,0.248c0.123,0.246,0.233,0.37,0.326,0.37C188.141,59.345,188.188,59.221,188.188,58.975z
	 M188.188,146.691c-0.25,0-0.373,0.206-0.373,0.62c0,0.412,0.123,0.619,0.373,0.619c0.31,0,0.465-0.206,0.465-0.619
	C188.652,146.897,188.497,146.691,188.188,146.691z M189.956,148.674c-0.498,0-0.838,0.495-1.024,1.486
	c-0.186,0.991-0.28,1.776-0.28,2.354c0.744,0,1.504-0.104,2.28-0.308c0.776-0.208,1.597-0.683,2.466-1.425v-0.62
	c0-0.414-0.078-0.765-0.232-1.053c-0.156-0.29-0.389-0.433-0.698-0.433l-0.28,0.124c-0.063,0.08-0.156,0.391-0.28,0.929
	c-0.125,0.537-0.186,0.887-0.186,1.053c-0.125-0.166-0.388-0.516-0.791-1.053c-0.404-0.538-0.668-0.849-0.791-0.929L189.956,148.674
	z M188.746,54.018h0.558v-0.743h-0.558V54.018z M192.189,145.7c-0.125,0-0.528,0.02-1.211,0.062s-1.149,0.062-1.396,0.062
	c-0.063,0-0.125,0.102-0.186,0.31c-0.062,0.204-0.093,0.391-0.093,0.557h2.886V145.7z M191.259,141.86h0.465l-0.465-0.991V141.86z
	 M192.189,138.019c-0.125-0.082-0.186,0.062-0.186,0.434c0,0.37,0.062,0.557,0.186,0.557c0.247-0.166,0.372-0.37,0.372-0.619
	C192.561,138.143,192.436,138.019,192.189,138.019z M192.747,66.532c-0.311,0-0.465,0.248-0.465,0.743
	c0,0.496,0.154,0.745,0.465,0.745c0.31,0,0.466-0.248,0.466-0.745C193.213,66.78,193.057,66.532,192.747,66.532z M195.633,140.124
	h1.116l-0.465-0.619L195.633,140.124z M196.284,148.798h0.465l-0.465-0.869V148.798z M197.68,75.825h0.653
	c0-0.33-0.033-0.701-0.093-1.115c-0.063-0.412-0.25-0.701-0.559-0.869V75.825z M198.239,135.294c0.06-0.248-0.016-0.372-0.233-0.372
	c-0.218,0-0.326,0.124-0.326,0.372c0.125,0.246,0.248,0.37,0.373,0.37C198.176,135.664,198.239,135.54,198.239,135.294z
	 M199.821,137.4c0,0.248,0.014,0.495,0.047,0.743c0.03,0.248,0.2,0.537,0.511,0.867c0-0.082,0.015-0.246,0.047-0.495
	c0.03-0.248,0.047-0.414,0.047-0.496c0-0.248-0.032-0.495-0.093-0.743s-0.248-0.414-0.558-0.496V137.4z M201.31,79.54l0.465-0.867
	l-0.465-0.867l-0.465,0.867L201.31,79.54z M202.241,139.506l0.465-0.496h-0.465V139.506z M203.265,144.585v-0.743h-0.559
	L203.265,144.585z M203.265,146.815c0,0.496,0.14,0.869,0.418,1.115c0.28,0.248,0.606,0.434,0.977,0.558
	c0.373,0.124,0.713,0.204,1.024,0.248c0.31,0.04,0.496,0.062,0.558,0.062v-2.975c0.31,0,0.496,0.062,0.559,0.186
	c0.06,0.124,0.247-0.144,0.558-0.805c-0.684-0.414-1.396-0.62-2.141-0.62c-0.496,0-0.838,0.124-1.023,0.372
	c-0.186,0.248-0.498,0.825-0.931,1.734V146.815z M203.73,133.931c-0.248,0-0.372,0.226-0.372,0.681c0,0.453,0.123,0.683,0.372,0.683
	c0.31,0,0.466-0.23,0.466-0.683C204.196,134.157,204.04,133.931,203.73,133.931z M203.73,137.4c0.186,0.495,0.559,0.743,1.117,0.743
	c0-0.248-0.047-0.516-0.14-0.805c-0.093-0.29-0.233-0.476-0.418-0.558L203.73,137.4z M204.289,134.673
	c-0.311,0-0.466,0.226-0.466,0.683c0,0.453,0.155,0.681,0.466,0.681c0.247,0,0.372-0.228,0.372-0.681
	C204.661,134.9,204.536,134.673,204.289,134.673z M206.802,148.798c-0.311,0-0.466,0.226-0.466,0.681
	c0,0.453,0.155,0.681,0.466,0.681c0.308,0,0.465-0.228,0.465-0.681C207.267,149.025,207.111,148.798,206.802,148.798z
	 M212.666,71.611c0,0.168-0.047,0.372-0.14,0.62c-0.093,0.248-0.186,0.495-0.28,0.743c-0.093,0.248-0.14,0.456-0.14,0.62
	c0,0.166,0.123,0.246,0.373,0.246c0.558,0,1.024-0.226,1.396-0.681c0.373-0.453,0.558-1.053,0.558-1.796
	c0-0.412-0.045-0.869-0.138-1.363c-0.093-0.496-0.451-0.661-1.071-0.496l0.372-1.485c0-0.082-0.078-0.124-0.232-0.124
	c-0.156,0-0.265,0-0.326,0c-0.372,0-0.591,0.124-0.651,0.37c-0.063,0.248-0.078,0.558-0.047,0.931
	c0.03,0.37,0.093,0.785,0.186,1.237C212.619,70.89,212.666,71.282,212.666,71.611z M216.761,65.913h1.116
	c0-0.33-0.078-0.641-0.232-0.931c-0.156-0.288-0.358-0.433-0.606-0.433h-0.278V65.913z M218.343,55.257
	c-0.311,0-0.466,0.248-0.466,0.743c0,0.496,0.155,0.745,0.466,0.745c0.247,0,0.372-0.248,0.372-0.745
	C218.714,55.506,218.589,55.257,218.343,55.257z M220.204,67.523c0.372,0,0.775-0.328,1.209-0.991h-1.209V67.523z M220.204,86.354
	h1.209c-0.062-0.08-0.186-0.204-0.372-0.37c-0.186-0.166-0.311-0.248-0.373-0.248l-0.186-0.124c-0.062,0-0.108,0.022-0.14,0.062
	c-0.032,0.042-0.078,0.062-0.138,0.062V86.354z M221.413,56.745c0.062,0.414,0.217,0.641,0.466,0.681
	c0.247,0.042,0.465,0.062,0.651,0.062h0.838c-0.125-0.328-0.358-0.639-0.698-0.929c-0.343-0.288-0.637-0.434-0.884-0.434
	C221.537,56.124,221.413,56.332,221.413,56.745z M221.786,94.904c-0.186,0-0.28,0.246-0.28,0.743c0,0.496,0.093,0.743,0.28,0.743
	c0.247,0,0.372-0.246,0.372-0.743C222.158,95.151,222.033,94.904,221.786,94.904z M222.251,71.735l0.651-0.867v-0.124v-0.495
	L222.251,71.735z M223.368,107.788h0.465l-0.465-0.619V107.788z"/>
<path d="M242.653,42.249c0.06-1.652,0.107-3.696,0.14-6.134c0.03-2.434-0.203-4.522-0.699-6.256l0.466-16.85
	c0-0.909,0.186-1.487,0.558-1.736c0.373-0.248,0.559-0.701,0.559-1.363c0-0.577-0.126-0.885-0.373-0.929
	c-0.248-0.04-0.373-0.266-0.373-0.681c0.125-1.073,0.326-1.673,0.606-1.796c0.278-0.124,0.666-0.516,1.163-1.177
	c0.123-0.166,0.217-0.454,0.28-0.869c0.062-0.412,0.107-0.825,0.14-1.239c0.03-0.412,0.093-0.783,0.186-1.115
	c0.092-0.328,0.263-0.495,0.511-0.495c0.123,0.082,0.31,0.124,0.558,0.124c0.062,0,0.295,0.186,0.698,0.557
	c0.403,0.372,0.606,0.6,0.606,0.683c0.06,0,0.093-0.02,0.093-0.062c0-0.042,0.03-0.062,0.093-0.062c0-0.082,0.06-0.226,0.185-0.434
	c0.123-0.204,0.186-0.391,0.186-0.557c-0.125-0.082-0.388-0.288-0.791-0.62c-0.404-0.328-0.668-0.495-0.791-0.495V0
	c0.186,0,0.543,0.044,1.071,0.124c0.526,0.084,1.069,0.208,1.629,0.372c0.558,0.166,1.069,0.414,1.535,0.743
	c0.465,0.332,0.728,0.787,0.791,1.363c0.062,0.166,0.062,0.681,0,1.549c-0.063,0.867-0.093,1.383-0.093,1.548
	c0,0.332,0.155,0.496,0.466,0.496c0.372,0,0.618-0.082,0.744-0.248c0.123-0.164,0.217-0.328,0.278-0.496
	c0.062-0.164,0.14-0.328,0.233-0.495c0.093-0.164,0.233-0.206,0.419-0.124c0.185,0,0.372,0.186,0.558,0.557
	c0.186,0.372,0.34,0.827,0.465,1.363c0.125,0.538,0.233,1.097,0.326,1.673c0.093,0.579,0.14,0.991,0.14,1.239
	c-0.063,1.073-0.28,2.168-0.651,3.283c-0.373,1.115-0.591,2.25-0.653,3.407c0,0.414,0.047,0.681,0.14,0.805
	c0.093,0.124,0.217,0.248,0.373,0.372c0.154,0.124,0.293,0.268,0.418,0.433c0.123,0.168,0.186,0.414,0.186,0.745v0.495
	c-0.311,1.159-0.651,2.438-1.024,3.842c-0.372,1.405-0.589,2.684-0.651,3.84l0.28,0.124c-0.063,1.571-0.016,3.159,0.14,4.77
	c0.154,1.611,0.17,3.159,0.045,4.646c0,0.743-0.171,1.694-0.511,2.849c-0.341,1.159-0.574,2.15-0.698,2.975
	c-0.063,0.414-0.186,1.177-0.373,2.292c-0.185,1.115-0.341,1.88-0.465,2.292c-0.125-0.166-0.28-0.35-0.466-0.558
	c-0.185-0.204-0.278-0.391-0.278-0.557V45.47v-0.248c0-0.164,0.077-0.515,0.232-1.053c0.155-0.537,0.233-0.887,0.233-1.053v-0.124
	V42.62c-0.372,0.248-0.869,0.683-1.489,1.301c-0.621,0.62-0.931,1.261-0.931,1.92c0,0.58,0.077,0.993,0.233,1.239
	c0.154,0.248,0.34,0.496,0.558,0.745c0.217,0.246,0.42,0.538,0.605,0.867c0.186,0.33,0.28,0.827,0.28,1.487
	c-0.435,0-0.744-0.124-0.931-0.372s-0.341-0.515-0.465-0.805c-0.125-0.288-0.25-0.558-0.373-0.807
	c-0.125-0.246-0.311-0.412-0.558-0.495l-0.093,4.708h-0.373c-0.125,0-0.248-0.02-0.372-0.062c-0.125-0.042-0.218-0.062-0.28-0.062
	c-0.062-0.082-0.248-0.206-0.558-0.372c-0.311-0.164-0.528-0.248-0.651-0.248c-0.311,0-0.498,0.31-0.559,0.929
	c-0.062,0.62-0.248,1.013-0.558,1.177l-0.28-0.124c-0.372,0-0.651-0.577-0.838-1.734c-0.185-1.155-0.341-2.434-0.465-3.842
	c-0.125-1.403-0.233-2.703-0.326-3.902C242.978,42.972,242.838,42.331,242.653,42.249z M242.28,92.178
	c0.123-2.973,0.48-6.05,1.071-9.231c0.589-3.177,1.722-5.718,3.397-7.619c0.247-0.328,0.433-0.701,0.558-1.115
	c0.123-0.412,0.466-0.619,1.024-0.619v0.867h-0.838v0.495c0.123,0.084,0.387,0.23,0.791,0.434c0.403,0.208,0.666,0.392,0.791,0.558
	l0.373,0.37c0.185,0,0.712,0.044,1.582,0.124c0.868,0.084,1.489,0.372,1.862,0.867c0.123,0,0.185,0.208,0.185,0.62
	c0,0.414,0.032,0.662,0.093,0.743c0.186,0.414,0.34,0.641,0.466,0.683c0.123,0.042,0.232,0.02,0.325-0.062
	c0.093-0.082,0.155-0.082,0.186,0c0.03,0.082,0.108,0.414,0.233,0.991c0.06,0.166,0.093,0.703,0.093,1.61
	c0,0.911,0.03,1.571,0.093,1.982v0.248v0.248c-0.063,0.33-0.126,0.827-0.186,1.487c-0.063,0.662-0.125,1.033-0.186,1.115
	c-0.063,0.166-0.202,0.29-0.418,0.37c-0.219,0.084-0.358,0.208-0.42,0.372c-0.186,0.166-0.326,0.414-0.418,0.743
	c-0.093,0.332-0.186,0.703-0.28,1.115c-0.093,0.414-0.203,0.765-0.326,1.053c-0.125,0.292-0.372,0.434-0.744,0.434
	c-0.498-0.08-0.946-0.412-1.349-0.991c-0.404-0.577-0.977-0.867-1.722-0.867h-1.304l1.582,1.115
	c-0.372,0.827-0.683,1.591-0.929,2.292c-0.25,0.703-0.544,1.343-0.884,1.92c-0.343,0.579-0.761,1.013-1.257,1.301
	c-0.498,0.288-1.209,0.391-2.14,0.31c-0.498,0-0.838-0.496-1.024-1.487C242.374,93.665,242.28,92.84,242.28,92.178z M242.838,26.266
	c-0.185,0.082-0.265,0.29-0.232,0.619c0.03,0.332,0.14,0.456,0.325,0.372c0.186,0,0.263-0.164,0.233-0.496
	C243.133,26.432,243.025,26.266,242.838,26.266z M242.932,40.019c-0.125,0-0.185,0.228-0.185,0.681c0,0.454,0.06,0.6,0.185,0.434
	C243.18,40.804,243.18,40.433,242.932,40.019z M243.769,6.814c-0.125-0.08-0.202-0.018-0.232,0.186
	c-0.033,0.208,0.014,0.31,0.14,0.31c0.123,0,0.2-0.082,0.232-0.248C243.941,6.898,243.894,6.814,243.769,6.814z M244.98,96.762
	c0.186,0,0.28,0.186,0.28,0.558c0,0.37-0.093,0.557-0.28,0.557s-0.28-0.186-0.28-0.557C244.7,96.948,244.793,96.762,244.98,96.762z
	 M246.655,92.921c-0.373,0-0.744,0.062-1.117,0.186c-0.372,0.124-0.558,0.516-0.558,1.177h1.675V92.921z M245.724,29.115
	c-0.311-0.08-0.481,0.022-0.511,0.31c-0.033,0.29,0.107,0.476,0.418,0.558c0.123,0,0.202-0.144,0.233-0.434
	C245.894,29.261,245.848,29.115,245.724,29.115z M246.562,5.451c0.123-0.164,0.077-0.246-0.14-0.246
	c-0.218,0-0.265,0.082-0.14,0.246c0,0.084,0.047,0.124,0.14,0.124C246.515,5.575,246.562,5.535,246.562,5.451z M246.655,92.302
	c0.31-0.248,0.496-0.577,0.558-0.991h-0.465L246.655,92.302z M247.586,82.639c-0.186,0-0.28,0.166-0.28,0.495
	c0,0.332,0.093,0.496,0.28,0.496c0.247,0,0.372-0.164,0.372-0.496C247.957,82.805,247.833,82.639,247.586,82.639z M247.772,49.186
	c-0.186,0-0.28,0.168-0.28,0.496c0,0.33,0.093,0.496,0.28,0.496c0.185,0,0.278-0.166,0.278-0.496
	C248.051,49.354,247.957,49.186,247.772,49.186z M248.33,7.681c-0.186,0-0.28,0.168-0.28,0.496c0,0.33,0.093,0.496,0.28,0.496
	s0.28-0.166,0.28-0.496C248.61,7.849,248.517,7.681,248.33,7.681z M248.424,86.603h0.372l-0.372-0.495V86.603z M250.099,3.966
	c-0.621,0.166-0.931,0.538-0.931,1.115c0.62,0,0.931-0.248,0.931-0.745V3.966z M249.819,74.461c0.248,0.084,0.373,0.29,0.373,0.619
	c0,0.332-0.125,0.456-0.373,0.372c-0.186,0-0.278-0.164-0.278-0.496C249.541,74.627,249.633,74.461,249.819,74.461z M250.657,40.019
	c-0.683,0.166-1.024,0.495-1.024,0.991c0.248,0,0.496-0.02,0.746-0.062c0.247-0.04,0.372-0.226,0.372-0.558L250.657,40.019z
	 M250.379,51.416l-0.373,0.869v-0.991L250.379,51.416z M250.285,7.681c0.06,0,0.138-0.06,0.232-0.184
	c0.093-0.124,0.17-0.226,0.233-0.31V6.938l0.093-0.248L250.285,7.681z M251.03,88.833l0.372,0.124l-0.372-0.619V88.833z
	 M251.123,20.691l0.558-0.743h-0.465L251.123,20.691z M252.332,49.064c0,0.246-0.125,0.206-0.372-0.124
	c-0.063-0.166,0.014-0.226,0.232-0.186C252.409,48.795,252.455,48.897,252.332,49.064z M252.705,17.594
	c0.123,0,0.217-0.124,0.278-0.372s0.093-0.453,0.093-0.62c0.125-0.495,0.14-0.805,0.047-0.929c-0.093-0.124-0.265-0.226-0.511-0.308
	c-0.063,0-0.11,0.02-0.14,0.062c-0.032,0.042-0.078,0.06-0.14,0.06h-0.093L252.705,17.594z M252.705,19.204v-0.495l-0.28-0.124
	L252.705,19.204z M252.612,37.665h0.465l-0.465-0.496V37.665z M253.543,19.576c0-0.082-0.078-0.124-0.233-0.124
	c-0.155,0-0.233,0.042-0.233,0.124C253.263,19.99,253.418,19.99,253.543,19.576z M254.007,1.487v0.124
	c-0.125,0.495-0.278,0.662-0.465,0.495h-0.093h-0.28l0.838-0.991V1.487z M254.287,3.221c-0.063,0.168-0.14,0.27-0.233,0.31
	c-0.093,0.042-0.14-0.018-0.14-0.186c-0.062-0.164,0.015-0.266,0.233-0.308C254.364,2.995,254.41,3.057,254.287,3.221z"/>
<path d="M265.435,42.249c0.06-1.652,0.107-3.696,0.14-6.134c0.03-2.434-0.203-4.522-0.699-6.256l0.466-16.85
	c0-0.909,0.186-1.487,0.558-1.736c0.373-0.248,0.559-0.701,0.559-1.363c0-0.577-0.126-0.885-0.373-0.929
	c-0.248-0.04-0.373-0.266-0.373-0.681c0.125-1.073,0.326-1.673,0.606-1.796c0.278-0.124,0.666-0.516,1.163-1.177
	c0.123-0.166,0.217-0.454,0.28-0.869c0.062-0.412,0.107-0.825,0.14-1.239c0.03-0.412,0.093-0.783,0.186-1.115
	c0.092-0.328,0.263-0.495,0.511-0.495c0.123,0.082,0.31,0.124,0.558,0.124c0.062,0,0.295,0.186,0.698,0.557
	c0.403,0.372,0.606,0.6,0.606,0.683c0.06,0,0.093-0.02,0.093-0.062c0-0.042,0.03-0.062,0.093-0.062c0-0.082,0.06-0.226,0.185-0.434
	c0.123-0.204,0.186-0.391,0.186-0.557c-0.125-0.082-0.388-0.288-0.791-0.62c-0.404-0.328-0.668-0.495-0.791-0.495V0
	c0.186,0,0.543,0.044,1.071,0.124c0.526,0.084,1.069,0.208,1.629,0.372c0.558,0.166,1.069,0.414,1.535,0.743
	c0.465,0.332,0.728,0.787,0.791,1.363c0.062,0.166,0.062,0.681,0,1.549c-0.063,0.867-0.093,1.383-0.093,1.548
	c0,0.332,0.155,0.496,0.466,0.496c0.372,0,0.618-0.082,0.744-0.248c0.123-0.164,0.217-0.328,0.278-0.496
	c0.062-0.164,0.14-0.328,0.233-0.495c0.093-0.164,0.233-0.206,0.419-0.124c0.185,0,0.372,0.186,0.558,0.557
	c0.186,0.372,0.34,0.827,0.465,1.363c0.125,0.538,0.233,1.097,0.326,1.673c0.093,0.579,0.14,0.991,0.14,1.239
	c-0.063,1.073-0.28,2.168-0.651,3.283c-0.373,1.115-0.591,2.25-0.653,3.407c0,0.414,0.047,0.681,0.14,0.805
	c0.093,0.124,0.217,0.248,0.373,0.372c0.154,0.124,0.293,0.268,0.418,0.433c0.123,0.168,0.186,0.414,0.186,0.745v0.495
	c-0.311,1.159-0.651,2.438-1.024,3.842c-0.372,1.405-0.589,2.684-0.651,3.84l0.28,0.124c-0.063,1.571-0.016,3.159,0.14,4.77
	c0.154,1.611,0.17,3.159,0.045,4.646c0,0.743-0.171,1.694-0.511,2.849c-0.341,1.159-0.574,2.15-0.698,2.975
	c-0.063,0.414-0.186,1.177-0.373,2.292c-0.185,1.115-0.341,1.88-0.465,2.292c-0.125-0.166-0.28-0.35-0.466-0.558
	c-0.185-0.204-0.278-0.391-0.278-0.557V45.47v-0.248c0-0.164,0.077-0.515,0.232-1.053c0.155-0.537,0.233-0.887,0.233-1.053v-0.124
	V42.62c-0.372,0.248-0.869,0.683-1.489,1.301c-0.621,0.62-0.931,1.261-0.931,1.92c0,0.58,0.077,0.993,0.233,1.239
	c0.154,0.248,0.34,0.496,0.558,0.745c0.217,0.246,0.419,0.538,0.605,0.867c0.186,0.33,0.28,0.827,0.28,1.487
	c-0.435,0-0.744-0.124-0.931-0.372c-0.186-0.248-0.341-0.515-0.465-0.805c-0.125-0.288-0.25-0.558-0.373-0.807
	c-0.125-0.246-0.311-0.412-0.558-0.495l-0.093,4.708h-0.373c-0.125,0-0.248-0.02-0.372-0.062c-0.125-0.042-0.218-0.062-0.28-0.062
	c-0.062-0.082-0.248-0.206-0.558-0.372c-0.311-0.164-0.528-0.248-0.651-0.248c-0.311,0-0.498,0.31-0.559,0.929
	c-0.062,0.62-0.248,1.013-0.558,1.177l-0.28-0.124c-0.372,0-0.651-0.577-0.838-1.734c-0.185-1.155-0.341-2.434-0.465-3.842
	c-0.125-1.403-0.233-2.703-0.326-3.902C265.76,42.972,265.621,42.331,265.435,42.249z M265.063,92.178
	c0.123-2.973,0.48-6.05,1.071-9.231c0.589-3.177,1.722-5.718,3.397-7.619c0.247-0.328,0.433-0.701,0.558-1.115
	c0.123-0.412,0.466-0.619,1.024-0.619v0.867h-0.838v0.495c0.123,0.084,0.387,0.23,0.791,0.434c0.403,0.208,0.666,0.392,0.791,0.558
	l0.373,0.37c0.185,0,0.711,0.044,1.582,0.124c0.868,0.084,1.489,0.372,1.862,0.867c0.123,0,0.185,0.208,0.185,0.62
	c0,0.414,0.032,0.662,0.093,0.743c0.186,0.414,0.34,0.641,0.466,0.683c0.123,0.042,0.232,0.02,0.325-0.062
	c0.093-0.082,0.155-0.082,0.186,0c0.03,0.082,0.108,0.414,0.233,0.991c0.06,0.166,0.093,0.703,0.093,1.61
	c0,0.911,0.03,1.571,0.093,1.982v0.248v0.248c-0.063,0.33-0.126,0.827-0.186,1.487c-0.063,0.662-0.125,1.033-0.186,1.115
	c-0.063,0.166-0.202,0.29-0.418,0.37c-0.219,0.084-0.358,0.208-0.419,0.372c-0.186,0.166-0.326,0.414-0.418,0.743
	c-0.093,0.332-0.186,0.703-0.28,1.115c-0.093,0.414-0.203,0.765-0.326,1.053c-0.125,0.292-0.372,0.434-0.744,0.434
	c-0.498-0.08-0.946-0.412-1.349-0.991c-0.404-0.577-0.977-0.867-1.722-0.867h-1.304l1.582,1.115
	c-0.372,0.827-0.683,1.591-0.929,2.292c-0.25,0.703-0.544,1.343-0.884,1.92c-0.343,0.579-0.761,1.013-1.257,1.301
	c-0.498,0.288-1.209,0.391-2.14,0.31c-0.498,0-0.838-0.496-1.024-1.487C265.156,93.665,265.063,92.84,265.063,92.178z
	 M265.621,26.266c-0.185,0.082-0.265,0.29-0.232,0.619c0.03,0.332,0.14,0.456,0.325,0.372c0.186,0,0.263-0.164,0.233-0.496
	C265.915,26.432,265.807,26.266,265.621,26.266z M265.714,40.019c-0.125,0-0.185,0.228-0.185,0.681c0,0.454,0.06,0.6,0.185,0.434
	C265.962,40.804,265.962,40.433,265.714,40.019z M266.551,6.814c-0.125-0.08-0.202-0.018-0.232,0.186
	c-0.033,0.208,0.014,0.31,0.14,0.31c0.123,0,0.2-0.082,0.232-0.248C266.723,6.898,266.676,6.814,266.551,6.814z M267.762,96.762
	c0.186,0,0.28,0.186,0.28,0.558c0,0.37-0.093,0.557-0.28,0.557c-0.186,0-0.28-0.186-0.28-0.557
	C267.482,96.948,267.575,96.762,267.762,96.762z M269.437,92.921c-0.373,0-0.744,0.062-1.117,0.186
	c-0.372,0.124-0.558,0.516-0.558,1.177h1.675V92.921z M268.506,29.115c-0.311-0.08-0.481,0.022-0.511,0.31
	c-0.033,0.29,0.107,0.476,0.418,0.558c0.123,0,0.202-0.144,0.233-0.434C268.676,29.261,268.63,29.115,268.506,29.115z
	 M269.344,5.451c0.123-0.164,0.077-0.246-0.14-0.246c-0.218,0-0.265,0.082-0.14,0.246c0,0.084,0.047,0.124,0.14,0.124
	C269.297,5.575,269.344,5.535,269.344,5.451z M269.437,92.302c0.31-0.248,0.496-0.577,0.558-0.991h-0.465L269.437,92.302z
	 M270.368,82.639c-0.186,0-0.28,0.166-0.28,0.495c0,0.332,0.093,0.496,0.28,0.496c0.247,0,0.372-0.164,0.372-0.496
	C270.74,82.805,270.615,82.639,270.368,82.639z M270.554,49.186c-0.186,0-0.28,0.168-0.28,0.496c0,0.33,0.093,0.496,0.28,0.496
	c0.185,0,0.278-0.166,0.278-0.496C270.833,49.354,270.74,49.186,270.554,49.186z M271.112,7.681c-0.186,0-0.28,0.168-0.28,0.496
	c0,0.33,0.093,0.496,0.28,0.496c0.186,0,0.28-0.166,0.28-0.496C271.392,7.849,271.299,7.681,271.112,7.681z M271.206,86.603h0.372
	l-0.372-0.495V86.603z M272.881,3.966c-0.621,0.166-0.931,0.538-0.931,1.115c0.62,0,0.931-0.248,0.931-0.745V3.966z M272.601,74.461
	c0.248,0.084,0.373,0.29,0.373,0.619c0,0.332-0.125,0.456-0.373,0.372c-0.186,0-0.278-0.164-0.278-0.496
	C272.323,74.627,272.415,74.461,272.601,74.461z M273.439,40.019c-0.683,0.166-1.024,0.495-1.024,0.991
	c0.248,0,0.496-0.02,0.746-0.062c0.247-0.04,0.372-0.226,0.372-0.558L273.439,40.019z M273.161,51.416l-0.373,0.869v-0.991
	L273.161,51.416z M273.067,7.681c0.06,0,0.138-0.06,0.232-0.184c0.093-0.124,0.17-0.226,0.233-0.31V6.938l0.093-0.248L273.067,7.681
	z M273.812,88.833l0.372,0.124l-0.372-0.619V88.833z M273.905,20.691l0.558-0.743h-0.465L273.905,20.691z M275.114,49.064
	c0,0.246-0.125,0.206-0.372-0.124c-0.063-0.166,0.014-0.226,0.232-0.186C275.191,48.795,275.238,48.897,275.114,49.064z
	 M275.487,17.594c0.123,0,0.217-0.124,0.278-0.372c0.062-0.248,0.093-0.453,0.093-0.62c0.125-0.495,0.14-0.805,0.047-0.929
	c-0.093-0.124-0.265-0.226-0.511-0.308c-0.063,0-0.11,0.02-0.14,0.062c-0.032,0.042-0.078,0.06-0.14,0.06h-0.093L275.487,17.594z
	 M275.487,19.204v-0.495l-0.28-0.124L275.487,19.204z M275.394,37.665h0.465l-0.465-0.496V37.665z M276.325,19.576
	c0-0.082-0.078-0.124-0.233-0.124c-0.155,0-0.233,0.042-0.233,0.124C276.045,19.99,276.2,19.99,276.325,19.576z M276.789,1.487
	v0.124c-0.125,0.495-0.278,0.662-0.465,0.495h-0.093h-0.28l0.838-0.991V1.487z M277.069,3.221c-0.063,0.168-0.14,0.27-0.233,0.31
	c-0.093,0.042-0.14-0.018-0.14-0.186c-0.062-0.164,0.015-0.266,0.233-0.308C277.146,2.995,277.193,3.057,277.069,3.221z"/>
</svg>