<!-- Generator: Adobe Illustrator 24.3.0, SVG Export Plug-In  -->
<svg version="1.1" xmlns="http://www.w3.org/2000/svg" xmlns:xlink="http://www.w3.org/1999/xlink" x="0px" y="0px"
	 width="1155.289px" height="167.976px" viewBox="0 0 1155.289 167.976"
	 style="overflow:visible;enable-background:new 0 0 1155.289 167.976;" xml:space="preserve">
<style type="text/css">
	.st0{fill:#FFFFFF;}
	.st1{fill:#231815;}
</style>
<defs>
</defs>
<g>
	<rect x="0.015" y="0.109" class="st0" width="1155.259" height="167.759"/>
	<g>
		<path class="st1" d="M36.579,144.556L36.557,25.077l22.132-0.004l0.009,47.025l43.368-0.009l-0.009-47.025l22.132-0.004
			l0.022,119.479l-22.132,0.004l-0.01-52.242L58.701,92.31l0.01,52.242L36.579,144.556z"/>
		<path class="st1" d="M142.594,85.528c-0.002-12.17,1.666-22.384,5.004-30.645c2.491-6.085,5.893-11.546,10.204-16.383
			c4.31-4.836,9.032-8.423,14.167-10.761c6.827-3.152,14.703-4.73,23.627-4.731c16.15-0.003,29.074,5.455,38.771,16.374
			c9.696,10.919,14.548,26.105,14.552,45.556c0.004,19.289-4.804,34.381-14.422,45.276c-9.619,10.896-22.479,16.345-38.579,16.348
			c-16.3,0.003-29.263-5.414-38.884-16.251C147.411,119.472,142.598,104.546,142.594,85.528z M165.4,84.709
			c0.002,13.529,2.87,23.785,8.604,30.765c5.732,6.981,13.013,10.47,21.835,10.468c8.823-0.001,16.062-3.467,21.72-10.395
			c5.656-6.929,8.482-17.321,8.48-31.176c-0.003-13.692-2.76-23.906-8.268-30.643c-5.51-6.735-12.826-10.103-21.948-10.102
			c-9.122,0.002-16.474,3.414-22.056,10.233C168.186,60.68,165.397,70.964,165.4,84.709z"/>
		<path class="st1" d="M290.877,144.505l-0.019-99.267l-32.525,0.006l-0.004-20.212l87.108-0.018l0.004,20.212l-32.45,0.006
			l0.019,99.267L290.877,144.505z"/>
		<path class="st1" d="M402.19,25.004l40.451-0.008c9.122-0.001,16.076,0.758,20.862,2.278c6.431,2.064,11.938,5.73,16.526,10.999
			c4.587,5.27,8.077,11.722,10.472,19.354c2.394,7.634,3.592,17.046,3.594,28.239c0.002,9.835-1.117,18.312-3.359,25.429
			c-2.74,8.694-6.651,15.73-11.735,21.111c-3.838,4.076-9.021,7.255-15.551,9.539c-4.886,1.686-11.415,2.529-19.59,2.53
			l-41.647,0.008L402.19,25.004z M424.325,45.211l0.016,79.137l16.524-0.003c6.181-0.001,10.643-0.382,13.384-1.144
			c3.589-0.979,6.566-2.636,8.934-4.974c2.367-2.336,4.299-6.181,5.793-11.533c1.495-5.352,2.241-12.646,2.239-21.883
			c-0.002-9.236-0.75-16.327-2.247-21.271c-1.496-4.943-3.591-8.801-6.283-11.572s-6.107-4.644-10.245-5.622
			c-3.091-0.759-9.147-1.139-18.169-1.137L424.325,45.211z"/>
		<path class="st1" d="M508.376,85.455c-0.002-12.17,1.666-22.384,5.004-30.645c2.491-6.085,5.893-11.546,10.204-16.383
			c4.31-4.836,9.032-8.423,14.167-10.761c6.827-3.152,14.703-4.73,23.627-4.731c16.15-0.003,29.074,5.455,38.771,16.374
			c9.696,10.919,14.548,26.105,14.552,45.556c0.004,19.289-4.804,34.381-14.422,45.276c-9.619,10.896-22.479,16.345-38.579,16.349
			c-16.3,0.003-29.263-5.414-38.884-16.251C513.194,119.399,508.38,104.473,508.376,85.455z M531.182,84.636
			c0.002,13.529,2.87,23.785,8.604,30.765c5.732,6.98,13.013,10.47,21.835,10.468c8.823-0.002,16.062-3.467,21.72-10.396
			c5.656-6.929,8.482-17.321,8.48-31.176c-0.003-13.692-2.76-23.906-8.268-30.642c-5.51-6.736-12.826-10.104-21.948-10.102
			c-9.122,0.001-16.474,3.413-22.056,10.232C533.968,60.607,531.179,70.89,531.182,84.636z"/>
		<path class="st1" d="M682.971,100.498l-0.004-20.13l47.704-0.01l0.009,47.596c-4.635,4.891-11.352,9.199-20.147,12.922
			c-8.798,3.723-17.708,5.586-26.729,5.588c-11.466,0.002-21.461-2.617-29.985-7.859c-8.525-5.241-14.932-12.738-19.221-22.49
			c-4.289-9.751-6.435-20.36-6.437-31.825c-0.003-12.441,2.389-23.5,7.172-33.172c4.783-9.671,11.785-17.089,21.007-22.253
			c7.027-3.967,15.775-5.953,26.244-5.955c13.608-0.002,24.237,3.106,31.892,9.325c7.652,6.221,12.576,14.818,14.772,25.792
			l-21.982,4.487c-1.547-5.868-4.45-10.499-8.714-13.894c-4.263-3.395-9.584-5.092-15.964-5.091
			c-9.672,0.002-17.359,3.345-23.065,10.029c-5.707,6.684-8.559,16.601-8.556,29.749c0.002,14.181,2.895,24.816,8.68,31.906
			c5.782,7.089,13.36,10.633,22.732,10.631c4.636-0.001,9.283-0.993,13.943-2.978c4.661-1.983,8.66-4.389,12-7.215l-0.003-15.159
			L682.971,100.498z"/>
		<path class="st1" d="M793.341,144.405l-0.022-119.479l33.124-0.007l19.904,81.496l19.649-81.504l33.199-0.007l0.022,119.479
			l-20.562,0.004l-0.018-94.051l-21.741,94.056l-21.31,0.004l-21.701-94.047l0.018,94.051L793.341,144.405z"/>
		<path class="st1" d="M1020.049,144.359l-24.077,0.005l-9.575-27.138l-43.816,0.009l-9.042,27.141l-23.479,0.005l42.672-119.488
			l23.403-0.004L1020.049,144.359z M979.289,97.098l-15.111-44.333l-14.797,44.339L979.289,97.098z"/>
		<path class="st1" d="M1032.012,144.357l-0.022-119.479l21.534-0.004l44.879,79.78l-0.016-79.789l20.562-0.004l0.022,119.479
			l-22.207,0.004l-44.204-77.905l0.015,77.914L1032.012,144.357z"/>
	</g>
</g>
</svg>