<!-- Generator: Adobe Illustrator 24.3.0, SVG Export Plug-In  -->
<svg version="1.1" xmlns="http://www.w3.org/2000/svg" xmlns:xlink="http://www.w3.org/1999/xlink" x="0px" y="0px"
	 width="166.075px" height="153.681px" viewBox="0 0 166.075 153.681"
	 style="overflow:visible;enable-background:new 0 0 166.075 153.681;" xml:space="preserve">
<style type="text/css">
	.st0{fill:#FF0000;}
	.st1{fill:#FF2020;}
</style>
<defs>
</defs>
<g>
	<g>
		<line class="st0" x1="3.637" y1="3.943" x2="162.637" y2="124.943"/>
		<g>
			<g>
				<g>
					<g>
						<path class="st1" d="M160.219,128.121c0.396-0.347,1.058-1.315,0.688-1.307l-1.367,1.456L160.219,128.121z"/>
						<path class="st1" d="M160.895,124.012c-0.854,0.56-2.192,1.668-3.12,3.253c1.425-1.315,1.007-0.631,2.672-2.219
							c0.371-0.009,0.017,0.814-0.465,1.365c0.39-0.343,0.094,0.62,0.974-0.278c0.63-1.451,0.287-1.79-0.878-1.083
							C160.257,124.639,160.654,124.289,160.895,124.012z"/>
						<path class="st1" d="M140.222,104.389l0.002,0.298C140.264,104.553,140.258,104.458,140.222,104.389z"/>
						<path class="st1" d="M126.911,92.89c0.136,0.042,0.299-0.08,0.413-0.219C127.147,92.699,126.992,92.734,126.911,92.89z"/>
						<path class="st1" d="M125.851,89.333c0.013,0.089,0.039,0.144,0.059,0.214C125.968,89.361,125.975,89.239,125.851,89.333z"/>
						<path class="st1" d="M140.222,104.389l0.005-0.781C139.809,104.104,140.127,104.136,140.222,104.389z"/>
						<path class="st1" d="M154.885,125.458c0.137-0.018,0.314-0.115,0.519-0.261c-0.116,0.019-0.221,0.029-0.318,0.022
							C155.017,125.303,154.958,125.374,154.885,125.458z"/>
						<path class="st1" d="M147.356,107.795l0.115,0.084c0.17-0.154,0.367-0.348,0.583-0.571L147.356,107.795z"/>
						<path class="st1" d="M152.267,111.149c-0.063-0.14-1.121,1.174-1.608,1.729c0.481-0.506,0.76-0.71,0.933-0.742
							C151.788,111.882,152.006,111.566,152.267,111.149z"/>
						<path class="st1" d="M157.964,119.214l0.275-0.085C158.16,119.161,158.061,119.17,157.964,119.214z"/>
						<path class="st1" d="M144.194,104.93c0.144-0.205,0.26-0.393,0.322-0.513C144.387,104.586,144.283,104.759,144.194,104.93z"/>
						<path class="st1" d="M4.321,14.413c0.076-0.093,0.117-0.157,0.181-0.239C4.372,14.288,4.291,14.377,4.321,14.413z"/>
						<path class="st1" d="M3.901,3.596l0.131-0.014c0.201-0.248,0.4-0.491,0.589-0.74L3.901,3.596z"/>
						<path class="st1" d="M122.795,84.292c-0.003,0.022,0,0.024,0,0.041C123.025,84.267,122.94,84.244,122.795,84.292z"/>
						<path class="st1" d="M81.967,54.784c-0.459,1.545-1.911,0.979-2.241,2.83C80.061,57.042,81.939,55.995,81.967,54.784z"/>
						<path class="st1" d="M154.896,125.189c-0.075-0.033-0.149-0.071-0.204-0.134C154.747,125.166,154.811,125.205,154.896,125.189
							z"/>
						<path class="st1" d="M79.726,57.614c-0.005,0.006-0.009,0.012-0.009,0.012l-0.025,0.18
							C79.704,57.729,79.715,57.68,79.726,57.614z"/>
						<path class="st1" d="M112.122,77.444c-0.159,0.252-0.256,0.462-0.344,0.665C111.879,77.969,111.984,77.784,112.122,77.444z"/>
						<path class="st1" d="M118.162,85.056l-0.049-0.321C118.094,84.913,118.122,85.001,118.162,85.056z"/>
						<path class="st1" d="M106.79,76.377c-0.023-0.179,0.084-0.391-0.19-0.316c-0.04,0.078-0.063,0.136-0.083,0.196
							C106.707,76.111,106.838,76.077,106.79,76.377z"/>
						<path class="st1" d="M102.735,73.304c-0.057,0.119-0.087,0.217-0.131,0.327c0.06,0.004,0.124,0.017,0.183,0.026
							L102.735,73.304z"/>
						<path class="st1" d="M17.119,23.132c0.199-0.445,0.46-0.904,0.731-1.349C17.187,22.786,16.333,22.673,17.119,23.132z"/>
						<path class="st1" d="M155.457,124.702c-0.282,0.321-0.443,0.462-0.56,0.487c0.058,0.02,0.123,0.027,0.19,0.03
							C155.25,125.029,155.396,124.842,155.457,124.702z"/>
						<path class="st1" d="M98.568,86.84l-0.493-0.688C98.157,86.419,98.339,86.665,98.568,86.84z"/>
						<path class="st1" d="M46.316,45.049l-0.27,0.048C46.08,45.172,46.162,45.173,46.316,45.049z"/>
						<path class="st1" d="M96.016,84.897c0.245-0.561,0.333-0.928,0.344-1.203c-0.106,0.084-0.202,0.147-0.338,0.289L96.016,84.897
							z"/>
						<path class="st1" d="M17.86,21.768c-0.003,0.007-0.01,0.015-0.01,0.015S17.857,21.776,17.86,21.768z"/>
						<path class="st1" d="M11.196,21.732c0.584,0.505,1.602-1.507,2.503-2.422c1.112,0.057-0.65,1.557-1.087,2.648
							c0.812-0.119,2.394-1.471,2.683-1.143c-0.195,0.31-0.21,0.466-0.564,0.771c1.55-1.035,1.486,1.022,3.389-0.311
							c-0.077,0.188-0.169,0.352-0.259,0.493c0.581-0.953,1.25-1.861,1.755-2.486c0.298,0.179,1.358-0.726,0.584,0.506
							c-0.143-0.162-0.511,0.292-0.863,0.592l0.669-0.282c-1.002,1.855-0.83,0.275-1.764,1.502c0.972-0.112,2.67-0.986,2.744-0.19
							c-1.144,1.69-1.422-0.22-1.945,1.659l-0.194-1.127c-1.438,2.946-0.269-0.486-1.884,2.607c0.519,1.137,1.609-0.081,2.123,1.058
							c0.882-0.751,0.95-1.383,1.832-2.134c2.474-0.674-2.125,4.822,0.432,3.357c1.059-0.901,2.712-2.882,2.536-1.302l-1.617,1.665
							c0.711,0.826,2.49-2.267,2.44-0.358c-0.706,0.6-1.129,0.1-1.167,0.416c-0.526,1.886,1.198-0.73,1.641-0.393l-1.144,1.694
							c1.098,0.432,2.985,0.016,4.21,0.481c-0.423,0.441-0.981,0.818-1.125,1.493c1.879,0.149,2.542,2.247,3.026,4.136l1.531-1.047
							c0.096,0.098-0.281,0.786-0.605,0.968c0.07,0.892,0.701-0.87,1.348-1.247c0.344,0.107-0.257,1.077-0.748,1.367
							c1.741-0.551,4.332-0.746,4.071,1.427l-0.489,0.286c0.254,1.091,2.961-2.283,2.603-0.491l-0.311,0.155
							c1.028,1.741,3.651,1.711,3.178,4.692c1.752-1.854,0.79,2.022,3.028-0.72c-0.211,2.043-0.837,2.36-0.353,4.21
							c0.221,0.373,1.815-1.395,2.434-1.388l-1.111,1.479l1.712-1.135l-1.053,1.977l0.659-0.095c-0.082-0.199,0.189-0.9,0.534-1.307
							c1.086-0.224,0.632,2.101,0.073,2.866l2.319-0.201c-0.481,0.569-0.865,0.597-1.334,0.837c1.875-0.944-1.047,1.652,0.672,0.786
							c0.164-0.402,0.716-0.84,0.957-1.125c-0.342,1.144,0.413,1.731,1.261,1.785l-0.881,0.933c0.821,1.032,2.515,1.145,3.643,2.032
							c-0.049-0.785,1.383-2.471,1.846-2.385l-1.048,1.655c0.946-0.795,0.096-0.851,1.435-1.69c0.29,0.504-1.059,1.987-1.689,2.306
							l0.929-0.145c-0.323,0.488-0.631,0.641-1.114,1.209c0.948-0.805-0.293,2.242,1.291,0.798l-0.323,0.485
							c1.131,0.881,2.056,0.74,3.045,1.37c1.04-1.329,1.177-0.754,2.28-1.629c0.358,0.948,0.313,2.58,1.222,3.093
							c1.087-0.228,1.034-1.008,1.901-1.608c-0.887,1.254,0.022,1.766-1.073,2.319c1.139,0.554,1.447,0.718,3.452,0.676
							c0.247-0.605,0.259-0.938,0.656-1.296c0.38-0.029,0.126,0.905-0.354,1.468l-0.155,0.08c2.797-0.765,0.523,6.03,3.58,4.33
							l-0.159,0.078l2.169-0.447c0.372,0.617-1.019,0.676-1.201,1.733c2.802-1.089,1.748,1.799,3.812,1.222
							c-1.949,4.214,3.019,1.897,2.342,5.018l0.585-0.897c0.912-0.622-0.034,0.742,0.023,1.092c0.473-0.682,0.28-0.993,0.804-1.323
							c3.133,0.767,3.913,4.938,5.742,7.541c0.709,0.899,3.846-4.014,3.415-1.14l-1.516,1.337c3.222-0.539,3.592,2.837,6.557,2.558
							c-0.381,0.285-0.744,0.756-0.91,0.62c-0.504,1.426,1.319,1.092,2.038,0.161c0.19,0.314-0.581,0.894-0.776,1.497
							c-0.145,0.957,2.04-0.757,1.369,0.532c-0.108,0.212-0.387,0.293-0.522,0.33c0.663-0.372,1.014,0.995,1.79-0.503
							c0.174,1.129,1.7,0.364,1.625,1.545c1.465-1.219,0.578,1.564,2.278-0.444c-1.691,2.124-0.179,2.615,1.008,1.914
							c-0.635,0.547-0.155,0.95-1.005,1.731c0.495,0.329,1.233,0.257,1.995-0.915c-1.097,3.246,3.331-0.749,1.301,2.935
							c2.286-0.093,4.181,0.109,5.829,0.562c-1.685,2.12-1.558-0.846-3.225,1.456c1.872,0.024,3.969-1.3,4.761,0.124
							c0.084,0.528-0.885,0.801-1.269,1.09c1.871,0.023,2.163,1.955,4.119,1.592c-0.156,0.198-0.437,0.33-0.671,0.412
							c0.264,0.089,0.249,0.685,0.968-0.309l-0.406,0.109c0.747-1.676,3.091-2.334,3.7-3.056c-2.491,2.535,0.514,1.505-2.749,4.62
							c0.279-0.08,0.805-0.412,1.272-1.092c0.059,0.347-0.167,0.779-0.942,1.366c1.157,0.039,1.682-1.205,2.346-0.665
							c-0.364,0.473-0.64,0.551-1.135,1.055c1.048-0.662,2.098-1.323,2.367-0.484c-0.252,0.259-0.468,0.682-0.634,0.544
							c1.097,0.608,3.556-1.18,3.96,0.538c-1.886,1.816-0.147,0.958-1.446,2.784l0.987-0.088l0.425-1.043
							c0.487,0.419,1.926-0.537,1.921,0.381l-0.938,0.446l1.214,0.39l-0.027-1.088c1.216-0.526,1.661-2.298,1.963-1.284
							c-0.275,0.074,0.494,0.411-0.04,1.663c0,0-0.002-0.001-0.005,0.003c0.685-0.375,1.4-0.776,1.44-0.046
							c-0.336,0.645-1.579,1.911-1.804,2.34c1.383-1.3,1.51,0.496,3.033-0.851c-0.389,0.293-1.107,1.225-1.217,1.441l1.13-1.051
							c-0.058,0.567-0.167,0.781-0.772,1.498c0.543,0.763,1.495-2.433,1.597-0.816c-0.141,0.047-0.246,0.252-0.525,0.331
							c0.461,1.153,2.222,0.478,2.548,1.667c-1.135,1.969-1.015-0.079-1.903,1.635c1.371,0.529,3.962-0.381,4.727,0.869
							l-0.052-0.352c2.078-2.417-0.142,1.866,1.316,1.091c-0.278,0.086-1.246,1.272-0.995,1.017c0.435,0.973,1.996,0.536,3.73,0.596
							l-0.636,0.545c-0.003,0.914,0.9,1.214,1.149,1.87c0.635-0.542,0.826-0.231,1.381-1.302c-1.358,4.816,4.298,0.135,3.246,4.207
							c-0.16-0.111-0.803,0.288-0.679,0.382l1.558,0.243c0.752-1.169,0.364-0.778,0.785-1.814c0.638-0.548,1.335-0.818,1.609-0.609
							c-1.053,0.353-1.344,1.775-1.598,2.554c0.221-0.365,0.579-0.682,0.822-1.04c-0.917,2.402,1.786-2.146,1.567-0.225
							l-0.482,0.547c0.52-0.072,1.374-0.631,1.566-0.223c-0.839,1.377-0.767,0.357-1.586,1.392c0.502,0.266,2.721-1.748,2.157-0.168
							c-0.46,0.211-0.737,0.01-1.196,0.219c-0.7,1.833-0.36,1.491-0.214,1.978l-0.006-0.058l0.239,1.254l0.116-0.552
							c3.091-2.903,1.6,0.257,4.012-1.35c-2.301,1.507-1.029,1.102-2.186,2.505c-0.113,0.547-0.164,1.22-0.556,1.563
							c1.244-0.896-0.105,1.37,1.694,0.047c-0.33,0.481,0.346,0.335-0.624,1.443c0.741-0.014,0.507-0.893,0.991-1.448
							c1.924-1.049,0.207,3.204,2.894,1.801c1.567-0.224,2.926-1.671,4.341-1.828c-0.29,0.956-1.517,1.523-1.517,1.523
							c-0.075,1.026,0.357,1.155,1.183,0.943c-0.394,0.341-0.568,0.752-0.837,1.372c0.43,0.136,1.516-1.523,1.439-0.497
							c-0.471,0.46-1.202,1.217-1.761,1.614c0.724-0.126,1.779-0.696,2.511-0.802c-0.508,0.894-1.185,1.042-1.733,1.46
							c0.741-0.012,1.759,0.179,2.879-0.997l0.052-0.684c0.217,0.065-0.753,1.169-1.055,1.309c-1.163,0.705-0.234-0.88,0.1-1.366
							l0.521-0.075c1.777-2.96-1.512-0.459-1.982-1.067l1.758-1.799l-1.86,1.187c0.264-0.615,1.021-1.792,1.538-1.866
							c0.323-1.303-0.912,0.421-0.443-0.95c0.09-0.201,0.18-0.283,0.277-0.333l-0.864,0.276c0.399-0.356,0.998-1.455,1.034-0.974
							c0.129-1.711-2.331,0.578-1.466-1.14l0.155-0.075c-1.541-0.113-1.21,1.383-3.285,2.505l2.217-3.993l-1.211,1.381
							c-0.066-0.133-0.193-0.403,0.289-0.956c-1.155,0.697-0.415,0.685-1.362,1.453c0.499-1.717-1.884-0.453-0.231-2.864
							c-1.027,0.969-0.162,1.228-1.294,1.583c1.745-2.617-0.957-0.053-0.553-1.555c1.125-1.18,1.048-0.16,1.456-1.668
							c-1.941,1.965-0.548-1.169-1.26-1.052c-1.339,1.721-1.408,0.07-2.509,0.145c0.484-0.55-0.521-1.9-0.659-2.995l0.24-0.277
							c-1.453,1.663-1.837,0.848-2.575,0.86c0.818-1.038,1.215-1.387,1.823-1.666l-0.441-0.323c-0.53,0.484-0.891,0.677-1.326,0.663
							l1.106-1.227c-0.633-0.368-2.339,0.657-2.418-0.785c-0.972,1.191-1.998,3.854-3.407,4.072c0.474-0.683,1.305-1.836,1.717-1.95
							c-0.132,0.034-0.658,0.366-0.58-0.02l1.161-0.873c0.033-0.746-0.884,0.794-1.077,0.484c0.723-0.939,0.311-0.825,0.92-1.544
							c0.139-0.039-0.06,0.57,0.325,0.278c-0.177-0.401-0.121-1.242,0.3-2.048c-0.381,0.556-0.966,1.27-1.283,1.221
							c-0.631-0.371,0.665-1.285,0.696-2.026c-0.638,0.547-0.491-0.412-1.573,0.99c-0.164-0.136,0.305-0.817,0.531-1.25
							c-0.773,0.395-1.534-0.886-2.338,0.87l0.002,0.157c-0.037,0.018-0.055,0.007-0.096,0.024c0.002,0.002,0,0,0.002,0.002
							l-0.002-0.002c-2.048,0.655-1.431-2.35-2.863-2.488l0.36-0.47c-0.991,0.096-1.536-0.666-2.723,0.032
							c-0.171-0.132,0.25-1.171,0.75-1.675c-0.714,0.016-1.167,0.508-1.217-0.758c1.073-0.483,0.401-0.847,0.916-0.254
							c-0.268-0.846,0.176-1.701-1.424-0.885c1.13-1.047,0.722-1.851,0.174-1.7l-0.254,1.173c-0.443-0.059-0.631-0.371-0.827-0.683
							l1.357-1.476c0.289-2.832-4.633,1.667-3.07-2.252c-1.158,0.873,0.046,1.27-1.222,2.357c-0.38-0.628,0.789-3.339,0.622-3.473
							c-0.075-1.446-2.461,1.792-2.782,0.598c-0.331,0.641-1.388,2.226-2.376,2.317c-0.384-0.623,1.14-2.885,1.83-3.079
							c0.167,0.052,0.093,0.279-0.059,0.467c0.333-0.073,0.748-0.14,1-0.918l-0.502,0.513c0.17-0.783-0.624-1.292,0.26-2.089
							c-0.823,0.228-0.884,0.797-0.803,1.322c-0.073-1.352-1.071-0.854-1.369-1.951c-0.123,0.399-0.525,1.145-0.634,1.052
							c-0.519-1.503-1.282,0.722-2.184,0.427c0.252-1.172,1.715-1.952,0.445-1.774c0.007-0.919,1.051-1.574,1.577-1.903
							c-1.486,0.594-0.676-1.649-0.897-2.134l0.692-0.195c-0.413,0.115-0.576-0.022-0.745-0.156l-0.666,1.284
							c-0.052-0.351-0.219-0.487,0.143-0.955c-0.774,0.584-1.275,2.007-2.461,2.707c0.168-0.781-1.292-0.007-0.241-1.582
							c0.46,1.156,1.056-1.582,1.959-1.278c-0.275,0.074-0.439-0.062-0.49-0.415c0.097-0.191,0.266-0.289,0.387-0.334
							c0.211-1.962-1.667,1.417-2.483,0.741c0.752-0.766,1.028-1.756,0.753-1.68c0.326,0.275-0.914,1.537-1.719,1.95
							c-0.037-1.071-0.96,0.045-1.184-0.247l0.086,0.556c-0.754,0.763-0.939,0.447-1.518,0.428c0.47-0.684,0.687-0.194,0.774-0.587
							c-1.551,1.172,0.23-2.26-1.116-1.7c0.168-0.78,1.186-1.612,1.245-2.182c-1.489,0.602,0.177-1.699-1.2-1.313
							c-0.669,1.289-0.422,1.037-1.751,1.78l1.738,0.057l-1.984,1.105c0.328,0.275,1.264-0.171,1.32,0.179
							c-1.052,0.667-0.801,0.411-1.358,1.48c0.835-2.063-1.681,0.293-1.341-1.271l2.164-2.809c0.147-1.872-2.54,0.354-3.051-1.156
							l-0.036,0.748c-0.994,1.014-0.768-0.338-1.454-0.142c0.749-0.919,0.797-1.423,1.098-2.12
							c-0.515,0.713-0.721-0.649-2.249,1.161l0.476-1.599c-0.462-1.154-3.012,1.949-3.584,1.007
							c1.026-0.838,1.163-1.788,2.267-2.105c-0.265-0.217-0.379-0.576-0.881,0.075c0.29-0.712-1.721,0.695-1.291-0.391
							c-0.43,0.327-1.219,1.285-1.465,0.974c0.112-0.216,0.356-0.466,0.356-0.466c-0.356,0.466-0.962,0.27-1.488,1.517
							c1.399-3.58-2.507-1.572-1.316-4.652c-0.835-0.136-1.782-0.378-2.374-0.72c0.249-0.256,0.359-0.469,0.387-0.293
							c-0.077-1.443-2.516,2.357-2.619,0.735c0.727-1.853,1.077-0.482,1.246-1.264c2.243-3.191-1.344-0.355-0.536-2.599l0.277-0.078
							c0.366-1.385-1.957,0.366-2.501-0.397c0,0,0.243-0.248,0.361-0.465c-1.691,1.211-3.01,1.033-4.03,0.951
							c1.136-1.051,0.8-0.406,1.608-1.738c-0.44-0.059-1.417,2.049-2.293,1.928c0.307-0.816,0.306-1.733,1.249-3.094l0.632,0.369
							c1-1.928-0.792-0.511-0.872-1.039l0.605-0.714c-1.07-0.432-2.509,1.434-3.359,0.575l-0.33,0.638
							c-1.934,1.462,0.358-1.376-1.212-0.39l1.277-2.005c-0.689,0.193-2.589,0.907-3.474,0.793c1.412-1.132,2.677-1.299,3.754-1.789
							c-0.33-0.273-1.262-0.741-2.147,0.054c0.276-0.078,0.8-0.408,0.714-0.014c-1.545,1.164-2.649,1.474-3.302,0.926
							c2.901-3.562-1.067-2.266,0.602-5.479c-2.229,0.439-1.942-2.387-3.504-3.234c-1.667,3.219-0.469-0.23-2.605,2.755
							c-0.466-0.062-0.554-0.205-0.44-0.415l0.34-2.494c0.413-1.028,0.799-0.408,1.268-1.086c-0.542-0.766,0.642-1.465,0.761-2.599
							c-0.698,1.118-1.386,1.307-1.489,0.599l-0.453,1.782c-2.178,0.796,1.004-3.105-1.171-2.331l1.017-0.677
							c-0.928,0.15-1.886-1.465-4.176,0.496c0.165-0.406,0.653-1.296,1.04-1.335c-0.963-1.289-4.64,0.41-4.498-1.762l0.636-0.642
							c-0.387,0.031-1.42,1.036-1.161,0.099c0.239-0.284,0.635-0.642,0.56-0.765c-0.309,0.153-1.562,0.787-1.55,0.139l0.871-0.605
							c-0.489-1.849-3.332,0.554-4.711,0.277c1.602-2.1,1.177-3.502,0.964-4.201l0.243-0.285c-1.201-1.324-3.701-0.066-5.624-0.226
							c0.932-2.893-1.996-3.028-2.314-5.29c-0.092,0.531-1.278,1.613-1.669,1.649c0.022-0.657-1.948,0.82-0.433-1.07l0.08,0.119
							c1.21-2.065,0.205-2.036-0.243-2.458l-1.999,2.46c1.518-4.636-4.36-1.19-2.554-5.004c-0.787,0.397-1.162,0.1-1.946,0.499
							l1.045-1.34c-0.588-0.993-0.884-1.486-2.181-1.964l0.95-0.803c-0.525-0.541-3.715,3.328-4.323,2.991l1.371-2.143
							c-1.059-0.756-0.758-3.325-3.173-2.273c0.242-0.283,0.716-0.843,0.946-0.797c-0.447-0.423-0.845-2.8-2.776,0.104
							c1.36-1.813-0.934-0.989-2.098-0.619l1.099-1.264c-1.765,1.341-2.134,1.794-3.151,1.764c-0.024-0.292,0.674-1.169,0.622-0.671
							c0.01-1.093-1.364,0.952-1.456-0.237l0.882-0.671c-0.457-0.51-0.762-0.022-1.81,0.745c-0.743,0.278-0.76-1.108,0.077-2.372
							c-0.63,0.678-1.67,1.437-1.721,0.849c0.303-0.487,0.633-0.682,0.795-0.775c-0.206-1.587-2.508,0.534-2.129-1.241
							c0.323-0.45,0.45-0.702,0.5-0.873c0.687,0.573,1.204,1.082,1.076,1.138c0.933-1.227,0.523-1.879,2.269-3.225
							c-1.165,0.573-3.482,1.983-3.603,0.98c0.063-0.14,0.126-0.276,0.249-0.481l0.163-0.093c-0.036-0.221-0.239-0.194-0.505-0.071
							c-0.025-0.337-0.025-0.573-0.183-0.721c0.706-1.066-0.242-1.049-0.49-1.317c-0.998,1.361-1.209,0.86-1.701,2.234
							c0.026-0.129,0.175-0.118,0.408-0.029c0.073-0.007,0.139,0.012,0.228-0.046c-0.034,0.033-0.073,0.07-0.109,0.103
							c0.217,0.104,0.486,0.261,0.78,0.452c-0.745,0.51-1.418,0.903-1.168-0.083c-0.804,0.751-1.64,1.515-2.048,1.862
							c1.033-2.17,1.047-3.757,1.82-4.991c-1.447,0.088-2.438-1.071-4.906,1.032c-0.495,0.135,0.264-0.94,0.473-1.407
							c0.336-0.144,0.477,0.025,0.831-0.279c-0.989,0.269-1.664-0.869-3.123,0.802c-0.022-1.272,1.586-1.354,0.506-1.721l0.526-0.45
							c0.449-4.104-6.175,2.401-5.303-2.642c-0.039,0.321-0.052,0.473-0.25,0.788c-0.928-3.223-5.549-1.862-5.739-5.996
							c-0.213-0.966-1.134,0.109-2.151,0.686l0.967-1.541l-1.893,1.187c-1.815,0.542,1.154-4.709-1.724-3.262L9.787,5.315
							C9.523,4.823,8.072,4.914,8.989,3.848C8.813,3.994,8.089,4.757,8.316,4.131l0.562-0.764L6.901,3.905
							C6.547,2.774,9.3,1.002,8.29,0C7.651-0.027,5.43,1.293,5.203,1.916c0.14,0.165,0.073,0.797-0.49,1.563L4.032,3.582
							C2.271,5.752,0.245,7.806,0,10.071l1.687-0.862l-0.61,1.238l-0.601-0.35c-0.461,1.252,0.42,0.505,1.11,0.057
							c-0.384,0.613-0.598,1.084-0.63,1.396l2.258-1.636c-0.585,0.93-1.601,1.508-1.537,2.315c1.051-0.758,1.196-2.169,2.186-2.439
							c-0.457,1.249-1.174,2.002-0.151,1.418c-0.384,0.612-0.739,0.917-1.076,1.058c0.849-0.438,1.084,0.367,2.152-0.687
							c-0.624,1.495,1.348,0.514-0.285,2.594c0.486-0.426,1.832-1.215,2.198-1.074c-2.465,2.102,1.009,1.002-1.191,3.593
							c2.129-1.957,2.229,0.108,3.903-0.603c-0.177,0.149-0.533,0.454-0.509,0.29c0.261,0.496-0.141,1.268-0.207,1.893
							c1.475-1.831,2.43-1.78,3.648-2.676c-0.879,2.182-1.972,1.967-3.136,3.82c1.129-1.535,2.013-0.859,2.805-2.25
							c-0.471,1.405-0.086,0.79-1.071,2.489c1.847-2.289,0.653-0.127,2.061-1.325c-0.329,1.57-1.527,2.299-0.383,2.045
							C12.362,21.31,11.196,21.732,11.196,21.732z M28.593,28.583c-0.01,0.013-0.017,0.022-0.02,0.027
							c-0.147-0.063-0.272-0.117-0.353-0.149C28.295,28.489,28.4,28.527,28.593,28.583z M29.812,29.478
							c-0.107-0.164-0.282-0.312-0.482-0.45c0.311-0.496,0.719-0.938,0.822-0.821C29.851,28.466,29.931,28.95,29.812,29.478z
							 M34.345,18.24c0.335-0.045,0.198,0.267,0.015,0.562c-0.108-0.045-0.247-0.08-0.456-0.093
							c-0.044,0.046-0.099,0.094-0.147,0.147C33.97,18.614,34.174,18.39,34.345,18.24z"/>
						<path class="st1" d="M32.663,19.74c-0.05,0.008-0.108,0.053-0.153,0.038c-0.05,0.147-0.091,0.277-0.116,0.388
							c0.131-0.125,0.262-0.247,0.388-0.369C32.741,19.779,32.702,19.755,32.663,19.74z"/>
						<path class="st1" d="M140.227,104.737l-0.002-0.05c-0.02,0.07-0.04,0.137-0.092,0.232
							C140.165,104.841,140.197,104.799,140.227,104.737z"/>
						<polygon class="st1" points="44.473,44.69 44.729,44.351 44.398,44.567 						"/>
						<path class="st1" d="M143.348,114.387c-0.077,0.128-0.145,0.269-0.175,0.41C143.237,114.706,143.293,114.554,143.348,114.387z
							"/>
						<path class="st1" d="M145.982,116.866l0.041,0.786C146.055,117.247,146.026,117.021,145.982,116.866z"/>
						<path class="st1" d="M147.677,119.207c0.207-0.214,0.35-0.385,0.481-0.542c0.002-0.006,0-0.006,0.004-0.014L147.677,119.207z"
							/>
						<path class="st1" d="M111.48,94.151c-0.035-0.015-0.077-0.02-0.131-0.004C110.952,94.256,111.165,94.257,111.48,94.151z"/>
						<path class="st1" d="M124.281,98.941c-0.296,0.159-0.587,0.316-0.817,0.379C123.571,99.564,123.694,99.701,124.281,98.941z"/>
						<path class="st1" d="M98.621,86.917c0.007-0.007,0.009-0.011,0.019-0.022c-0.029-0.014-0.047-0.036-0.072-0.055L98.621,86.917
							z"/>
						<path class="st1" d="M122.997,98.929c-0.018,0.408,0.18,0.469,0.466,0.392C123.38,99.115,123.305,98.842,122.997,98.929z"/>
						<path class="st1" d="M156.754,127.075l0.063,0.137c0.066-0.09,0.127-0.157,0.177-0.206L156.754,127.075z"/>
						<path class="st1" d="M156.993,127.006l0.238-0.069C157.178,126.896,157.123,126.871,156.993,127.006z"/>
						<path class="st1" d="M157.737,126.787l-0.505,0.15C157.315,127.006,157.389,127.128,157.737,126.787z"/>
						<path class="st1" d="M154.311,124.238l-0.404,0.462C154.003,124.612,154.134,124.464,154.311,124.238z"/>
						<path class="st1" d="M153.319,123.705c0.127,0.271-0.26,1.442,0.266,1.361l0.322-0.366
							C153.218,125.318,154.144,123.037,153.319,123.705z"/>
						<path class="st1" d="M154.201,114.876l0.446,0.954c0.265-0.617,0.625-1.444,1.057-1.312
							C155.946,112.259,155.014,115.825,154.201,114.876z"/>
						<path class="st1" d="M152.473,112.373c0.582,0.062,0.568-0.756,0.813-1.034C152.673,111.62,152.52,111.693,152.473,112.373z"
							/>
						<path class="st1" d="M135.85,99.716l0.97-1.191C136.38,98.466,136.457,98.996,135.85,99.716z"/>
						<polygon class="st1" points="127.868,103.61 127.59,104.596 128.584,103.585 						"/>
						<polygon class="st1" points="132.611,93.481 132.879,93.409 132.029,93.462 						"/>
						<path class="st1" d="M104.358,72.666l-1.052,1.575C103.719,74.129,105.049,72.471,104.358,72.666z"/>
						<path class="st1" d="M91.138,65.024c0.441-0.852,0.47-1.594-0.301-1.014C91.028,64.32,90.852,65.112,91.138,65.024z"/>
						<polygon class="st1" points="56.85,35.061 57.476,34.742 56.699,34.814 						"/>
					</g>
				</g>
			</g>
		</g>
	</g>
	<g>
		<line class="st0" x1="143.637" y1="63.943" x2="162.637" y2="124.943"/>
		<g>
			<g>
				<g>
					<g>
						<path class="st1" d="M158.825,126.131c0.503-0.121,1.616-0.488,1.367-0.508l-1.916,0.528L158.825,126.131z"/>
						<path class="st1" d="M162.152,124.441c-0.951,0.182-2.604,0.565-4.325,1.175c1.855-0.465,1.101-0.203,3.305-0.767
							c0.249,0.02-0.56,0.344-1.263,0.546c0.496-0.12-0.374,0.267,0.832-0.056c1.431-0.572,1.445-0.737,0.186-0.512
							C161.294,124.665,161.799,124.543,162.152,124.441z"/>
						<path class="st1" d="M162.414,114.87l-0.208,0.126C162.325,114.942,162.388,114.901,162.414,114.87z"/>
						<path class="st1" d="M161.785,109.186c0.059,0.026,0.252-0.015,0.424-0.066C162.073,109.121,161.947,109.126,161.785,109.186z
							"/>
						<path class="st1" d="M163.589,107.62c-0.054,0.038-0.076,0.063-0.112,0.094C163.645,107.639,163.736,107.588,163.589,107.62z"
							/>
						<path class="st1" d="M162.414,114.87l0.551-0.329C162.344,114.724,162.529,114.757,162.414,114.87z"/>
						<path class="st1" d="M157.206,124.673c0.102,0.001,0.286-0.029,0.523-0.078c-0.089,0.001-0.165-0.002-0.223-0.011
							C157.402,124.616,157.314,124.642,157.206,124.673z"/>
						<path class="st1" d="M164.687,116.754l0.016,0.043c0.219-0.054,0.484-0.124,0.782-0.204L164.687,116.754z"/>
						<path class="st1" d="M165.542,118.477c0.057-0.063-1.557,0.424-2.265,0.628c0.67-0.183,0.996-0.251,1.131-0.254
							C164.715,118.755,165.079,118.636,165.542,118.477z"/>
						<path class="st1" d="M163.605,122.234l0.239-0.019C163.77,122.224,163.699,122.222,163.605,122.234z"/>
						<path class="st1" d="M164.631,115.348c0.238-0.077,0.446-0.149,0.571-0.196C164.999,115.215,164.809,115.281,164.631,115.348z
							"/>
						<path class="st1" d="M136.733,68.399c0.115-0.034,0.187-0.059,0.286-0.089C136.854,68.35,136.738,68.382,136.733,68.399z"/>
						<path class="st1" d="M144.053,63.814l0.096,0.002c0.306-0.092,0.606-0.182,0.904-0.275L144.053,63.814z"/>
						<path class="st1" d="M165.13,105.303c-0.017,0.009-0.017,0.01-0.029,0.017C165.299,105.307,165.259,105.292,165.13,105.303z"
							/>
						<path class="st1" d="M159.154,90.298c-1.385,0.622-1.937,0.292-3.452,1.052C156.323,91.13,158.286,90.807,159.154,90.298z"/>
						<path class="st1" d="M157.403,124.56c-0.026-0.019-0.047-0.039-0.04-0.069C157.322,124.541,157.336,124.562,157.403,124.56z"
							/>
						<path class="st1" d="M155.702,91.35c-0.008,0.002-0.014,0.004-0.014,0.004l-0.143,0.074
							C155.607,91.397,155.649,91.377,155.702,91.35z"/>
						<path class="st1" d="M162.96,101.746c-0.281,0.096-0.492,0.179-0.692,0.259C162.433,101.952,162.632,101.88,162.96,101.746z"
							/>
						<path class="st1" d="M161.565,105.334l0.193-0.138C161.62,105.269,161.577,105.308,161.565,105.334z"/>
						<path class="st1" d="M160.223,100.961c0.111-0.077,0.329-0.159,0.097-0.145c-0.081,0.031-0.137,0.053-0.192,0.077
							C160.355,100.843,160.465,100.837,160.223,100.961z"/>
						<path class="st1" d="M159.729,99.41c-0.121,0.047-0.209,0.086-0.315,0.13c0.037,0.005,0.069,0.015,0.102,0.022L159.729,99.41z
							"/>
						<path class="st1" d="M138.978,72.88c0.443-0.175,0.935-0.352,1.425-0.523C139.266,72.738,138.786,72.637,138.978,72.88z"/>
						<path class="st1" d="M158.111,124.39c-0.41,0.118-0.614,0.167-0.708,0.17c0.024,0.012,0.061,0.019,0.103,0.025
							C157.747,124.515,157.973,124.445,158.111,124.39z"/>
						<path class="st1" d="M147.5,104.854l0.161-0.321C147.527,104.651,147.473,104.766,147.5,104.854z"/>
						<path class="st1" d="M142.679,83.954l-0.211,0.003C142.439,83.99,142.492,83.996,142.679,83.954z"/>
						<path class="st1" d="M147.195,103.875c0.554-0.221,0.869-0.37,1.07-0.486c-0.129,0.029-0.236,0.05-0.424,0.101
							L147.195,103.875z"/>
						<path class="st1" d="M140.421,72.351c-0.007,0.003-0.017,0.006-0.017,0.006S140.413,72.354,140.421,72.351z"/>
						<path class="st1" d="M136.089,71.917c0.027,0.25,2.106-0.535,3.337-0.864c0.687,0.094-1.519,0.616-2.571,1.048
							c0.614,0.001,2.599-0.47,2.557-0.313c-0.345,0.118-0.465,0.183-0.91,0.289c1.74-0.339,0.254,0.524,2.434,0.082
							c-0.182,0.074-0.357,0.138-0.515,0.192c1.049-0.365,2.124-0.706,2.893-0.938c0.069,0.094,1.398-0.221,0.027,0.25
							c0.021-0.077-0.539,0.091-0.98,0.195l0.636-0.077c-1.958,0.719-0.736,0.064-2.208,0.522c0.714,0.014,2.438-0.248,1.928,0.092
							c-1.935,0.64-0.775-0.182-2.436,0.577l0.665-0.487c-3.009,1.151,0.166-0.222-3.062,0.98c-0.459,0.512,1.109,0.067,0.645,0.579
							c1.104-0.261,1.592-0.523,2.697-0.785c2.091-0.128-4.775,1.899-2.075,1.442c1.325-0.313,3.797-1.045,2.573-0.39l-2.226,0.6
							c-0.115,0.393,3.22-0.799,1.846,0.003c-0.883,0.209-0.808-0.029-1.055,0.102c-1.668,0.762,1.296-0.232,1.349-0.063
							l-1.937,0.642c0.414,0.251,1.94,0.194,2.415,0.468c-0.586,0.159-1.216,0.283-1.784,0.559c1.124,0.181,0.084,1.107-0.926,1.934
							l1.737-0.345c-0.007,0.047-0.736,0.313-1.076,0.37c-0.581,0.38,1.069-0.323,1.757-0.441c0.15,0.067-0.924,0.438-1.449,0.529
							c1.525-0.123,3.356-0.042,1.66,0.857l-0.52,0.09c-0.6,0.476,3.539-0.776,2.047-0.044l-0.312,0.046
							c-0.551,0.799,1.186,0.951-1.216,2.177c2.448-0.671-0.904,0.902,2.485-0.113c-1.572,0.848-2.204,0.942-3.187,1.753
							c-0.117,0.171,2.166-0.474,2.566-0.432l-1.765,0.554l1.917-0.371l-2.077,0.767l0.497,0.001
							c0.086-0.089,0.755-0.367,1.267-0.517c0.868-0.026-1.062,0.926-1.965,1.213l1.657,0.061c-0.714,0.21-0.985,0.197-1.46,0.269
							c1.889-0.28-1.844,0.63-0.112,0.373c0.39-0.159,1.058-0.309,1.416-0.414c-1.027,0.461-0.946,0.756-0.428,0.832l-1.231,0.338
							c-0.188,0.487,0.841,0.641,0.955,1.086c0.519-0.334,2.639-0.955,2.882-0.89l-1.847,0.632c1.177-0.276,0.661-0.353,2.125-0.622
							c-0.164,0.231-2.088,0.771-2.724,0.866l0.709-0.003c-0.554,0.186-0.863,0.23-1.577,0.439c1.185-0.279-1.766,0.927,0.283,0.418
							l-0.552,0.184c0.121,0.443,0.825,0.441,1.029,0.769c1.614-0.495,1.299-0.244,2.634-0.543
							c-0.432,0.422-1.607,1.107-1.373,1.381c0.871-0.028,1.384-0.36,2.372-0.558c-1.461,0.473-1.226,0.746-2.33,0.91
							c0.356,0.305,0.442,0.394,1.783,0.502c0.586-0.24,0.828-0.379,1.338-0.505c0.269,0.012-0.554,0.39-1.263,0.597l-0.158,0.024
							c2.366-0.147-3.892,2.575-0.699,2.05l-0.159,0.023l1.733-0.052c-0.191,0.284-1.141,0.221-2.002,0.655
							c2.596-0.283-0.12,0.868,1.634,0.755c-4.233,1.654,0.642,0.989-1.992,2.262l1.012-0.341c1.033-0.205-0.543,0.311-0.752,0.462
							c0.788-0.258,0.88-0.401,1.455-0.507c1.509,0.52-0.909,2.328-1.541,3.54c-0.168,0.424,5.334-1.45,3.033-0.266l-1.93,0.468
							c2.485-0.025,0.357,1.422,2.491,1.491c-0.449,0.096-1.017,0.272-1.03,0.204c-1.331,0.569,0.096,0.543,1.219,0.196
							c-0.096,0.144-1.008,0.34-1.558,0.582c-0.767,0.394,1.866-0.191,0.521,0.31c-0.219,0.082-0.459,0.099-0.573,0.106
							c0.694-0.115-0.036,0.483,1.523-0.099c-0.679,0.487,0.856,0.26-0.022,0.753c1.814-0.422-0.72,0.696,1.801-0.044
							c-2.597,0.789-1.953,1.091-0.685,0.87c-0.8,0.191-0.768,0.391-1.872,0.666c0.092,0.17,0.625,0.186,1.947-0.26
							c-2.996,1.299,2.704-0.106-1.21,1.319c1.56,0.104,2.657,0.309,3.416,0.604c-2.59,0.788-0.424-0.455-3.131,0.411
							c1.207,0.128,3.508-0.298,3.026,0.351c-0.316,0.228-1.141,0.282-1.595,0.38c1.207,0.127,0.041,0.96,1.575,0.93
							c-0.241,0.074-0.518,0.112-0.728,0.131c0.11,0.054-0.318,0.304,0.85-0.069l-0.342,0.021c1.665-0.659,3.66-0.79,4.565-1.056
							c-3.409,0.912-0.721,0.667-5.042,1.775c0.239-0.016,0.816-0.123,1.598-0.38c-0.205,0.15-0.656,0.318-1.575,0.517
							c0.729,0.089,1.946-0.402,2.001-0.133c-0.57,0.176-0.806,0.192-1.482,0.373c1.15-0.213,2.301-0.426,1.888-0.055
							c-0.347,0.094-0.785,0.258-0.797,0.19c0.29,0.325,3.154-0.274,2.212,0.476c-2.508,0.647-0.769,0.395-2.9,1.083l0.707,0.025
							l1.01-0.413c0.024,0.207,1.636-0.105,0.988,0.281l-0.926,0.129l0.52,0.241l0.746-0.46c1.164-0.145,2.7-0.864,2.185-0.418
							c-0.232,0.014,0.035,0.204-1.194,0.699c0,0,0-0.001-0.006,0.001c0.711-0.115,1.46-0.239,0.974,0.071
							c-0.672,0.251-2.375,0.706-2.823,0.873c1.817-0.461,0.639,0.304,2.581-0.168c-0.46,0.099-1.583,0.447-1.807,0.531l1.477-0.372
							c-0.436,0.235-0.657,0.319-1.557,0.583c-0.181,0.356,2.686-0.932,1.618-0.244c-0.125,0.011-0.338,0.091-0.576,0.107
							c-0.508,0.515,1.117,0.341,0.496,0.863c-2.125,0.759-0.608-0.097-2.392,0.569c0.524,0.309,2.858,0.089,2.48,0.664l0.214-0.152
							c3.056-0.888-1.404,0.778,0.094,0.543c-0.242,0.019-1.708,0.458-1.365,0.366c-0.399,0.438,0.929,0.351,2.02,0.486l-0.799,0.19
							c-0.644,0.385-0.263,0.568-0.562,0.861c0.796-0.189,0.702-0.046,1.817-0.462c-4.27,1.945,2.716,0.327-0.832,1.977
							c-0.027-0.057-0.727,0.071-0.712,0.118l0.848,0.201c1.313-0.446,0.784-0.305,1.787-0.715c0.802-0.191,1.447-0.261,1.48-0.156
							c-0.936,0.083-2.125,0.664-2.838,0.976c0.401-0.14,0.857-0.251,1.268-0.387c-2.286,0.955,2.675-0.792,1.183,0.004l-0.7,0.2
							c0.39,0.002,1.342-0.18,1.181,0.004c-1.515,0.527-0.752,0.102-2.015,0.487c0.142,0.144,3.006-0.566,1.528,0.065
							c-0.449,0.06-0.489-0.042-0.935,0.017c-1.745,0.729-1.282,0.606-1.529,0.82l0.037-0.025l-0.724,0.544l0.464-0.226
							c4.06-1.029,0.866,0.209,3.571-0.317c-2.563,0.49-1.447,0.4-3.188,0.919c-0.458,0.224-0.964,0.504-1.462,0.624
							c1.443-0.3-1.031,0.571,1.075,0.126c-0.554,0.182-0.009,0.163-1.421,0.569c0.495,0.041,0.959-0.345,1.664-0.548
							c1.995-0.321-2.114,1.364,0.628,0.941c1.182,0.004,3.087-0.521,4.122-0.498c-0.861,0.385-2.062,0.547-2.062,0.547
							c-0.769,0.428-0.578,0.509,0.112,0.472c-0.497,0.119-0.899,0.281-1.51,0.526c0.186,0.084,2.061-0.547,1.29-0.119
							c-0.631,0.165-1.64,0.438-2.285,0.57c0.562-0.007,1.652-0.182,2.205-0.18c-0.96,0.345-1.507,0.365-2.159,0.506
							c0.493,0.041,1.024,0.186,2.583-0.239l0.514-0.285c0.096,0.041-1.313,0.446-1.609,0.485c-1.256,0.224,0.465-0.386,1.024-0.569
							l0.393,0.001c3.241-1.136-0.667-0.288-0.547-0.574l2.413-0.648l-2.05,0.383c0.604-0.243,1.925-0.691,2.316-0.69
							c1.126-0.529-0.892,0.12,0.377-0.428c0.2-0.079,0.316-0.108,0.415-0.123l-0.759,0.062c0.51-0.125,1.674-0.551,1.36-0.346
							c1.286-0.713-1.93,0.097-0.158-0.573l0.154-0.022c-0.929-0.144-1.763,0.507-3.907,0.85l4.254-1.544l-1.762,0.506
							c0.05-0.061,0.156-0.182,0.86-0.385c-1.245,0.221-0.753,0.263-1.91,0.527c1.532-0.693-0.914-0.309,1.86-1.222
							c-1.352,0.344-0.968,0.508-1.958,0.586c2.979-0.993-0.589-0.082,0.73-0.69c1.564-0.427,0.798-0.002,2.123-0.612
							c-2.649,0.707,0.463-0.527-0.085-0.523c-2.083,0.641-0.97-0.059-1.742-0.097c0.703-0.201,0.993-0.833,1.673-1.304l0.352-0.102
							c-2.118,0.609-1.797,0.242-2.288,0.201c1.264-0.386,1.768-0.508,2.362-0.588l-0.062-0.164
							c-0.687,0.171-1.058,0.229-1.332,0.196l1.585-0.448c-0.156-0.195-1.991,0.13-1.03-0.483c-1.472,0.441-4.013,1.499-5.087,1.503
							c0.789-0.258,2.142-0.692,2.492-0.714c-0.11,0.006-0.688,0.113-0.365-0.045l1.372-0.295c0.546-0.312-1.136,0.279-1.044,0.137
							c1.132-0.35,0.783-0.328,1.686-0.593c0.118-0.008-0.44,0.236,0.017,0.138c0.166-0.18,0.794-0.531,1.635-0.845
							c-0.64,0.211-1.523,0.474-1.697,0.434c-0.152-0.196,1.337-0.5,1.877-0.81c-0.802,0.191-0.032-0.204-1.724,0.319
							c-0.012-0.068,0.773-0.325,1.224-0.493c-0.783,0.118-0.381-0.47-2.14,0.22l-0.109,0.066c-0.037,0.005-0.04-0.001-0.08,0.004
							c0,0.001,0,0,0,0.001l0-0.001c-1.799,0.147,0.714-1.08-0.125-1.229l0.565-0.175c-0.716-0.022-0.537-0.377-1.803-0.158
							c-0.019-0.067,0.986-0.478,1.667-0.659c-0.478-0.038-1.119,0.141-0.263-0.396c1.04-0.136,0.857-0.332,0.778-0.05
							c0.419-0.374,1.31-0.706-0.31-0.462c1.474-0.37,1.772-0.735,1.307-0.706l-0.99,0.479c-0.248-0.052-0.152-0.196-0.061-0.34
							l1.924-0.537c2.178-1.176-4.2,0.411-0.426-1.142c-1.37,0.295-0.862,0.538-2.454,0.917c0.192-0.289,2.86-1.358,2.845-1.425
							c0.967-0.614-2.868,0.601-2.239,0.077c-0.666,0.249-2.47,0.851-3.18,0.827c0.186-0.287,2.772-1.145,3.358-1.183
							c0.073,0.032-0.135,0.123-0.367,0.193c0.269-0.01,0.587-0.012,1.299-0.324l-0.688,0.185c0.661-0.32,0.499-0.584,1.637-0.864
							c-0.698,0.044-1.138,0.28-1.453,0.507c0.901-0.574-0.101-0.427,0.475-0.909c-0.361,0.161-1.147,0.45-1.154,0.404
							c0.716-0.666-1.345,0.224-1.728,0.043c0.988-0.478,2.492-0.715,1.537-0.72c0.649-0.387,1.793-0.598,2.368-0.703
							c-1.389,0.157,0.715-0.737,0.911-0.956l0.589-0.039c-0.351,0.022-0.361-0.045-0.378-0.113l-1.337,0.499
							c0.212-0.151,0.199-0.219,0.764-0.394c-0.916,0.197-2.243,0.766-3.51,0.986c0.659-0.319-0.839-0.084,0.953-0.682
							c-0.511,0.516,1.801-0.601,2.178-0.416c-0.232,0.014-0.244-0.054-0.029-0.206c0.198-0.075,0.377-0.105,0.487-0.116
							c1.516-0.814-2.085,0.492-2.144,0.156c1.03-0.276,1.905-0.676,1.672-0.661c0.02,0.137-1.677,0.591-2.493,0.714
							c0.727-0.454-0.659-0.042-0.601-0.179l-0.334,0.24c-1.029,0.274-0.928,0.13-1.293,0.085c0.788-0.259,0.585-0.038,0.918-0.199
							c-1.837,0.396,1.738-0.938,0.464-0.787c0.657-0.318,1.907-0.605,2.346-0.841c-1.397,0.16,1.309-0.705,0.137-0.629
							c-1.343,0.501-1.005,0.411-2.395,0.64l1.097,0.133l-2.074,0.341c0.021,0.137,0.946,0.007,0.737,0.159
							c-1.156,0.215-0.812,0.123-1.927,0.538c1.995-0.817-1.305,0.018,0.016-0.62l3.387-1.048c1.41-0.78-1.909-0.01-1.183-0.679
							l-0.549,0.313c-1.362,0.365-0.265-0.191-0.851-0.151c1.135-0.34,1.52-0.55,2.207-0.825c-0.837,0.268-0.015-0.319-2.285,0.348
							l1.433-0.644c0.509-0.516-3.338,0.632-3.051,0.199c1.259-0.289,2.016-0.681,2.961-0.745c-0.021-0.108,0.156-0.266-0.628-0.024
							c0.69-0.282-1.613,0.185-0.569-0.246c-0.51,0.111-1.7,0.465-1.642,0.319c0.225-0.084,0.56-0.174,0.56-0.174
							c-0.56,0.174-0.819,0.053-2.038,0.546c3.429-1.421-0.536-0.82,2.406-2.044c-0.45-0.11-0.9-0.271-1.047-0.453
							c0.343-0.092,0.564-0.175,0.459-0.099c0.963-0.613-3.3,0.835-2.229,0.145c1.776-0.735,1.043-0.135,1.702-0.454
							c3.708-1.204-0.63-0.234,1.474-1.129l0.236-0.015c1.212-0.561-1.537,0.031-1.356-0.325c0,0,0.333-0.089,0.562-0.173
							c-1.956,0.404-2.694,0.246-3.303,0.148c1.481-0.372,0.808-0.121,2.272-0.631c-0.246-0.052-2.365,0.775-2.853,0.669
							c0.774-0.325,1.417-0.711,2.989-1.226l0.154,0.195c2.008-0.75-0.159-0.265,0.159-0.493l0.897-0.263
							c-0.396-0.25-2.647,0.447-2.6,0.031l-0.664,0.248c-2.292,0.495,1.201-0.558-0.519-0.24l2.243-0.765
							c-0.586,0.038-2.33,0.219-2.828,0.116c1.718-0.388,2.662-0.379,3.711-0.518c-0.024-0.136-0.305-0.392-1.442-0.112
							c0.235-0.015,0.809-0.122,0.477,0.039c-1.827,0.394-2.767,0.455-2.809,0.183c4.398-1.319,0.894-1.022,4.241-2.272
							c-1.766,0.045,0.406-1.128-0.021-1.583c-3.35,1.252-0.146-0.126-3.638,0.998c-0.261-0.056-0.219-0.121,0.004-0.203l1.974-1.03
							c0.992-0.407,0.809-0.122,1.592-0.378c0.184-0.357,1.449-0.577,2.323-1.048c-1.241,0.427-1.824,0.464-1.394,0.159
							l-1.547,0.723c-1.983,0.199,2.837-1.246,0.871-1.056l1.14-0.221c-0.712,0.005-0.205-0.736-3.079-0.053
							c0.394-0.161,1.337-0.505,1.617-0.497c0.275-0.604-3.322-0.119-1.703-1.026l0.867-0.231c-0.275-0.011-1.656,0.348-0.829-0.031
							c0.356-0.104,0.866-0.231,0.904-0.287c-0.31,0.045-1.574,0.233-1.111-0.039l0.995-0.2c0.978-0.81-2.567,0.024-3.275-0.18
							c2.522-0.784,3.228-1.402,3.58-1.71l0.359-0.105c0.145-0.634-2.374-0.26-3.518-0.449c2.641-1.161,0.821-1.402,2.201-2.375
							c-0.434,0.218-1.969,0.6-2.249,0.59c0.476-0.276-1.85,0.223,0.468-0.478l-0.031,0.055c2.241-0.794,1.564-0.846,1.567-1.051
							l-3.035,0.911c4.248-1.859-2.015-0.776,1.843-2.27c-0.793,0.118-0.83-0.031-1.622,0.088l1.624-0.499
							c0.312-0.455,0.466-0.682-0.047-0.965l1.185-0.279c0.037-0.261-4.766,1.169-4.927,0.989l2.401-0.817
							c-0.161-0.385,1.839-1.449-0.479-1.158c0.357-0.104,1.06-0.31,1.178-0.277c0.005-0.207,1.414-1.234-1.888-0.13
							c2.162-0.679,0.084-0.475-0.937-0.393l1.606-0.464c-2.096,0.454-2.656,0.622-3.299,0.545c0.189-0.125,1.262-0.451,0.878-0.244
							c0.774-0.46-1.56,0.315-0.785-0.191l1.048-0.227c0.059-0.244-0.483-0.057-1.707,0.2c-0.681,0.07,0.281-0.515,1.716-0.995
							c-0.888,0.246-2.101,0.501-1.722,0.25c0.54-0.186,0.893-0.248,1.064-0.277c0.98-0.682-2.015,0.068-0.521-0.657
							c0.527-0.17,0.787-0.267,0.94-0.337c0.047,0.285,0.027,0.532-0.095,0.547c1.472-0.458,1.661-0.759,3.748-1.217
							c-1.164,0.168-3.669,0.617-3.044,0.187c0.139-0.055,0.276-0.109,0.5-0.187l0.172-0.029c0.131-0.095-0.02-0.097-0.28-0.062
							c0.22-0.144,0.386-0.243,0.387-0.316c1.21-0.405,0.578-0.457,0.604-0.586c-1.609,0.511-1.394,0.286-2.681,0.835
							c0.108-0.053,0.198-0.039,0.288,0.013c0.053,0.002,0.083,0.014,0.181-0.005c-0.045,0.012-0.097,0.025-0.144,0.037
							c0.069,0.058,0.134,0.141,0.193,0.24c-0.845,0.168-1.561,0.292-0.706-0.108c-1.053,0.266-2.136,0.535-2.646,0.656
							c2.199-0.85,3.323-1.518,4.695-1.989c-1.008-0.054-0.842-0.605-3.933,0.127c-0.419,0.026,0.833-0.38,1.298-0.564
							c0.321-0.039,0.295,0.041,0.739-0.065c-0.836,0.051-0.478-0.471-2.605,0.142c0.879-0.537,1.987-0.471,1.539-0.693l0.66-0.157
							c3.175-1.702-5.724,0.624-1.612-1.447c-0.25,0.133-0.366,0.196-0.716,0.317c1.656-1.417-2.321-1.134,0.458-2.888
							c0.539-0.421-0.818-0.025-1.888,0.154l1.714-0.589l-2.071,0.381c-1.568,0.114,4.061-1.912,1.163-1.483l-1.148,0.419
							c0.173-0.224-0.84-0.277,0.508-0.668c-0.217,0.05-1.227,0.326-0.639,0.077l0.904-0.287l-1.67,0.102
							c0.563-0.499,3.607-1.073,3.65-1.559c-0.398-0.052-2.777,0.365-3.364,0.614c-0.025,0.078-0.512,0.341-1.418,0.628l-0.517,0
							c-2.675,0.804-5.442,1.542-7.193,2.482l1.709-0.258l-1.268,0.484l-0.147-0.185c-1.181,0.499-0.08,0.239,0.686,0.094
							c-0.682,0.234-1.152,0.419-1.393,0.549l2.625-0.548c-1.036,0.355-2.106,0.535-2.631,0.879
							c1.219-0.253,2.305-0.839,3.142-0.891c-1.175,0.498-2.173,0.77-1.095,0.588c-0.681,0.234-1.128,0.34-1.447,0.379
							c0.863-0.131,0.451,0.223,1.889-0.154c-1.457,0.591,0.521,0.302-2.008,1.075c0.617-0.149,2.051-0.397,2.191-0.315
							c-3.088,0.731-0.044,0.486-3.301,1.44c2.766-0.691,1.382,0.186,2.975-0.009c-0.22,0.052-0.667,0.158-0.536,0.09
							c-0.177,0.225-0.983,0.526-1.465,0.785c2.251-0.679,2.839-0.598,4.264-0.899c-2.107,0.865-2.67,0.705-4.733,1.413
							c1.816-0.576,1.919-0.236,3.414-0.772c-1.295,0.563-0.611,0.328-2.448,0.982c2.815-0.849,0.516-0.012,2.278-0.429
							c-1.318,0.641-2.613,0.873-1.686,0.838C137.147,71.813,136.089,71.917,136.089,71.917z M142.653,75.899
							c-0.015,0.005-0.026,0.008-0.032,0.01c-0.051-0.036-0.096-0.066-0.126-0.085C142.524,75.84,142.566,75.863,142.653,75.899z
							 M142.822,76.352c0.046-0.076,0.035-0.149,0.001-0.22c0.552-0.19,1.129-0.35,1.114-0.295
							C143.558,75.928,143.27,76.137,142.822,76.352z M153.677,71.9c0.251,0.002-0.058,0.125-0.385,0.238
							c-0.039-0.026-0.106-0.049-0.233-0.068c-0.061,0.017-0.131,0.034-0.2,0.053C153.169,72.034,153.46,71.952,153.677,71.9z"/>
						<path class="st1" d="M151.524,72.427c-0.038,0-0.108,0.016-0.127,0.006c-0.136,0.059-0.254,0.111-0.348,0.156
							c0.173-0.044,0.345-0.088,0.513-0.131C151.547,72.448,151.539,72.435,151.524,72.427z"/>
						<path class="st1" d="M162.172,115.017l0.034-0.021c-0.062,0.028-0.122,0.055-0.223,0.092
							C162.059,115.057,162.109,115.041,162.172,115.017z"/>
						<polygon class="st1" points="141.726,83.686 142.132,83.559 141.764,83.63 						"/>
						<path class="st1" d="M157.437,119.281c-0.14,0.049-0.284,0.104-0.402,0.162C157.141,119.408,157.284,119.348,157.437,119.281z
							"/>
						<path class="st1" d="M157.418,120.492l-0.525,0.334C157.198,120.657,157.338,120.559,157.418,120.492z"/>
						<path class="st1" d="M156.883,121.585c0.286-0.077,0.499-0.14,0.695-0.198c0.005-0.002,0.005-0.003,0.012-0.006
							L156.883,121.585z"/>
						<path class="st1" d="M150.809,108.748c-0.012-0.009-0.036-0.013-0.083-0.01C150.39,108.759,150.529,108.772,150.809,108.748z"
							/>
						<path class="st1" d="M155.815,111.572c-0.305,0.049-0.605,0.096-0.801,0.109C154.914,111.79,154.899,111.855,155.815,111.572z
							"/>
						<path class="st1" d="M147.481,104.89c0.01-0.003,0.014-0.004,0.028-0.008c-0.009-0.008-0.006-0.018-0.009-0.027
							L147.481,104.89z"/>
						<path class="st1" d="M154.985,111.486c-0.298,0.171-0.211,0.209,0.03,0.195C155.104,111.588,155.248,111.468,154.985,111.486z
							"/>
						<path class="st1" d="M157.293,125.472l-0.055,0.062c0.106-0.034,0.194-0.058,0.26-0.076L157.293,125.472z"/>
						<path class="st1" d="M157.499,125.458l0.204-0.014C157.696,125.423,157.678,125.409,157.499,125.458z"/>
						<path class="st1" d="M158.138,125.413l-0.435,0.031C157.709,125.478,157.671,125.534,158.138,125.413z"/>
						<path class="st1" d="M157.689,124.123l-0.588,0.169C157.224,124.261,157.413,124.207,157.689,124.123z"/>
						<path class="st1" d="M157.414,123.835c-0.108,0.122-1.183,0.591-0.781,0.59l0.468-0.134
							C156.215,124.509,158.422,123.606,157.414,123.835z"/>
						<path class="st1" d="M164.19,120.169l-0.378,0.43c0.607-0.244,1.423-0.569,1.612-0.487
							C167.169,119.176,164.056,120.62,164.19,120.169z"/>
						<path class="st1" d="M164.817,119.006c0.337,0.063,0.903-0.283,1.258-0.385C165.477,118.701,165.326,118.722,164.817,119.006z
							"/>
						<path class="st1" d="M162.836,112.625l1.47-0.441C164.06,112.132,163.738,112.36,162.836,112.625z"/>
						<polygon class="st1" points="154.883,113.765 154.008,114.163 155.368,113.8 						"/>
						<polygon class="st1" points="165.096,109.794 165.322,109.78 164.729,109.749 						"/>
						<path class="st1" d="M161.239,99.243l-1.794,0.598C159.794,99.82,161.827,99.205,161.239,99.243z"/>
						<path class="st1" d="M157.961,95.191c0.887-0.331,1.426-0.642,0.515-0.446C158.383,94.887,157.712,95.21,157.961,95.191z"/>
						<polygon class="st1" points="156.581,80.405 157.214,80.31 156.656,80.292 						"/>
					</g>
				</g>
			</g>
		</g>
	</g>
	<g>
		<line class="st0" x1="162.637" y1="124.943" x2="104.637" y2="150.943"/>
		<g>
			<g>
				<g>
					<g>
						<path class="st1" d="M103.004,147.3c0.181,0.485,0.677,1.546,0.667,1.297l-0.753-1.839L103.004,147.3z"/>
						<path class="st1" d="M105.074,150.403c-0.295-0.922-0.873-2.518-1.683-4.153c0.683,1.786,0.333,1.069,1.157,3.19
							c0.01,0.249-0.408-0.516-0.692-1.189c0.179,0.478-0.309-0.34,0.156,0.819c0.738,1.353,0.902,1.347,0.528,0.125
							C104.75,149.579,104.932,150.065,105.074,150.403z"/>
						<path class="st1" d="M114.566,149.541l-0.149-0.191C114.485,149.462,114.532,149.52,114.566,149.541z"/>
						<path class="st1" d="M120.108,148.251c-0.019,0.062,0.045,0.248,0.117,0.413C120.208,148.529,120.188,148.405,120.108,148.251
							z"/>
						<path class="st1" d="M121.874,149.858c-0.044-0.049-0.072-0.068-0.107-0.1C121.862,149.917,121.923,150,121.874,149.858z"/>
						<path class="st1" d="M114.566,149.541l0.391,0.508C114.702,149.455,114.691,149.643,114.566,149.541z"/>
						<path class="st1" d="M104.249,145.523c0.011,0.101,0.063,0.28,0.14,0.509c-0.011-0.088-0.018-0.164-0.016-0.223
							C104.329,145.711,104.293,145.626,104.249,145.523z"/>
						<path class="st1" d="M112.978,152.018l-0.04,0.021c0.08,0.211,0.181,0.466,0.296,0.752L112.978,152.018z"/>
						<path class="st1" d="M111.379,153.069c0.069,0.049-0.607-1.495-0.894-2.174c0.262,0.643,0.369,0.958,0.388,1.093
							C111.004,152.28,111.165,152.628,111.379,153.069z"/>
						<path class="st1" d="M107.431,151.586l0.047,0.235C107.461,151.749,107.455,151.678,107.431,151.586z"/>
						<path class="st1" d="M114.361,151.797c0.105,0.227,0.202,0.425,0.263,0.544C114.537,152.147,114.449,151.966,114.361,151.797z
							"/>
						<path class="st1" d="M157.4,118.615c0.048,0.11,0.081,0.179,0.123,0.274C157.463,118.729,157.417,118.618,157.4,118.615z"/>
						<path class="st1" d="M162.815,125.341l0.009,0.095c0.128,0.293,0.253,0.58,0.381,0.865L162.815,125.341z"/>
						<path class="st1" d="M124.35,151.116c-0.011-0.016-0.012-0.016-0.02-0.026C124.366,151.284,124.376,151.242,124.35,151.116z"
							/>
						<path class="st1" d="M138.459,143.428c-0.782-1.301-0.523-1.888-1.456-3.302C137.296,140.717,137.852,142.627,138.459,143.428
							z"/>
						<path class="st1" d="M104.384,145.705c0.015-0.028,0.033-0.052,0.064-0.048C104.393,145.622,104.375,145.639,104.384,145.705z
							"/>
						<path class="st1" d="M137.003,140.126c-0.003-0.007-0.006-0.014-0.006-0.014l-0.091-0.133
							C136.946,140.037,136.97,140.076,137.003,140.126z"/>
						<path class="st1" d="M127.604,148.546c-0.129-0.268-0.236-0.467-0.339-0.657C127.337,148.047,127.432,148.236,127.604,148.546
							z"/>
						<path class="st1" d="M123.889,147.582l0.16,0.176C123.96,147.629,123.916,147.591,123.889,147.582z"/>
						<path class="st1" d="M128.05,145.738c0.09,0.101,0.197,0.308,0.155,0.08c-0.04-0.077-0.069-0.13-0.1-0.182
							C128.182,145.856,128.201,145.964,128.05,145.738z"/>
						<path class="st1" d="M129.523,145.067c-0.061-0.114-0.11-0.198-0.166-0.298c-0.001,0.037-0.007,0.07-0.01,0.104
							L129.523,145.067z"/>
						<path class="st1" d="M153.243,121.368c0.227,0.419,0.461,0.887,0.688,1.353C153.418,121.637,153.46,121.149,153.243,121.368z"
							/>
						<path class="st1" d="M104.638,146.388c-0.166-0.393-0.239-0.59-0.253-0.683c-0.009,0.025-0.012,0.063-0.012,0.105
							C104.471,146.041,104.567,146.257,104.638,146.388z"/>
						<path class="st1" d="M122.667,133.57l0.337,0.122C122.872,133.573,122.751,133.533,122.667,133.57z"/>
						<path class="st1" d="M142.744,126.338l-0.029-0.209C142.678,126.103,142.679,126.156,142.744,126.338z"/>
						<path class="st1" d="M123.598,133.153c0.285,0.524,0.471,0.819,0.609,1.005c-0.044-0.124-0.077-0.228-0.151-0.409
							L123.598,133.153z"/>
						<path class="st1" d="M153.939,122.737c-0.004-0.007-0.008-0.016-0.008-0.016S153.935,122.73,153.939,122.737z"/>
						<path class="st1" d="M153.846,118.388c-0.243,0.056,0.782,2.027,1.256,3.21c-0.01,0.693-0.792-1.435-1.346-2.428
							c0.073,0.61,0.778,2.524,0.618,2.5c-0.159-0.329-0.237-0.439-0.396-0.869c0.545,1.687-0.488,0.313,0.212,2.425
							c-0.096-0.172-0.179-0.339-0.251-0.489c0.487,0.998,0.954,2.025,1.275,2.761c-0.085,0.079,0.387,1.361-0.244,0.056
							c0.079,0.011-0.155-0.524-0.311-0.95l0.153,0.622c-0.947-1.859-0.152-0.722-0.782-2.129c0.073,0.71,0.539,2.391,0.141,1.924
							c-0.866-1.845,0.086-0.79-0.864-2.35l0.562,0.602c-1.501-2.851,0.239,0.139-1.338-2.924c-0.561-0.396,0.067,1.108-0.495,0.708
							c0.391,1.065,0.709,1.519,1.101,2.584c0.379,2.06-2.453-4.516-1.676-1.89c0.469,1.278,1.49,3.645,0.695,2.507l-0.862-2.139
							c-0.402-0.068,1.178,3.101,0.22,1.833c-0.313-0.852-0.069-0.805-0.228-1.035c-0.954-1.566,0.386,1.259,0.225,1.331
							l-0.868-1.847c-0.198,0.441,0.042,1.948-0.171,2.451c-0.228-0.563-0.427-1.173-0.767-1.704
							c-0.043,1.136-1.084,0.213-2.023-0.692l0.551,1.683c-0.048-0.001-0.399-0.693-0.496-1.024
							c-0.446-0.532,0.448,1.023,0.648,1.692c-0.048,0.156-0.544-0.865-0.698-1.376c0.305,1.499,0.446,3.325-0.647,1.748
							l-0.151-0.505c-0.543-0.54,1.194,3.42,0.29,2.026l-0.083-0.305c-0.856-0.453-0.797,1.288-2.299-0.952
							c0.959,2.35-1.001-0.791,0.411,2.453c-1.028-1.461-1.197-2.077-2.117-2.957c-0.183-0.096,0.73,2.094,0.736,2.495l-0.76-1.686
							l0.598,1.858l-1.009-1.971l0.059,0.494c0.098,0.075,0.454,0.706,0.664,1.197c0.131,0.858-1.043-0.946-1.436-1.808l0.14,1.652
							c-0.293-0.684-0.314-0.954-0.442-1.417c0.505,1.842-0.845-1.756-0.383-0.068c0.204,0.368,0.433,1.013,0.58,1.357
							c-0.579-0.965-0.861-0.85-0.874-0.328l-0.482-1.182c-0.504-0.129-0.532,0.909-0.958,1.074
							c0.393,0.476,1.262,2.507,1.227,2.755l-0.847-1.759c0.414,1.135,0.428,0.614,0.871,2.035
							c-0.248-0.136-1.014-1.981-1.184-2.601l0.088,0.703c-0.25-0.528-0.332-0.829-0.625-1.513c0.419,1.143-1.129-1.643-0.379,0.33
							l-0.248-0.526c-0.423,0.172-0.337,0.87-0.636,1.112c0.684,1.543,0.398,1.26,0.855,2.55c-0.469-0.379-1.288-1.465-1.53-1.2
							c0.132,0.86,0.523,1.331,0.838,2.288c-0.644-1.394-0.885-1.129-1.18-2.205c-0.259,0.389-0.336,0.484-0.281,1.828
							c0.308,0.554,0.475,0.777,0.66,1.269c0.021,0.268-0.452-0.504-0.742-1.183l-0.043-0.154c0.43,2.331-3.014-3.56-2.111-0.454
							l-0.042-0.155l0.261,1.713c-0.303-0.156-0.356-1.107-0.889-1.91c0.593,2.543-0.872-0.017-0.549,1.71
							c-2.145-4.007-0.9,0.753-2.476-1.712l0.46,0.964c0.327,1.001-0.372-0.502-0.547-0.692c0.35,0.752,0.502,0.826,0.677,1.384
							c-0.332,1.559-2.41-0.629-3.685-1.114c-0.439-0.117,2.077,5.122,0.628,2.978l-0.695-1.86c0.324,2.463-1.362,0.52-1.173,2.646
							c-0.149-0.434-0.391-0.977-0.326-0.999c-0.723-1.254-0.525,0.159-0.047,1.233c-0.154-0.078-0.458-0.96-0.763-1.478
							c-0.482-0.715,0.414,1.829-0.244,0.554c-0.108-0.208-0.153-0.443-0.174-0.556c0.197,0.676-0.482,0.021,0.282,1.5
							c-0.563-0.616-0.154,0.88-0.747,0.067c0.636,1.751-0.775-0.633,0.261,1.782c-1.093-2.485-1.314-1.81-0.943-0.578
							c-0.285-0.771-0.479-0.716-0.884-1.78c-0.157,0.112-0.108,0.642,0.492,1.901c-1.646-2.821,0.431,2.671-1.45-1.047
							c0.085,1.56,0.015,2.673-0.185,3.46c-1.091-2.478,0.398-0.474-0.784-3.059c0.019,1.213,0.718,3.446,0.018,3.044
							c-0.263-0.286-0.416-1.099-0.568-1.539c0.02,1.213-0.944,0.154-0.729,1.672c-0.102-0.23-0.173-0.5-0.218-0.707
							c-0.04,0.116-0.339-0.28,0.171,0.835l-0.062-0.337c0.853,1.575,1.222,3.539,1.594,4.406c-1.312-3.275-0.746-0.637-2.362-4.795
							c0.045,0.235,0.22,0.795,0.569,1.542c-0.173-0.186-0.393-0.614-0.701-1.502c0,0.734,0.632,1.884,0.373,1.97
							c-0.243-0.545-0.287-0.777-0.548-1.427c0.349,1.116,0.698,2.233,0.282,1.867c-0.134-0.333-0.35-0.749-0.283-0.768
							c-0.287,0.326,0.651,3.097-0.203,2.25c-0.942-2.413-0.483-0.717-1.42-2.751l0.061,0.705l0.53,0.954
							c-0.202,0.048,0.301,1.611-0.159,1.014l-0.239-0.904l-0.175,0.544l0.545,0.687c0.284,1.138,1.18,2.577,0.677,2.119
							c-0.042-0.228-0.198,0.058-0.835-1.103c0,0,0.001,0-0.002-0.006c0.2,0.692,0.412,1.421,0.047,0.974
							c-0.329-0.638-0.985-2.274-1.203-2.698c0.675,1.749-0.223,0.67,0.478,2.542c-0.153-0.445-0.632-1.519-0.743-1.731l0.546,1.422
							c-0.285-0.405-0.394-0.615-0.764-1.476c-0.373-0.138,1.245,2.556,0.436,1.577c-0.026-0.123-0.13-0.325-0.175-0.559
							c-0.57-0.444-0.203,1.149-0.793,0.593c-1.006-2.019,0.022-0.615-0.851-2.307c-0.242,0.557,0.257,2.846-0.357,2.539
							l0.176,0.194c1.247,2.928-0.938-1.302-0.525,0.157c-0.048-0.238-0.658-1.641-0.527-1.312
							c-0.481-0.345-0.235,0.963-0.237,2.062l-0.284-0.77c-0.458-0.594-0.593-0.195-0.918-0.457c0.283,0.768,0.13,0.692,0.676,1.749
							c-2.437-4.009,0.004,2.733-2.055-0.594c0.053-0.034-0.158-0.713-0.203-0.693l-0.096,0.865c0.599,1.25,0.396,0.742,0.922,1.689
							c0.285,0.773,0.432,1.405,0.332,1.45c-0.195-0.919-0.912-2.031-1.307-2.702c0.187,0.382,0.352,0.821,0.535,1.213
							c-1.219-2.156,1.106,2.561,0.139,1.174l-0.283-0.671c0.045,0.388,0.339,1.31,0.138,1.172
							c-0.704-1.442-0.192-0.734-0.724-1.942c-0.125,0.157,0.922,2.917,0.12,1.524c-0.114-0.439-0.017-0.49-0.13-0.926
							c-0.93-1.646-0.754-1.201-0.995-1.421l0.029,0.034l-0.624-0.654l0.279,0.434c1.507,3.907-0.102,0.884,0.744,3.506
							c-0.794-2.485-0.57-1.389-1.292-3.056c-0.276-0.428-0.614-0.897-0.793-1.377c0.47,1.396-0.689-0.956,0.005,1.081
							c-0.247-0.528-0.162,0.01-0.734-1.344c0.02,0.496,0.456,0.911,0.742,1.587c0.558,1.941-1.603-1.938-0.854,0.733
							c0.139,1.173,0.887,3.002,0.989,4.032c-0.484-0.809-0.789-1.982-0.789-1.982c-0.515-0.713-0.573-0.514-0.453,0.166
							c-0.178-0.479-0.386-0.859-0.702-1.437c-0.061,0.194,0.789,1.981,0.273,1.266c-0.239-0.607-0.63-1.576-0.839-2.2
							c0.075,0.557,0.379,1.618,0.444,2.167c-0.457-0.912-0.542-1.452-0.761-2.083c0.019,0.494-0.06,1.038,0.548,2.534l0.344,0.477
							c-0.029,0.1-0.599-1.25-0.674-1.54c-0.373-1.22,0.437,0.416,0.686,0.949l0.046,0.39c1.514,3.082,0.205-0.695,0.502-0.61
							l0.931,2.318l-0.626-1.989c0.313,0.571,0.915,1.829,0.961,2.218c0.659,1.055-0.226-0.871,0.469,0.324
							c0.102,0.189,0.145,0.301,0.171,0.397l-0.153-0.745c0.185,0.492,0.746,1.597,0.506,1.309c0.86,1.193-0.329-1.904,0.547-0.224
							l0.04,0.15c0.031-0.938-0.714-1.689-1.311-3.777l2.039,4.04l-0.713-1.689c0.066,0.043,0.199,0.134,0.484,0.809
							c-0.369-1.209-0.351-0.716-0.751-1.834c0.869,1.439,0.195-0.943,1.432,1.702c-0.503-1.301-0.618-0.901-0.815-1.874
							c1.341,2.839,0.01-0.594,0.77,0.644c0.61,1.502,0.098,0.791,0.86,2.035c-1.018-2.546,0.577,0.398,0.506-0.145
							c-0.885-1.992-0.059-0.969-0.114-1.74c0.284,0.674,0.944,0.888,1.491,1.507l0.143,0.337c-0.858-2.03-0.456-1.754-0.474-2.247
							c0.534,1.208,0.716,1.695,0.866,2.275l0.154-0.08c-0.251-0.661-0.354-1.023-0.354-1.299l0.634,1.52
							c0.174-0.177-0.368-1.96,0.353-1.078c-0.613-1.409-1.966-3.806-2.098-4.872c0.35,0.753,0.942,2.045,1.006,2.389
							c-0.019-0.109-0.195-0.669,0-0.368l0.457,1.327c0.375,0.505-0.413-1.094-0.261-1.02c0.483,1.082,0.419,0.739,0.789,1.603
							c0.022,0.116-0.287-0.409-0.134,0.033c0.198,0.144,0.621,0.725,1.032,1.523c-0.285-0.61-0.653-1.456-0.634-1.633
							c0.176-0.173,0.655,1.268,1.027,1.768c-0.285-0.773,0.198-0.055-0.523-1.673c0.065-0.02,0.415,0.729,0.635,1.157
							c-0.211-0.763,0.418-0.433-0.475-2.097l-0.079-0.101c-0.01-0.036-0.004-0.04-0.014-0.079c-0.001,0,0,0-0.001,0l0.001,0
							c-0.362-1.767,1.154,0.582,1.199-0.268l0.241,0.54c-0.065-0.713,0.308-0.577-0.062-1.807c0.063-0.026,0.591,0.922,0.852,1.577
							c-0.02-0.479-0.274-1.094,0.36-0.307c0.26,1.016,0.431,0.811,0.143,0.766c0.42,0.372,0.856,1.217,0.42-0.362
							c0.544,1.42,0.94,1.672,0.855,1.215l-0.592-0.926c0.022-0.252,0.176-0.173,0.328-0.1l0.763,1.846
							c1.424,2.023-0.913-4.119,1.078-0.557c-0.457-1.325-0.636-0.792-1.202-2.328c0.308,0.157,1.687,2.679,1.751,2.656
							c0.724,0.887-0.94-2.775-0.346-2.213c-0.327-0.632-1.139-2.352-1.201-3.059c0.306,0.151,1.466,2.616,1.574,3.193
							c-0.023,0.076-0.138-0.12-0.235-0.341c0.042,0.266,0.083,0.581,0.477,1.251l-0.266-0.661c0.396,0.619,0.637,0.427,1.052,1.523
							c-0.128-0.688-0.414-1.096-0.676-1.383c0.676,0.827,0.41-0.15,0.955,0.365c-0.202-0.339-0.583-1.085-0.538-1.098
							c0.745,0.633-0.383-1.308-0.251-1.71c0.592,0.924,1.007,2.388,0.897,1.441c0.461,0.599,0.807,1.709,0.98,2.267
							c-0.323-1.36,0.815,0.624,1.055,0.792l0.109,0.58c-0.064-0.345,0.001-0.364,0.066-0.388l-0.655-1.268
							c0.175,0.193,0.241,0.172,0.481,0.712c-0.306-0.885-1.027-2.135-1.398-3.367c0.394,0.616-0.018-0.843,0.789,0.866
							c-0.572-0.447,0.811,1.717,0.673,2.113c-0.042-0.229,0.024-0.248,0.2-0.053c0.097,0.188,0.15,0.362,0.174,0.47
							c0.987,1.408-0.738-2.011-0.413-2.109c0.397,0.989,0.898,1.812,0.855,1.582c-0.133,0.036-0.786-1.595-1.006-2.39
							c0.536,0.668-0.038-0.659,0.104-0.617l-0.277-0.304c-0.395-0.989-0.24-0.906-0.24-1.273c0.351,0.751,0.109,0.576,0.307,0.888
							c-0.613-1.776,1.137,1.614,0.833,0.368c0.394,0.615,0.828,1.822,1.115,2.229c-0.327-1.367,0.855,1.216,0.638,0.062
							c-0.657-1.273-0.527-0.949-0.922-2.301l0.001,1.104l-0.587-2.018c-0.133,0.037,0.107,0.94-0.068,0.75
							c-0.352-1.122-0.219-0.791-0.765-1.849c1.048,1.883-0.175-1.293,0.615-0.057l1.444,3.238c0.941,1.308-0.22-1.896,0.529-1.253
							l-0.375-0.508c-0.525-1.309,0.156-0.285,0.047-0.862c0.473,1.086,0.727,1.444,1.081,2.093
							c-0.366-0.799,0.314-0.052-0.619-2.227l0.809,1.347c0.571,0.444-1.027-3.238-0.565-3.004c0.437,1.215,0.916,1.92,1.093,2.85
							c0.104-0.034,0.282,0.124-0.052-0.626c0.362,0.651-0.377-1.579,0.174-0.594c-0.171-0.494-0.665-1.632-0.513-1.592
							c0.11,0.214,0.239,0.535,0.239,0.535c-0.239-0.535-0.152-0.806-0.785-1.958c1.818,3.235,0.746-0.628,2.31,2.148
							c0.054-0.46,0.16-0.924,0.321-1.091c0.132,0.329,0.241,0.539,0.153,0.443c0.722,0.883-1.224-3.177-0.412-2.194
							c0.941,1.676,0.26,1.019,0.654,1.636c1.637,3.538,0.155-0.652,1.294,1.331l0.044,0.232c0.701,1.137-0.216-1.521,0.157-1.384
							c0,0,0.128,0.32,0.239,0.538c-0.635-1.894-0.568-2.644-0.544-3.26c0.546,1.426,0.217,0.787,0.898,2.18
							c0.022-0.251-1.051-2.256-1.005-2.752c0.414,0.729,0.874,1.323,1.572,2.822l-0.174,0.176c0.983,1.905,0.243-0.189,0.506,0.101
							l0.368,0.859c0.199-0.422-0.761-2.574-0.344-2.576l-0.325-0.63c-0.765-2.216,0.696,1.126,0.175-0.543l1.026,2.136
							c-0.108-0.577-0.498-2.286-0.455-2.793c0.591,1.66,0.696,2.597,0.96,3.621c0.131-0.04,0.35-0.348-0.063-1.444
							c0.043,0.231,0.218,0.789,0.019,0.478c-0.609-1.767-0.783-2.693-0.519-2.766c1.834,4.209,1.118,0.767,2.757,3.942
							c-0.258-1.747,1.164,0.271,1.562-0.206c-1.642-3.178,0.107-0.159-1.425-3.493c0.023-0.266,0.093-0.231,0.201-0.02l1.256,1.838
							c0.522,0.936,0.218,0.789,0.566,1.535c0.375,0.14,0.745,1.37,1.316,2.182c-0.572-1.182-0.678-1.755-0.325-1.365l-0.901-1.45
							c-0.435-1.944,1.574,2.669,1.149,0.74l0.356,1.105c-0.091-0.706,0.703-0.289-0.318-3.061c0.206,0.372,0.661,1.267,0.687,1.547
							c0.63,0.202-0.283-3.31,0.808-1.81l0.333,0.833c-0.022-0.274-0.543-1.603-0.069-0.826c0.146,0.341,0.332,0.832,0.393,0.863
							c-0.082-0.302-0.42-1.534-0.095-1.107l0.318,0.963c0.919,0.876-0.333-2.544-0.217-3.27c1.079,2.411,1.775,3.039,2.122,3.352
							l0.147,0.344c0.644,0.069-0.029-2.386,0.019-3.544c1.466,2.484,1.485,0.651,2.613,1.906c-0.268-0.405-0.83-1.883-0.855-2.163
							c0.33,0.44-0.444-1.809,0.529,0.408l-0.058-0.024c1.055,2.131,1.024,1.453,1.228,1.432l-1.267-2.905
							c2.349,3.997,0.524-2.09,2.466,1.563c-0.212-0.773-0.07-0.827-0.282-1.599l0.689,1.553c0.488,0.257,0.73,0.382,0.948-0.16
							l0.419,1.143c0.263,0.006-1.73-4.592-1.572-4.773l1.097,2.287c0.361-0.205,1.654,1.655,1.086-0.611
							c0.146,0.342,0.435,1.016,0.415,1.137c0.205-0.02,1.39,1.258-0.099-1.889c0.931,2.066,0.48,0.027,0.275-0.976l0.652,1.54
							c-0.702-2.026-0.935-2.562-0.937-3.209c0.146,0.173,0.597,1.199,0.347,0.843c0.548,0.714-0.5-1.511,0.094-0.802l0.351,1.013
							c0.248,0.03-0.002-0.486-0.404-1.67c-0.152-0.667,0.543,0.219,1.19,1.586c-0.351-0.853-0.748-2.026-0.455-1.679
							c0.249,0.514,0.352,0.857,0.402,1.024c0.792,0.892-0.31-1.992,0.587-0.594c0.231,0.503,0.359,0.75,0.446,0.893
							c-0.276,0.08-0.522,0.089-0.552-0.03c0.631,1.406,0.951,1.56,1.655,3.577c-0.307-1.135-1.052-3.569-0.552-2.999
							c0.071,0.132,0.141,0.261,0.245,0.475l0.049,0.167c0.11,0.119,0.094-0.031,0.027-0.285c0.169,0.202,0.287,0.355,0.359,0.347
							c0.546,1.153,0.522,0.52,0.652,0.531c-0.699-1.536-0.451-1.35-1.149-2.562c0.065,0.101,0.062,0.192,0.021,0.287
							c0.005,0.052-0.004,0.084,0.027,0.179c-0.017-0.044-0.036-0.093-0.053-0.138c-0.049,0.075-0.123,0.15-0.214,0.219
							c-0.268-0.819-0.477-1.515,0.022-0.713c-0.39-1.013-0.787-2.057-0.967-2.549c1.105,2.083,1.901,3.119,2.533,4.425
							c-0.068-1.006,0.496-0.906-0.599-3.888c-0.076-0.412,0.476,0.782,0.713,1.221c0.078,0.314-0.004,0.297,0.154,0.725
							c-0.151-0.823,0.408-0.529-0.454-2.568c0.637,0.809,0.705,1.917,0.871,1.446l0.234,0.636c2.065,2.951-1.307-5.606,1.236-1.769
							c-0.161-0.233-0.238-0.34-0.399-0.674c1.6,1.478,0.841-2.436,2.91,0.116c0.481,0.486-0.074-0.815-0.38-1.856l0.789,1.632
							l-0.627-2.01c-0.302-1.542,2.38,3.806,1.606,0.98l-0.552-1.09c0.242,0.145,0.172-0.866,0.722,0.426
							c-0.076-0.21-0.471-1.179-0.153-0.625l0.392,0.863l-0.303-1.645c0.561,0.5,1.495,3.454,1.981,3.439
							c0.003-0.401-0.696-2.713-1.012-3.266c-0.081-0.015-0.398-0.468-0.792-1.334l-0.063-0.513
							c-1.117-2.56-2.181-5.219-3.321-6.846l0.461,1.665l-0.631-1.202l0.166-0.168c-0.635-1.113-0.246-0.051-0.01,0.692
							c-0.314-0.649-0.553-1.094-0.71-1.317l0.858,2.541c-0.476-0.986-0.783-2.027-1.186-2.507c0.397,1.18,1.107,2.189,1.259,3.014
							c-0.633-1.108-1.023-2.066-0.714-1.018c-0.313-0.648-0.472-1.079-0.549-1.391c0.234,0.841-0.166,0.474,0.38,1.857
							c-0.76-1.377-0.235,0.552-1.305-1.866c0.222,0.594,0.64,1.988,0.575,2.138c-1.095-2.978-0.485,0.014-1.821-3.107
							c1.017,2.664-0.017,1.393,0.367,2.951c-0.078-0.212-0.236-0.644-0.154-0.521c-0.244-0.15-0.638-0.913-0.952-1.361
							c0.943,2.154,0.933,2.747,1.403,4.126c-1.109-1.989-1.019-2.567-1.967-4.531c0.789,1.735,0.464,1.877,1.175,3.297
							c-0.712-1.219-0.398-0.568-1.266-2.314c1.178,2.694,0.075,0.511,0.699,2.21c-0.793-1.233-1.178-2.49-1.031-1.575
							C154.077,119.426,153.846,118.388,153.846,118.388z M150.702,125.368c-0.007-0.015-0.011-0.025-0.014-0.031
							c0.029-0.055,0.054-0.103,0.069-0.135C150.744,125.233,150.727,125.278,150.702,125.368z M150.274,125.588
							c0.08,0.036,0.152,0.017,0.217-0.025c0.254,0.525,0.482,1.079,0.426,1.071C150.782,126.269,150.54,126.008,150.274,125.588z
							 M155.983,135.838c0.028,0.249-0.13-0.043-0.281-0.354c0.021-0.042,0.036-0.111,0.039-0.239
							c-0.024-0.058-0.049-0.126-0.076-0.192C155.79,135.35,155.905,135.629,155.983,135.838z"/>
						<path class="st1" d="M155.203,133.763c-0.005-0.038-0.029-0.105-0.022-0.125c-0.075-0.128-0.14-0.239-0.197-0.328
							c0.065,0.167,0.128,0.332,0.192,0.493C155.185,133.789,155.196,133.779,155.203,133.763z"/>
						<path class="st1" d="M114.392,149.319l0.025,0.031c-0.035-0.058-0.069-0.115-0.118-0.21
							C114.339,149.211,114.36,149.26,114.392,149.319z"/>
						<polygon class="st1" points="142.893,125.361 143.067,125.748 142.953,125.391 						"/>
						<path class="st1" d="M109.606,145.121c-0.065-0.133-0.137-0.269-0.208-0.38C109.445,144.841,109.522,144.976,109.606,145.121z
							"/>
						<path class="st1" d="M108.408,145.244l-0.393-0.482C108.218,145.045,108.331,145.172,108.408,145.244z"/>
						<path class="st1" d="M107.263,144.84c0.111,0.275,0.199,0.479,0.28,0.666c0.003,0.005,0.003,0.005,0.007,0.011L107.263,144.84
							z"/>
						<path class="st1" d="M119.218,137.309c0.007-0.013,0.009-0.038,0-0.083C119.157,136.895,119.16,137.035,119.218,137.309z"/>
						<path class="st1" d="M117.031,142.608c-0.085-0.297-0.168-0.589-0.204-0.782C116.706,141.739,116.64,141.731,117.031,142.608z
							"/>
						<path class="st1" d="M122.629,133.555c0.004,0.01,0.006,0.013,0.012,0.027c0.007-0.01,0.017-0.008,0.026-0.012
							L122.629,133.555z"/>
						<path class="st1" d="M117.015,141.774c-0.205-0.276-0.232-0.185-0.189,0.052C116.928,141.904,117.064,142.033,117.015,141.774
							z"/>
						<path class="st1" d="M103.47,145.703l-0.068-0.047c0.046,0.102,0.081,0.185,0.106,0.25L103.47,145.703z"/>
						<path class="st1" d="M103.509,145.905l0.039,0.201C103.567,146.097,103.579,146.078,103.509,145.905z"/>
						<path class="st1" d="M103.631,146.534l-0.083-0.428C103.514,146.116,103.454,146.085,103.631,146.534z"/>
						<path class="st1" d="M104.851,145.937l-0.238-0.564C104.659,145.492,104.735,145.674,104.851,145.937z"/>
						<path class="st1" d="M105.102,145.631c-0.134-0.093-0.727-1.104-0.678-0.706l0.189,0.448
							C104.292,144.52,105.451,146.605,105.102,145.631z"/>
						<path class="st1" d="M109.543,151.925l-0.471-0.325c0.314,0.573,0.734,1.345,0.675,1.543
							C110.884,154.764,109.081,151.845,109.543,151.925z"/>
						<path class="st1" d="M110.768,152.411c-0.021,0.342,0.389,0.863,0.532,1.203C111.149,153.03,111.11,152.882,110.768,152.411z"
							/>
						<path class="st1" d="M116.836,149.698l0.613,1.407C117.471,150.854,117.207,150.562,116.836,149.698z"/>
						<polygon class="st1" points="114.75,141.94 114.251,141.118 114.774,142.425 						"/>
						<polygon class="st1" points="119.907,151.609 119.948,151.831 119.907,151.239 						"/>
						<path class="st1" d="M129.87,146.545l-0.807-1.71C129.126,145.179,129.979,147.124,129.87,146.545z"/>
						<path class="st1" d="M133.48,142.817c0.434,0.841,0.807,1.34,0.503,0.458C133.831,143.201,133.431,142.573,133.48,142.817z"/>
						<polygon class="st1" points="147.927,139.715 148.098,140.333 148.048,139.777 						"/>
					</g>
				</g>
			</g>
		</g>
	</g>
</g>
</svg>