<!-- Generator: Adobe Illustrator 24.3.0, SVG Export Plug-In  -->
<svg version="1.1" xmlns="http://www.w3.org/2000/svg" xmlns:xlink="http://www.w3.org/1999/xlink" x="0px" y="0px" width="668px"
	 height="182.521px" viewBox="0 0 668 182.521" style="overflow:visible;enable-background:new 0 0 668 182.521;"
	 xml:space="preserve">
<style type="text/css">
	.st0{fill:#FFFFFF;}
	.st1{fill:#231815;}
</style>
<defs>
</defs>
<g>
	<rect x="0" y="99.699" width="668" height="82.821"/>
	<g>
		<path class="st0" d="M32.394,171.007v-49.008H15.132v-9.978H61.36v9.978H44.139v49.008H32.394z"/>
		<path class="st0" d="M115.367,171.007H102.59l-5.079-13.398H74.258l-4.802,13.398h-12.46l22.658-58.985h12.42L115.367,171.007z
			 M93.741,147.67l-8.016-21.889l-7.857,21.889H93.741z"/>
		<path class="st0" d="M121.24,171.007v-58.985h11.745v58.985H121.24z"/>
		<path class="st0" d="M144.176,171.007v-58.985h18.85c7.143,0,11.798,0.295,13.968,0.885c3.333,0.885,6.124,2.81,8.372,5.773
			c2.249,2.965,3.373,6.794,3.373,11.487c0,3.621-0.648,6.666-1.944,9.134c-1.296,2.469-2.943,4.406-4.94,5.814
			s-4.027,2.34-6.091,2.796c-2.805,0.563-6.865,0.845-12.183,0.845h-7.658v22.251H144.176z M155.922,121.999v16.738h6.429
			c4.629,0,7.724-0.308,9.285-0.925c1.561-0.617,2.784-1.583,3.671-2.897c0.886-1.313,1.329-2.843,1.329-4.587
			c0-2.146-0.622-3.916-1.865-5.312c-1.243-1.394-2.817-2.266-4.722-2.615c-1.402-0.268-4.22-0.402-8.452-0.402H155.922z"/>
		<path class="st0" d="M198.381,171.007v-58.985h43.135v9.978h-31.389v13.077h29.206v9.938h-29.206v16.054h32.499v9.938H198.381z"/>
		<path class="st0" d="M252.229,171.007v-58.985h11.745v58.985H252.229z"/>
		<path class="st0" d="M297.783,171.007v-58.985h11.746v23.216h23.015v-23.216h11.746v58.985h-11.746v-25.791h-23.015v25.791
			H297.783z"/>
		<path class="st0" d="M354.052,141.876c0-6.009,0.887-11.051,2.659-15.129c1.322-3.004,3.128-5.699,5.416-8.087
			s4.795-4.157,7.521-5.312c3.624-1.556,7.803-2.333,12.539-2.333c8.571,0,15.429,2.695,20.575,8.087
			c5.145,5.392,7.718,12.89,7.718,22.492c0,9.522-2.554,16.973-7.658,22.351c-5.106,5.379-11.932,8.067-20.477,8.067
			c-8.65,0-15.528-2.676-20.634-8.027C356.604,158.634,354.052,151.265,354.052,141.876z M366.155,141.474
			c0,6.679,1.521,11.742,4.563,15.189c3.042,3.446,6.904,5.17,11.587,5.17s8.524-1.71,11.527-5.13
			c3.002-3.42,4.504-8.551,4.504-15.391c0-6.76-1.462-11.802-4.385-15.129c-2.924-3.325-6.806-4.989-11.646-4.989
			c-4.842,0-8.744,1.684-11.706,5.05C367.637,129.612,366.155,134.688,366.155,141.474z"/>
		<path class="st0" d="M432.741,171.007v-49.008h-17.262v-9.978h46.229v9.978h-17.222v49.008H432.741z"/>
		<path class="st0" d="M469.248,112.022h21.468c4.841,0,8.531,0.375,11.071,1.126c3.412,1.02,6.335,2.83,8.77,5.432
			c2.434,2.603,4.285,5.788,5.555,9.557c1.271,3.769,1.905,8.416,1.905,13.941c0,4.855-0.596,9.04-1.786,12.554
			c-1.455,4.292-3.531,7.766-6.229,10.421c-2.037,2.012-4.789,3.581-8.254,4.708c-2.593,0.831-6.059,1.247-10.396,1.247h-22.103
			V112.022z M480.993,121.999v39.069h8.771c3.279,0,5.647-0.188,7.103-0.563c1.904-0.482,3.485-1.301,4.742-2.454
			c1.256-1.153,2.281-3.051,3.075-5.693c0.794-2.642,1.19-6.243,1.19-10.804c0-4.56-0.396-8.06-1.19-10.501
			c-0.794-2.44-1.905-4.346-3.333-5.714c-1.429-1.368-3.241-2.293-5.437-2.776c-1.641-0.375-4.854-0.563-9.643-0.563H480.993z"/>
		<path class="st0" d="M525.595,141.876c0-6.009,0.887-11.051,2.659-15.129c1.322-3.004,3.128-5.699,5.416-8.087
			s4.795-4.157,7.521-5.312c3.624-1.556,7.803-2.333,12.539-2.333c8.571,0,15.429,2.695,20.575,8.087
			c5.145,5.392,7.718,12.89,7.718,22.492c0,9.522-2.554,16.973-7.658,22.351c-5.106,5.379-11.932,8.067-20.477,8.067
			c-8.65,0-15.528-2.676-20.634-8.027C528.147,158.634,525.595,151.265,525.595,141.876z M537.698,141.474
			c0,6.679,1.521,11.742,4.563,15.189c3.042,3.446,6.904,5.17,11.587,5.17s8.524-1.71,11.527-5.13
			c3.002-3.42,4.504-8.551,4.504-15.391c0-6.76-1.462-11.802-4.385-15.129c-2.924-3.325-6.806-4.989-11.646-4.989
			c-4.842,0-8.744,1.684-11.706,5.05C539.18,129.612,537.698,134.688,537.698,141.474z"/>
		<path class="st0" d="M618.252,149.32v-9.938h25.316v23.498c-2.46,2.414-6.025,4.541-10.694,6.378s-9.398,2.756-14.186,2.756
			c-6.085,0-11.389-1.294-15.912-3.883c-4.524-2.588-7.924-6.29-10.198-11.105c-2.275-4.814-3.413-10.052-3.413-15.712
			c0-6.143,1.27-11.601,3.81-16.376c2.54-4.774,6.256-8.436,11.15-10.984c3.73-1.958,8.373-2.937,13.929-2.937
			c7.222,0,12.862,1.535,16.924,4.606c4.061,3.071,6.673,7.316,7.837,12.734l-11.666,2.213c-0.82-2.896-2.361-5.184-4.623-6.86
			c-2.262-1.676-5.086-2.515-8.472-2.515c-5.133,0-9.213,1.65-12.242,4.949c-3.029,3.3-4.544,8.195-4.544,14.687
			c0,7.001,1.534,12.252,4.604,15.752c3.068,3.501,7.09,5.251,12.063,5.251c2.46,0,4.927-0.489,7.4-1.469
			c2.474-0.979,4.596-2.166,6.369-3.561v-7.484H618.252z"/>
	</g>
	<rect x="0.482" y="0.001" class="st0" width="667.037" height="75.129"/>
	<g>
		<path class="st1" d="M29.866,64.686V20.231H14.208v-9.052h41.935v9.052H40.521v44.455H29.866z"/>
		<path class="st1" d="M63.018,64.686V11.179h17.099c6.479,0,10.702,0.268,12.671,0.803c3.023,0.803,5.555,2.549,7.595,5.237
			c2.04,2.689,3.06,6.163,3.06,10.421c0,3.284-0.588,6.047-1.764,8.285s-2.67,3.996-4.481,5.273s-3.653,2.124-5.525,2.537
			c-2.544,0.511-6.228,0.767-11.051,0.767h-6.947v20.184H63.018z M73.673,20.231v15.183h5.831c4.199,0,7.008-0.279,8.424-0.839
			c1.415-0.56,2.525-1.436,3.329-2.628s1.206-2.579,1.206-4.161c0-1.946-0.564-3.552-1.691-4.817
			c-1.129-1.266-2.557-2.057-4.284-2.373c-1.272-0.242-3.827-0.364-7.667-0.364H73.673z"/>
		<path class="st1" d="M112.225,64.686V11.179h10.654v21.06h20.878v-21.06h10.655v53.507h-10.655V41.29h-20.878v23.396H112.225z"/>
		<path class="st1" d="M165.391,11.179h19.474c4.392,0,7.739,0.341,10.042,1.021c3.096,0.925,5.748,2.567,7.955,4.928
			c2.209,2.36,3.889,5.25,5.04,8.668c1.151,3.419,1.728,7.635,1.728,12.647c0,4.404-0.539,8.2-1.619,11.387
			c-1.32,3.894-3.204,7.045-5.652,9.454c-1.848,1.824-4.343,3.248-7.486,4.27c-2.352,0.755-5.496,1.132-9.432,1.132h-20.049V11.179z
			 M176.045,20.231V55.67H184c2.976,0,5.123-0.17,6.443-0.511c1.729-0.438,3.162-1.18,4.302-2.227
			c1.14-1.046,2.069-2.768,2.79-5.164c0.719-2.396,1.08-5.663,1.08-9.8s-0.361-7.312-1.08-9.526
			c-0.721-2.214-1.729-3.942-3.023-5.183c-1.297-1.241-2.94-2.081-4.932-2.519c-1.488-0.341-4.404-0.511-8.748-0.511H176.045z"/>
		<path class="st1" d="M251.024,64.686V20.231h-15.658v-9.052h41.935v9.052H261.68v44.455H251.024z"/>
		<path class="st1" d="M284.176,64.686V11.179h17.099c6.479,0,10.702,0.268,12.671,0.803c3.023,0.803,5.555,2.549,7.595,5.237
			c2.04,2.689,3.06,6.163,3.06,10.421c0,3.284-0.588,6.047-1.764,8.285s-2.67,3.996-4.481,5.273s-3.653,2.124-5.525,2.537
			c-2.544,0.511-6.228,0.767-11.051,0.767h-6.947v20.184H284.176z M294.831,20.231v15.183h5.831c4.199,0,7.008-0.279,8.424-0.839
			c1.415-0.56,2.525-1.436,3.329-2.628s1.206-2.579,1.206-4.161c0-1.946-0.564-3.552-1.691-4.817
			c-1.129-1.266-2.557-2.057-4.284-2.373c-1.272-0.242-3.827-0.364-7.667-0.364H294.831z"/>
		<path class="st1" d="M333.383,64.686V11.179h10.654v21.06h20.878v-21.06h10.655v53.507h-10.655V41.29h-20.878v23.396H333.383z"/>
		<path class="st1" d="M386.549,11.179h19.474c4.392,0,7.739,0.341,10.042,1.021c3.096,0.925,5.748,2.567,7.955,4.928
			c2.209,2.36,3.889,5.25,5.04,8.668c1.151,3.419,1.728,7.635,1.728,12.647c0,4.404-0.539,8.2-1.619,11.387
			c-1.32,3.894-3.204,7.045-5.652,9.454c-1.848,1.824-4.343,3.248-7.486,4.27c-2.352,0.755-5.496,1.132-9.432,1.132h-20.049V11.179z
			 M397.203,20.231V55.67h7.955c2.976,0,5.123-0.17,6.443-0.511c1.729-0.438,3.162-1.18,4.302-2.227
			c1.14-1.046,2.069-2.768,2.79-5.164c0.719-2.396,1.08-5.663,1.08-9.8s-0.361-7.312-1.08-9.526
			c-0.721-2.214-1.729-3.942-3.023-5.183c-1.297-1.241-2.94-2.081-4.932-2.519c-1.488-0.341-4.404-0.511-8.748-0.511H397.203z"/>
		<path class="st1" d="M472.184,64.686V20.231h-15.658v-9.052h41.935v9.052h-15.622v44.455H472.184z"/>
		<path class="st1" d="M505.335,64.686V11.179h17.099c6.479,0,10.702,0.268,12.67,0.803c3.023,0.803,5.555,2.549,7.596,5.237
			c2.039,2.689,3.059,6.163,3.059,10.421c0,3.284-0.588,6.047-1.764,8.285s-2.67,3.996-4.48,5.273
			c-1.812,1.277-3.654,2.124-5.525,2.537c-2.545,0.511-6.229,0.767-11.051,0.767h-6.947v20.184H505.335z M515.99,20.231v15.183
			h5.831c4.199,0,7.007-0.279,8.423-0.839s2.525-1.436,3.33-2.628c0.803-1.192,1.205-2.579,1.205-4.161
			c0-1.946-0.564-3.552-1.691-4.817c-1.129-1.266-2.556-2.057-4.283-2.373c-1.272-0.242-3.828-0.364-7.668-0.364H515.99z"/>
		<path class="st1" d="M554.541,64.686V11.179h10.654v21.06h20.878v-21.06h10.655v53.507h-10.655V41.29h-20.878v23.396H554.541z"/>
		<path class="st1" d="M607.707,11.179h19.475c4.391,0,7.738,0.341,10.042,1.021c3.096,0.925,5.747,2.567,7.955,4.928
			s3.888,5.25,5.04,8.668c1.151,3.419,1.728,7.635,1.728,12.647c0,4.404-0.54,8.2-1.62,11.387c-1.32,3.894-3.203,7.045-5.651,9.454
			c-1.849,1.824-4.343,3.248-7.487,4.27c-2.352,0.755-5.495,1.132-9.431,1.132h-20.05V11.179z M618.361,20.231V55.67h7.955
			c2.977,0,5.124-0.17,6.443-0.511c1.729-0.438,3.162-1.18,4.303-2.227c1.139-1.046,2.069-2.768,2.789-5.164s1.08-5.663,1.08-9.8
			s-0.36-7.312-1.08-9.526s-1.729-3.942-3.023-5.183c-1.296-1.241-2.939-2.081-4.932-2.519c-1.488-0.341-4.404-0.511-8.747-0.511
			H618.361z"/>
	</g>
</g>
</svg>