<!-- Generator: Adobe Illustrator 24.3.0, SVG Export Plug-In  -->
<svg version="1.1" xmlns="http://www.w3.org/2000/svg" xmlns:xlink="http://www.w3.org/1999/xlink" x="0px" y="0px"
	 width="111.919px" height="167.941px" viewBox="0 0 111.919 167.941"
	 style="overflow:visible;enable-background:new 0 0 111.919 167.941;" xml:space="preserve">
<style type="text/css">
	.st0{fill:#FF0000;}
</style>
<defs>
</defs>
<g>
	<path class="st0" d="M53.16,161.758c-1.648,0.289-3.224,1.186-4.735,2.69c-1.516,1.513-3.211,2.159-5.102,1.96
		c-0.784-0.037-1.195-0.627-1.24-1.777c-0.05-1.142-0.182-2.362-0.409-3.651c-0.227-1.292-0.63-2.461-1.197-3.516
		c-0.567-1.051-1.606-1.449-3.102-1.187l-0.45,0.079c-1.047,1.074-1.499,2.657-1.362,4.763c0.138,2.106,0.236,3.328,0.297,3.674
		c-0.991-0.36-1.704-0.456-2.139-0.291s-0.799,0.5-1.102,0.991c-0.295,0.497-0.565,0.943-0.803,1.338
		c-0.243,0.402-0.679,0.564-1.305,0.496c-1.496,0.263-2.885-0.381-4.16-1.931c-1.275-1.547-2.362-3.351-3.264-5.415
		c-0.907-2.056-1.662-4.182-2.28-6.382c-0.617-2.193-1.017-3.811-1.198-4.841c0.057-1.428,0.226-2.875,0.513-4.35
		c0.282-1.467,0.363-2.988,0.237-4.562l8.405-0.944c0.747,0.759,1.734,1.52,2.951,2.275c1.213,0.767,2.43,1.13,3.664,1.088
		c1.648-0.289,3.193-1.134,4.651-2.547c1.447-1.401,3.012-2.164,4.69-2.283c1.198-0.21,1.988,0.093,2.365,0.914
		c0.377,0.824,1.16,1.125,2.358,0.915c1.198-0.21,2.062-0.579,2.588-1.117c0.521-0.533,1.038-1.553,1.544-3.064
		c-0.9,0.158-1.571-0.166-2.021-0.978c-0.212-0.315,0.044-1.069,0.757-2.259c0.719-1.191,1.122-1.967,1.214-2.34
		c-0.363-2.066-0.951-4.756-1.765-8.072c-0.814-3.316-1.65-6.76-2.51-10.335c-0.859-3.572-1.583-7.035-2.171-10.391
		c-0.588-3.352-0.823-6.014-0.706-7.99c-0.059-0.339-0.075-1.091-0.047-2.25s0.061-2.493,0.109-4.009
		c0.041-1.514,0.057-2.981,0.041-4.396c-0.016-1.415-0.012-2.481,0.019-3.195c-0.065-2.119-0.406-3.833-1.019-5.143
		c-0.619-1.309-1.061-2.742-1.333-4.29c-0.06-0.342-0.161-1.343-0.295-3.004c-0.141-1.66-0.224-3.024-0.252-4.081
		c-0.16-3.52-0.282-7.089-0.377-10.705s-0.594-7.12-1.497-10.513c-0.03-0.169-0.425-0.634-1.172-1.39
		c-0.747-0.756-1.272-1.105-1.57-1.053c0.207-0.571,0.259-1.598,0.147-3.089c-0.104-1.485-0.125-2.503-0.07-3.044l-0.45,0.079
		l-0.444,0.078l-0.225,0.04c-0.092,0.372-0.256,0.757-0.495,1.148c-0.243,0.402-0.343,0.687-0.314,0.853
		c-0.693,0.481-1.456,1.189-2.287,2.133c-0.844,0.946-1.381,1.617-1.619,2.015c-0.152,0.027-0.541,0.223-1.17,0.604
		c-0.624,0.373-1.293,0.758-1.996,1.148c-0.71,0.388-1.333,0.765-1.89,1.13c-0.551,0.36-0.811,0.63-0.781,0.8
		c-1.382,0.955-2.802,2.312-4.266,4.076c-1.471,1.765-3.024,3.455-4.671,5.073c-1.647,1.621-3.34,2.98-5.077,4.083
		s-3.563,1.473-5.478,1.097c0.233-2.171,0.181-4.021-0.163-5.557c-0.351-1.534-0.865-2.947-1.558-4.25
		c-0.692-1.296-1.551-2.656-2.571-4.073s-2.157-3.077-3.42-4.985c-0.029-0.166-0.064-0.559-0.091-1.181
		C0.059,36.253,0.03,35.859,0,35.686c0.055-0.54,0.199-1.275,0.426-2.201c0.22-0.926,0.92-1.134,2.086-0.633
		c0.176,0.147,0.477,0.54,0.902,1.174c0.419,0.635,0.807,1.098,1.172,1.39l0.225-0.039c0.481,0.094,1.112-0.238,1.906-1.001
		c0.795-0.759,1.6-1.652,2.422-2.687c0.823-1.028,1.525-2.084,2.113-3.163c0.583-1.075,0.831-1.877,0.741-2.388
		c0.262-1.115,0.216-2.036-0.145-2.771c-0.354-0.736-0.494-1.726-0.408-2.988l2.837,0.3c0.357-3.254,0.766-5.321,1.226-6.199
		s1.01-1.282,1.642-1.218c0.626,0.068,1.387,0.202,2.268,0.4c0.882,0.202,1.898-0.422,3.031-1.861
		c0.511-0.624,0.8-1.159,0.876-1.621c0.071-0.451,0.122-0.819,0.157-1.089c0.028-0.268,0.157-0.427,0.382-0.466
		c0.225-0.039,0.818,0.035,1.779,0.222c0.748-0.131,1.389,0.02,1.93,0.459c-0.328-0.121-0.845,0.237-1.546,1.069
		c-0.707,0.833-1.106,1.434-1.191,1.805c-0.274,0.226-0.307,0.895-0.111,2.014c0.196,1.12,0.26,1.949,0.205,2.49
		c0.962,0.191,1.598-0.149,1.912-1.002c0.308-0.852,0.687-1.802,1.117-2.853s1.049-1.958,1.843-2.717
		c0.788-0.758,2.067-0.94,3.842-0.546l0.57-8.61c0.086-0.368,0.425-0.648,1.012-0.844c0.581-0.187,1.054-0.139,1.418,0.15
		c2.152,0.869,4.701,2.367,7.624,4.518c2.922,2.145,4.893,3.929,5.92,5.344c0.206,0.32,0.675,0.772,1.397,1.351
		c0.717,0.583,1.257,1.019,1.616,1.312c1.683,1.657,2.826,4.206,3.429,7.641c0.605,3.445,1.024,6.966,1.272,10.552
		c0.242,3.594,0.551,6.91,0.933,9.945c0.376,3.037,1.181,4.979,2.415,5.828c0.121,0.691,0.23,1.78,0.341,3.267
		c0.104,1.488,0.191,3.069,0.252,4.743c0.062,1.677,0.069,3.272,0.027,4.783c-0.047,1.519-0.077,2.632-0.109,3.346l-0.179,1.627
		c-0.117,1.082-0.099,1.613,0.047,1.588c0.213,0.319,0.811,0.656,1.802,1.012c0.991,0.357,1.59,0.697,1.802,1.012
		c0.54,1.33,0.862,3.397,0.974,6.212c0.107,2.824,0.13,5.833,0.077,9.034c-0.059,3.202-0.135,6.271-0.239,9.218
		c-0.097,2.945-0.09,5.202,0.036,6.776c0.176,0.147,0.545,0.93,1.106,2.335c0.555,1.413,0.844,2.203,0.874,2.372
		c0.247,2.265,0.382,3.926,0.417,4.981c0.029,1.06,0.122,2.02,0.273,2.88c0.152,0.864,0.397,1.836,0.745,2.925
		c0.342,1.094,1.014,2.707,2.002,4.835l0.091,0.518c0.03,0.173,0.005,0.263-0.068,0.275s-0.097,0.11-0.066,0.282l0.09,0.511
		c-0.146,0.026-0.362,0.113-0.646,0.249c-0.289,0.143-0.507,0.224-0.652,0.25l-0.135,0.551l0.136,0.774l1.929-0.866
		c-0.36,0.59-0.598,1.879-0.71,3.847c-0.117,1.976,0.029,3.276,0.454,3.91c0.327,1.008,1.018,1.642,2.067,1.899
		s2.274,0.399,3.663,0.419c1.396,0.022,2.85-0.051,4.361-0.231c1.512-0.173,2.812-0.269,3.888-0.283
		c0.778,0.042,1.333-0.102,1.665-0.428c0.326-0.321,0.76-1.152,1.304-2.487l0.409,3.654c0.268-0.225,0.793-0.538,1.568-0.945
		c0.776-0.4,1.316-0.63,1.62-0.683c0.031,0.176,0.119,0.25,0.271,0.223l0.45-0.079c0.444-0.078,0.778,0.042,0.983,0.355
		c0.214,0.322,0.724,0.585,1.532,0.8c0.298-0.052,0.718-0.304,1.26-0.755c0.536-0.447,0.758-0.931,0.667-1.449l-0.09-0.515
		c-0.328-0.117-0.872-0.378-1.638-0.778c-0.766-0.396-1.301-0.57-1.599-0.517c0.146-0.026,0.293-0.315,0.427-0.873
		c0.135-0.554,0.275-0.846,0.427-0.873l-0.045-0.256l0.495,0.177l0.45-0.079c3.083,0.884,5.509,1.256,7.26,1.12
		c1.752-0.129,3.099,0.083,4.047,0.622c0.942,0.547,1.666,1.795,2.165,3.745c0.493,1.951,1.016,5.364,1.563,10.23
		c0.181,1.033,0.412,2.813,0.703,5.33c0.286,2.522,0.102,4.549-0.557,6.082l-1.172-1.39l-1.18-9.368
		c-0.298,0.052-0.628,0.153-0.984,0.304c-0.362,0.156-0.693,0.253-0.99,0.306c-0.305,0.053-0.559-0.073-0.766-0.396
		c-0.212-0.315-0.318-0.917-0.317-1.807c-0.633,0.824-1.096,1.923-1.392,3.308c-0.297,1.377-0.625,2.813-0.98,4.293
		c-0.36,1.485-0.672,2.779-0.942,3.888c-0.269,1.112-0.613,1.796-1.027,2.043c-0.03-0.169-0.22-0.36-0.564-0.567
		c-0.349-0.202-0.533-0.391-0.563-0.564l-0.675,0.118l-0.541-0.439c-0.244,0.399-0.62,0.864-1.147,1.398
		c-0.52,0.537-0.829,0.99-0.915,1.357l-0.588-3.352c-0.932,0.872-1.657,1.797-2.181,2.776c-0.517,0.981-1.051,2.137-1.588,3.47
		c-0.365-0.292-0.753-0.751-1.172-1.39c-0.425-0.631-0.902-1.174-1.443-1.61c0.449,0.808,0.474,1.381,0.069,1.715
		c-0.398,0.337-0.826,0.544-1.276,0.623c-0.602,0.106-1.017-0.042-1.238-0.445c-0.227-0.402-0.424-0.859-0.587-1.361
		c-0.17-0.501-0.365-0.955-0.587-1.361c-0.227-0.402-0.636-0.551-1.238-0.445l-0.669,0.117c-0.152,0.027-0.289,0.14-0.405,0.335
		c0.478,1.868,0.282,3.587-0.603,5.16c-0.884,1.573-1.964,2.649-3.254,3.232l-0.498-2.841c-0.748,0.131-1.272,0.451-1.575,0.942
		c-0.296,0.494-0.608,1.125-0.937,1.892c-0.33,0.767-0.713,1.457-1.145,2.068c-0.433,0.603-1.102,0.991-1.996,1.148l-0.225,0.04
		l-1.307-0.839c-0.755,0.132-1.304,0.5-1.665,1.09c-0.867-1.444-1.604-2.333-2.202-2.67c-0.605-0.339-1.519-0.489-2.747-0.451
		c-2.037-0.173-3.416,1.219-4.124,4.186c-0.214-0.322-0.595-0.743-1.15-1.266s-1.001-0.843-1.329-0.964l-1.125,0.197
		c-0.596,0.105-0.909,0.07-0.939-0.099c-0.57-0.605-0.982-1.16-1.218-1.649c-0.243-0.488-0.438-0.942-0.587-1.361
		c-0.155-0.415-0.361-0.735-0.631-0.951C54.645,161.629,54.06,161.6,53.16,161.758z M22.05,17.454
		c-0.335-0.119-0.54,0.227-0.63,1.04c-0.089,0.814,0.122,1.357,0.632,1.617c0.48,0.094,0.679-0.29,0.607-1.168
		C22.581,18.07,22.378,17.575,22.05,17.454z M22.998,20.213c0.061,0.349,0.107,1.271,0.138,2.772
		c0.031,1.501,0.462,2.441,1.308,2.827c0.864-0.326,1.447-0.738,1.748-1.24c0.296-0.49,0.536-1.109,0.719-1.85
		c0.146-0.916-0.152-1.526-0.903-1.84c-0.75-0.307-1.439-0.499-2.072-0.566c-0.146,0.026-0.305,0.011-0.467-0.053
		C23.304,20.205,23.144,20.187,22.998,20.213z M68.657,151.06c0.03,0.173,0.133,0.333,0.315,0.472l0.541,0.439l0.134-0.558
		l-0.315-0.472c-0.121-0.688-0.407-0.997-0.857-0.918l-0.179,0.302L68.657,151.06z M72.111,145.663
		c-0.565,0.281-0.787,0.804-0.651,1.578c0.136,0.774,0.494,1.025,1.059,0.744c0.481,0.097,0.653-0.246,0.517-1.02
		C72.9,146.19,72.592,145.76,72.111,145.663z M75.231,158.149c-0.542,0.451-0.757,0.977-0.651,1.578
		c0.106,0.605,0.131,1.174,0.069,1.715l1.216,0.321L75.231,158.149z M74.503,151.359l1.125-0.198l0.044-1.069L74.503,151.359z
		 M75.993,154.56c-0.602,0.106-0.825,0.586-0.674,1.447c0.151,0.86,0.524,1.237,1.127,1.131c0.48,0.094,0.646-0.284,0.495-1.148
		C76.789,155.129,76.473,154.654,75.993,154.56z M79.409,155.556c-0.335-0.119-0.45,0.079-0.36,0.594s0.281,0.749,0.586,0.695
		C80.383,156.714,80.309,156.289,79.409,155.556z M78.811,142.891c-0.634,0.82-0.854,1.746-0.672,2.779l0.181,1.03
		c0.391-0.418,0.573-0.898,0.562-1.427c-0.018-0.528-0.053-0.963-0.114-1.309C78.882,143.766,78.901,143.406,78.811,142.891z
		 M83.175,146.645c-0.664,0.651-0.962,1.594-0.897,2.822c0.059,1.229,0.122,2.016,0.182,2.362l1.305-0.496L83.175,146.645z"/>
</g>
</svg>